LibreFranklin-ExtraLight.ufo
<glyph name="exclam" format="2">
  <advance width="234.8125"/>
  <unicode hex="0021"/>
  <outline>
    <contour>
      <point x="152.875" y="12.125" type="curve"/>
      <point x="152.875" y="77.625" type="line"/>
      <point x="152.875" y="84.0625"/>
      <point x="150.625" y="86.375"/>
      <point x="145.1875" y="86.375" type="curve"/>
      <point x="89.375" y="86.375" type="line" smooth="yes"/>
      <point x="84.9375" y="86.375"/>
      <point x="81.625" y="84.0625"/>
      <point x="81.625" y="76.5625" type="curve"/>
      <point x="81.625" y="10.9375" type="line" smooth="yes"/>
      <point x="81.625" y="3.3125"/>
      <point x="83.9375" y="0.0"/>
      <point x="92.6875" y="0.0" type="curve"/>
      <point x="138.625" y="0.0" type="line" smooth="yes"/>
      <point x="149.5" y="0.0"/>
      <point x="152.875" y="3.3125"/>
    </contour>
    <contour>
      <point x="136.375" y="164.625" type="curve"/>
      <point x="149.6875" y="735.0625" type="line"/>
      <point x="149.75" y="738.6875"/>
      <point x="147.375" y="742.0"/>
      <point x="142.9375" y="742.0" type="curve"/>
      <point x="91.75" y="742.0" type="line" smooth="yes"/>
      <point x="88.1875" y="742.0"/>
      <point x="85.75" y="739.625"/>
      <point x="85.875" y="734.0" type="curve"/>
      <point x="98.375" y="163.5" type="line" smooth="yes"/>
      <point x="98.5" y="157.75"/>
      <point x="100.625" y="155.375"/>
      <point x="107.5" y="155.375" type="curve"/>
      <point x="124.9375" y="155.375" type="line" smooth="yes"/>
      <point x="132.9375" y="155.375"/>
      <point x="136.25" y="157.75"/>
    </contour>
  </outline>
</glyph>
<glyph name="numbersign" format="2">
  <advance width="603.0"/>
  <unicode hex="0023"/>
  <outline>
    <contour>
      <point x="170.3125" y="8.5" type="curve"/>
      <point x="281.5" y="726.3125" type="line"/>
      <point x="282.5625" y="733.6875"/>
      <point x="280.1875" y="736.875"/>
      <point x="273.875" y="737.875" type="curve"/>
      <point x="247.5625" y="742.0" type="line" smooth="yes"/>
      <point x="244.0625" y="743.0"/>
      <point x="240.9375" y="739.5625"/>
      <point x="239.8125" y="734.875" type="curve"/>
      <point x="128.5" y="11.1875" type="line" smooth="yes"/>
      <point x="128.375" y="7.1875"/>
      <point x="130.0" y="5.1875"/>
      <point x="135.9375" y="4.0625" type="curve"/>
      <point x="160.8125" y="0.0" type="line" smooth="yes"/>
      <point x="166.125" y="-1.125"/>
      <point x="169.1875" y="1.375"/>
    </contour>
    <contour>
      <point x="374.625" y="8.5" type="curve"/>
      <point x="485.8125" y="726.3125" type="line"/>
      <point x="486.875" y="733.6875"/>
      <point x="484.5" y="736.875"/>
      <point x="478.1875" y="737.875" type="curve"/>
      <point x="451.875" y="742.0" type="line" smooth="yes"/>
      <point x="448.375" y="743.0"/>
      <point x="445.25" y="739.5625"/>
      <point x="444.125" y="734.875" type="curve"/>
      <point x="332.8125" y="11.1875" type="line" smooth="yes"/>
      <point x="332.6875" y="7.1875"/>
      <point x="334.3125" y="5.1875"/>
      <point x="340.25" y="4.0625" type="curve"/>
      <point x="365.125" y="0.0" type="line" smooth="yes"/>
      <point x="370.4375" y="-1.125"/>
      <point x="373.5" y="1.375"/>
    </contour>
    <contour>
      <point x="527.5" y="257.5" type="curve"/>
      <point x="527.5" y="283.0" type="line"/>
      <point x="527.5" y="287.5"/>
      <point x="524.25" y="289.875"/>
      <point x="519.8125" y="289.875" type="curve"/>
      <point x="48.375" y="289.875" type="line" smooth="yes"/>
      <point x="44.8125" y="289.875"/>
      <point x="42.5" y="287.5"/>
      <point x="42.5" y="281.875" type="curve"/>
      <point x="42.5" y="256.375" type="line" smooth="yes"/>
      <point x="42.5" y="250.625"/>
      <point x="44.75" y="248.25"/>
      <point x="51.625" y="248.25" type="curve"/>
      <point x="516.0625" y="248.25" type="line" smooth="yes"/>
      <point x="524.0625" y="248.25"/>
      <point x="527.5" y="250.625"/>
    </contour>
    <contour>
      <point x="560.5" y="467.5" type="curve"/>
      <point x="560.5" y="493.0" type="line"/>
      <point x="560.5" y="497.5"/>
      <point x="557.25" y="499.875"/>
      <point x="552.8125" y="499.875" type="curve"/>
      <point x="81.375" y="499.875" type="line" smooth="yes"/>
      <point x="77.8125" y="499.875"/>
      <point x="75.5" y="497.5"/>
      <point x="75.5" y="491.875" type="curve"/>
      <point x="75.5" y="466.375" type="line" smooth="yes"/>
      <point x="75.5" y="460.625"/>
      <point x="77.75" y="458.25"/>
      <point x="84.625" y="458.25" type="curve"/>
      <point x="549.0625" y="458.25" type="line" smooth="yes"/>
      <point x="557.0625" y="458.25"/>
      <point x="560.5" y="460.625"/>
    </contour>
  </outline>
</glyph>
<glyph name="dollar" format="2">
  <advance width="581.0625"/>
  <unicode hex="0024"/>
  <outline>
    <contour>
      <point x="541.5625" y="169.3125" type="curve"/>
      <point x="541.5625" y="169.3125" type="line"/>
      <point x="541.5625" y="264.8125"/>
      <point x="480.6875" y="328.0"/>
      <point x="367.625" y="374.5" type="curve"/>
      <point x="338.125" y="386.75" type="line" smooth="yes"/>
      <point x="329.0625" y="390.625"/>
      <point x="327.0" y="392.6875"/>
      <point x="327.0" y="401.5625" type="curve"/>
      <point x="327.0" y="691.875" type="line" smooth="yes"/>
      <point x="327.0" y="697.875"/>
      <point x="329.1875" y="701.0"/>
      <point x="336.3125" y="699.875" type="curve"/>
      <point x="398.1875" y="691.6875"/>
      <point x="453.25" y="663.4375"/>
      <point x="484.3125" y="625.0" type="curve"/>
      <point x="490.9375" y="616.625"/>
      <point x="493.375" y="615.9375"/>
      <point x="498.625" y="620.375" type="curve"/>
      <point x="524.3125" y="641.8125" type="line"/>
      <point x="530.5" y="647.25"/>
      <point x="528.4375" y="652.625"/>
      <point x="524.0" y="656.75" type="curve"/>
      <point x="473.375" y="709.125"/>
      <point x="415.625" y="742.3125"/>
      <point x="334.625" y="750.0" type="curve"/>
      <point x="329.25" y="750.1875"/>
      <point x="327.0625" y="753.125"/>
      <point x="327.0625" y="757.25" type="curve"/>
      <point x="327.0625" y="810.0" type="line" smooth="yes"/>
      <point x="327.0625" y="817.625"/>
      <point x="324.6875" y="820.75"/>
      <point x="318.1875" y="820.75" type="curve"/>
      <point x="290.375" y="820.75" type="line" smooth="yes"/>
      <point x="286.1875" y="820.75"/>
      <point x="283.8125" y="817.625"/>
      <point x="283.8125" y="813.1875" type="curve"/>
      <point x="283.8125" y="758.75" type="line" smooth="yes"/>
      <point x="283.8125" y="754.25"/>
      <point x="280.0625" y="751.0"/>
      <point x="275.75" y="750.875" type="curve"/>
      <point x="152.3125" y="740.5"/>
      <point x="65.1875" y="664.9375"/>
      <point x="65.1875" y="556.25" type="curve"/>
      <point x="65.1875" y="460.625"/>
      <point x="115.6875" y="417.125"/>
      <point x="262.4375" y="353.6875" type="curve"/>
      <point x="276.25" y="346.9375"/>
      <point x="284.75" y="339.25"/>
      <point x="284.75" y="327.3125" type="curve"/>
      <point x="284.6875" y="46.8125" type="line" smooth="yes"/>
      <point x="284.6875" y="41.4375"/>
      <point x="282.5" y="39.4375"/>
      <point x="277.0" y="39.5625" type="curve"/>
      <point x="182.0625" y="40.3125"/>
      <point x="129.6875" y="75.6875"/>
      <point x="79.8125" y="141.375" type="curve"/>
      <point x="76.25" y="145.8125"/>
      <point x="68.125" y="145.875"/>
      <point x="62.625" y="142.125" type="curve"/>
      <point x="42.8125" y="127.3125" type="line" smooth="yes"/>
      <point x="37.4375" y="123.75"/>
      <point x="36.8125" y="118.25"/>
      <point x="41.8125" y="110.8125" type="curve"/>
      <point x="93.625" y="32.0625"/>
      <point x="161.5" y="-9.0"/>
      <point x="278.75" y="-9.4375" type="curve"/>
      <point x="283.375" y="-9.4375"/>
      <point x="284.5625" y="-10.625"/>
      <point x="284.5625" y="-16.25" type="curve"/>
      <point x="284.5625" y="-85.4375" type="line" smooth="yes"/>
      <point x="284.5625" y="-89.3125"/>
      <point x="286.875" y="-91.75"/>
      <point x="292.8125" y="-91.75" type="curve"/>
      <point x="319.5" y="-91.75" type="line" smooth="yes"/>
      <point x="325.5625" y="-91.75"/>
      <point x="328.0" y="-89.3125"/>
      <point x="328.0" y="-82.4375" type="curve"/>
      <point x="328.0" y="-16.375" type="line" smooth="yes"/>
      <point x="328.0" y="-11.625"/>
      <point x="330.0" y="-9.5625"/>
      <point x="336.8125" y="-9.4375" type="curve"/>
      <point x="458.1875" y="-8.3125"/>
      <point x="541.5625" y="67.75"/>
    </contour>
    <contour>
      <point x="283.8125" y="693.8125" type="curve"/>
      <point x="283.8125" y="424.0" type="line"/>
      <point x="283.8125" y="410.75"/>
      <point x="275.0" y="407.5625"/>
      <point x="263.8125" y="412.375" type="curve"/>
      <point x="153.5" y="461.5"/>
      <point x="121.25" y="501.25"/>
      <point x="121.25" y="556.8125" type="curve"/>
      <point x="121.25" y="635.25"/>
      <point x="182.4375" y="693.0"/>
      <point x="273.5625" y="701.25" type="curve"/>
      <point x="279.8125" y="702.3125"/>
      <point x="283.8125" y="699.1875"/>
    </contour>
    <contour>
      <point x="327.9375" y="45.5625" type="curve"/>
      <point x="327.9375" y="45.5625" type="line"/>
      <point x="327.9375" y="315.1875" type="line" smooth="yes"/>
      <point x="327.9375" y="326.1875"/>
      <point x="334.6875" y="327.1875"/>
      <point x="344.5625" y="323.375" type="curve"/>
      <point x="444.625" y="281.625"/>
      <point x="485.375" y="240.5625"/>
      <point x="485.375" y="170.9375" type="curve"/>
      <point x="485.375" y="96.0"/>
      <point x="426.5625" y="40.125"/>
      <point x="335.4375" y="39.5" type="curve"/>
      <point x="330.1875" y="39.375"/>
      <point x="327.9375" y="41.375"/>
    </contour>
  </outline>
</glyph>
<glyph name="ampersand" format="2">
  <advance width="748.625"/>
  <unicode hex="0026"/>
  <outline>
    <contour>
      <point x="319.375" y="753.0" type="curve"/>
      <point x="319.375" y="753.0" type="line"/>
      <point x="205.5625" y="753.0"/>
      <point x="120.375" y="673.1875"/>
      <point x="120.375" y="568.125" type="curve"/>
      <point x="120.375" y="514.625"/>
      <point x="142.4375" y="468.1875"/>
      <point x="187.9375" y="420.5625" type="curve"/>
      <point x="200.875" y="406.5625"/>
      <point x="199.875" y="403.5"/>
      <point x="186.875" y="395.5625" type="curve"/>
      <point x="79.8125" y="330.4375"/>
      <point x="39.9375" y="266.5"/>
      <point x="39.9375" y="187.5" type="curve"/>
      <point x="39.9375" y="71.6875"/>
      <point x="121.6875" y="-5.0"/>
      <point x="251.125" y="-5.0" type="curve"/>
      <point x="333.3125" y="-5.0"/>
      <point x="407.3125" y="27.25"/>
      <point x="469.6875" y="84.625" type="curve"/>
      <point x="475.1875" y="89.875"/>
      <point x="479.25" y="89.875"/>
      <point x="484.75" y="85.625" type="curve"/>
      <point x="535.75" y="43.4375"/>
      <point x="640.6875" y="0.0"/>
      <point x="710.9375" y="0.0" type="curve"/>
      <point x="724.0625" y="0.0"/>
      <point x="727.4375" y="3.5"/>
      <point x="727.4375" y="14.9375" type="curve"/>
      <point x="727.4375" y="36.3125" type="line" smooth="yes"/>
      <point x="727.4375" y="43.8125"/>
      <point x="724.1875" y="47.0"/>
      <point x="714.75" y="47.0625" type="curve"/>
      <point x="649.375" y="47.25"/>
      <point x="566.75" y="80.5625"/>
      <point x="527.625" y="119.0625" type="curve"/>
      <point x="521.25" y="125.125"/>
      <point x="520.3125" y="129.0"/>
      <point x="525.625" y="134.5" type="curve"/>
      <point x="593.1875" y="203.0625"/>
      <point x="667.5625" y="307.25"/>
      <point x="686.75" y="369.1875" type="curve"/>
      <point x="688.0" y="373.75"/>
      <point x="684.6875" y="378.5"/>
      <point x="680.0625" y="380.625" type="curve"/>
      <point x="657.8125" y="389.1875" type="line" smooth="yes"/>
      <point x="652.3125" y="391.3125"/>
      <point x="646.125" y="390.1875"/>
      <point x="643.875" y="383.8125" type="curve"/>
      <point x="627.0625" y="334.75"/>
      <point x="550.1875" y="221.6875"/>
      <point x="495.375" y="171.125" type="curve"/>
      <point x="486.375" y="162.875"/>
      <point x="486.0" y="162.875"/>
      <point x="479.8125" y="170.0" type="curve"/>
      <point x="299.0" y="384.5625" type="line" smooth="yes"/>
      <point x="291.9375" y="393.5"/>
      <point x="292.0" y="396.5625"/>
      <point x="302.0" y="400.625" type="curve"/>
      <point x="438.9375" y="460.1875"/>
      <point x="490.5" y="531.75"/>
      <point x="490.5" y="606.8125" type="curve"/>
      <point x="490.5" y="699.125"/>
      <point x="414.75" y="753.0"/>
    </contour>
    <contour>
      <point x="320.0" y="709.25" type="curve"/>
      <point x="320.0" y="709.25" type="line"/>
      <point x="383.4375" y="709.25"/>
      <point x="436.6875" y="676.8125"/>
      <point x="436.6875" y="608.0" type="curve"/>
      <point x="436.6875" y="542.25"/>
      <point x="389.5" y="490.875"/>
      <point x="264.9375" y="431.8125" type="curve"/>
      <point x="258.0" y="428.8125"/>
      <point x="250.875" y="429.625"/>
      <point x="247.6875" y="433.75" type="curve"/>
      <point x="223.8125" y="460.0" type="line" smooth="yes"/>
      <point x="189.4375" y="498.1875"/>
      <point x="176.6875" y="530.1875"/>
      <point x="176.6875" y="568.375" type="curve"/>
      <point x="176.6875" y="643.0"/>
      <point x="228.6875" y="709.25"/>
    </contour>
    <contour>
      <point x="250.4375" y="356.9375" type="curve"/>
      <point x="250.4375" y="356.9375" type="line"/>
      <point x="438.375" y="135.75" type="line" smooth="yes"/>
      <point x="444.625" y="127.5"/>
      <point x="444.3125" y="120.5625"/>
      <point x="435.375" y="112.625" type="curve"/>
      <point x="389.125" y="70.375"/>
      <point x="323.0625" y="39.6875"/>
      <point x="257.6875" y="39.6875" type="curve"/>
      <point x="164.625" y="39.6875"/>
      <point x="95.5625" y="98.4375"/>
      <point x="95.5625" y="185.375" type="curve"/>
      <point x="95.5625" y="258.4375"/>
      <point x="143.6875" y="324.0625"/>
      <point x="222.5" y="361.875" type="curve"/>
      <point x="235.25" y="367.875"/>
      <point x="242.25" y="367.0625"/>
    </contour>
  </outline>
</glyph>
<glyph name="quotesingle" format="2">
  <advance width="236.125"/>
  <unicode hex="0027"/>
  <outline>
    <contour>
      <point x="137.875" y="551.5625" type="curve"/>
      <point x="159.125" y="735.125" type="line"/>
      <point x="159.25" y="739.6875"/>
      <point x="156.875" y="742.0"/>
      <point x="152.375" y="742.0" type="curve"/>
      <point x="84.25" y="742.0" type="line" smooth="yes"/>
      <point x="80.75" y="742.0"/>
      <point x="77.3125" y="739.6875"/>
      <point x="77.4375" y="735.0" type="curve"/>
      <point x="97.75" y="549.4375" type="line" smooth="yes"/>
      <point x="98.8125" y="543.6875"/>
      <point x="100.0625" y="541.3125"/>
      <point x="106.9375" y="541.3125" type="curve"/>
      <point x="126.4375" y="541.3125" type="line" smooth="yes"/>
      <point x="134.5" y="541.3125"/>
      <point x="136.75" y="544.625"/>
    </contour>
  </outline>
</glyph>
<glyph name="parenleft" format="2">
  <advance width="272.0"/>
  <unicode hex="0028"/>
  <outline>
    <contour>
      <point x="245.9375" y="742.0" type="curve"/>
      <point x="245.9375" y="742.0" type="line"/>
      <point x="232.8125" y="742.0" type="line" smooth="yes"/>
      <point x="226.375" y="742.0"/>
      <point x="223.0625" y="739.8125"/>
      <point x="219.8125" y="735.5" type="curve"/>
      <point x="136.8125" y="610.5"/>
      <point x="77.1875" y="451.0"/>
      <point x="77.1875" y="285.0" type="curve"/>
      <point x="77.1875" y="114.0"/>
      <point x="127.625" y="-18.5"/>
      <point x="209.625" y="-159.5" type="curve"/>
      <point x="212.8125" y="-163.8125"/>
      <point x="215.0" y="-165.0"/>
      <point x="219.375" y="-165.0" type="curve"/>
      <point x="235.5625" y="-165.0" type="line" smooth="yes"/>
      <point x="241.9375" y="-165.0"/>
      <point x="243.0625" y="-160.6875"/>
      <point x="240.9375" y="-157.375" type="curve"/>
      <point x="170.9375" y="-7.375"/>
      <point x="133.875" y="133.0"/>
      <point x="133.875" y="284.0" type="curve"/>
      <point x="133.875" y="443.0"/>
      <point x="185.25" y="603.5"/>
      <point x="251.25" y="734.5" type="curve"/>
      <point x="253.375" y="737.75"/>
      <point x="252.3125" y="742.0"/>
    </contour>
  </outline>
</glyph>
<glyph name="asterisk" format="2">
  <advance width="339.125"/>
  <unicode hex="002A"/>
  <outline>
    <contour>
      <point x="177.0" y="562.5625" type="curve"/>
      <point x="248.125" y="449.8125" type="line"/>
      <point x="249.375" y="447.4375"/>
      <point x="253.9375" y="446.3125"/>
      <point x="258.5625" y="449.75" type="curve"/>
      <point x="281.9375" y="466.375" type="line" smooth="yes"/>
      <point x="286.625" y="469.8125"/>
      <point x="287.625" y="473.375"/>
      <point x="284.375" y="477.625" type="curve"/>
      <point x="205.625" y="577.0" type="line" smooth="yes"/>
      <point x="203.4375" y="580.125"/>
      <point x="204.375" y="582.4375"/>
      <point x="207.625" y="583.5" type="curve"/>
      <point x="317.0" y="621.3125" type="line" smooth="yes"/>
      <point x="320.5625" y="622.4375"/>
      <point x="320.875" y="624.875"/>
      <point x="319.6875" y="630.3125" type="curve"/>
      <point x="311.6875" y="654.5625" type="line" smooth="yes"/>
      <point x="310.5" y="658.25"/>
      <point x="309.0" y="659.4375"/>
      <point x="304.5" y="657.25" type="curve"/>
      <point x="196.125" y="611.4375" type="line" smooth="yes"/>
      <point x="193.75" y="610.3125"/>
      <point x="191.6875" y="611.4375"/>
      <point x="191.75" y="615.6875" type="curve"/>
      <point x="197.3125" y="736.3125" type="line" smooth="yes"/>
      <point x="197.375" y="739.5625"/>
      <point x="196.125" y="742.0"/>
      <point x="191.6875" y="742.0" type="curve"/>
      <point x="157.9375" y="742.0" type="line" smooth="yes"/>
      <point x="152.5625" y="742.0"/>
      <point x="150.375" y="738.625"/>
      <point x="150.4375" y="736.3125" type="curve"/>
      <point x="157.75" y="615.75" type="line" smooth="yes"/>
      <point x="157.8125" y="611.5"/>
      <point x="155.5625" y="610.375"/>
      <point x="152.25" y="611.5625" type="curve"/>
      <point x="46.875" y="650.8125" type="line" smooth="yes"/>
      <point x="42.4375" y="653.0"/>
      <point x="40.1875" y="651.75"/>
      <point x="39.0" y="648.3125" type="curve"/>
      <point x="29.8125" y="623.0625" type="line" smooth="yes"/>
      <point x="28.5625" y="618.5"/>
      <point x="28.8125" y="616.0"/>
      <point x="32.25" y="614.875" type="curve"/>
      <point x="142.75" y="582.625" type="line" smooth="yes"/>
      <point x="147.0625" y="581.5625"/>
      <point x="147.125" y="579.25"/>
      <point x="145.9375" y="577.0625" type="curve"/>
      <point x="64.125" y="470.875" type="line" smooth="yes"/>
      <point x="60.8125" y="466.5"/>
      <point x="60.875" y="464.25"/>
      <point x="64.375" y="461.875" type="curve"/>
      <point x="89.25" y="444.8125" type="line" smooth="yes"/>
      <point x="92.75" y="442.4375"/>
      <point x="97.25" y="442.5625"/>
      <point x="98.5" y="444.9375" type="curve"/>
      <point x="173.4375" y="562.5625" type="line" smooth="yes"/>
      <point x="174.5625" y="563.8125"/>
      <point x="175.875" y="563.8125"/>
    </contour>
  </outline>
</glyph>
<glyph name="plus" format="2">
  <advance width="544.6875"/>
  <unicode hex="002B"/>
  <outline>
    <contour>
      <point x="476.6875" y="360.0625" type="curve"/>
      <point x="476.6875" y="388.375" type="line"/>
      <point x="476.6875" y="392.875"/>
      <point x="473.4375" y="395.25"/>
      <point x="469.0" y="395.25" type="curve"/>
      <point x="74.0" y="394.3125" type="line" smooth="yes"/>
      <point x="70.4375" y="394.3125"/>
      <point x="68.125" y="391.9375"/>
      <point x="68.125" y="386.3125" type="curve"/>
      <point x="68.125" y="358.0" type="line" smooth="yes"/>
      <point x="68.125" y="352.25"/>
      <point x="70.375" y="349.875"/>
      <point x="77.25" y="349.875" type="curve"/>
      <point x="465.25" y="350.8125" type="line" smooth="yes"/>
      <point x="473.25" y="350.8125"/>
      <point x="476.6875" y="353.1875"/>
    </contour>
    <contour>
      <point x="259.9375" y="168.3125" type="curve"/>
      <point x="288.25" y="168.3125" type="line"/>
      <point x="292.75" y="168.3125"/>
      <point x="295.125" y="171.5625"/>
      <point x="295.125" y="176.0" type="curve"/>
      <point x="294.1875" y="571.0" type="line" smooth="yes"/>
      <point x="294.1875" y="574.5625"/>
      <point x="291.8125" y="576.875"/>
      <point x="286.1875" y="576.875" type="curve"/>
      <point x="257.875" y="576.875" type="line" smooth="yes"/>
      <point x="252.125" y="576.875"/>
      <point x="249.75" y="574.625"/>
      <point x="249.75" y="567.75" type="curve"/>
      <point x="250.6875" y="179.75" type="line" smooth="yes"/>
      <point x="250.6875" y="171.75"/>
      <point x="253.0625" y="168.3125"/>
    </contour>
  </outline>
</glyph>
<glyph name="comma" format="2">
  <advance width="192.75"/>
  <unicode hex="002C"/>
  <outline>
    <contour>
      <point x="50.375" y="-135.9375" type="curve"/>
      <point x="50.375" y="-135.9375" type="line"/>
      <point x="58.3125" y="-135.9375" type="line" smooth="yes"/>
      <point x="64.875" y="-135.9375"/>
      <point x="68.9375" y="-133.5625"/>
      <point x="71.5" y="-128.875" type="curve"/>
      <point x="132.0625" y="4.8125" type="line" smooth="yes"/>
      <point x="133.1875" y="7.9375"/>
      <point x="134.1875" y="11.875"/>
      <point x="134.1875" y="17.0" type="curve"/>
      <point x="134.1875" y="79.5625" type="line" smooth="yes"/>
      <point x="134.1875" y="84.125"/>
      <point x="131.9375" y="86.4375"/>
      <point x="127.4375" y="86.4375" type="curve"/>
      <point x="69.75" y="86.4375" type="line" smooth="yes"/>
      <point x="65.3125" y="86.4375"/>
      <point x="62.9375" y="84.125"/>
      <point x="62.9375" y="79.4375" type="curve"/>
      <point x="62.9375" y="8.125" type="line" smooth="yes"/>
      <point x="62.9375" y="3.3125"/>
      <point x="65.25" y="0.0"/>
      <point x="72.125" y="0.0" type="curve"/>
      <point x="81.9375" y="0.0" type="line" smooth="yes"/>
      <point x="91.375" y="0.0"/>
      <point x="93.375" y="-3.5625"/>
      <point x="90.0" y="-11.375" type="curve"/>
      <point x="46.5625" y="-125.0" type="line" smooth="yes"/>
      <point x="43.4375" y="-132.3125"/>
      <point x="45.8125" y="-135.9375"/>
    </contour>
  </outline>
</glyph>
<glyph name="hyphen" format="2">
  <advance width="380.9375"/>
  <unicode hex="002D"/>
  <outline>
    <contour>
      <point x="312.75" y="251.9375" type="curve"/>
      <point x="312.75" y="282.0625" type="line"/>
      <point x="312.75" y="286.5625"/>
      <point x="309.5" y="288.9375"/>
      <point x="305.0625" y="288.9375" type="curve"/>
      <point x="74.0625" y="288.0" type="line" smooth="yes"/>
      <point x="70.5" y="288.0"/>
      <point x="68.1875" y="285.625"/>
      <point x="68.1875" y="280.0" type="curve"/>
      <point x="68.1875" y="249.875" type="line" smooth="yes"/>
      <point x="68.1875" y="244.125"/>
      <point x="70.4375" y="241.75"/>
      <point x="77.3125" y="241.75" type="curve"/>
      <point x="301.3125" y="242.6875" type="line" smooth="yes"/>
      <point x="309.3125" y="242.6875"/>
      <point x="312.75" y="245.0625"/>
    </contour>
  </outline>
</glyph>
<glyph name="period" format="2">
  <advance width="188.0625"/>
  <unicode hex="002E"/>
  <outline>
    <contour>
      <point x="129.5" y="12.125" type="curve"/>
      <point x="129.5" y="77.875" type="line"/>
      <point x="129.5" y="84.3125"/>
      <point x="127.25" y="86.625"/>
      <point x="121.8125" y="86.625" type="curve"/>
      <point x="66.0" y="86.625" type="line" smooth="yes"/>
      <point x="61.5625" y="86.625"/>
      <point x="58.25" y="84.3125"/>
      <point x="58.25" y="76.8125" type="curve"/>
      <point x="58.25" y="10.9375" type="line" smooth="yes"/>
      <point x="58.25" y="3.3125"/>
      <point x="60.5625" y="0.0"/>
      <point x="69.3125" y="0.0" type="curve"/>
      <point x="115.25" y="0.0" type="line" smooth="yes"/>
      <point x="126.125" y="0.0"/>
      <point x="129.5" y="3.3125"/>
    </contour>
  </outline>
</glyph>
<glyph name="slash" format="2">
  <advance width="331.25"/>
  <unicode hex="002F"/>
  <outline>
    <contour>
      <point x="21.6875" y="-56.25" type="curve"/>
      <point x="21.6875" y="-56.25" type="line"/>
      <point x="54.0625" y="-56.25" type="line" smooth="yes"/>
      <point x="59.8125" y="-56.25"/>
      <point x="64.25" y="-54.0"/>
      <point x="66.5625" y="-47.125" type="curve"/>
      <point x="314.125" y="730.5625" type="line" smooth="yes"/>
      <point x="316.5" y="738.5625"/>
      <point x="315.25" y="742.0"/>
      <point x="308.375" y="742.0" type="curve"/>
      <point x="276.0" y="742.0" type="line" smooth="yes"/>
      <point x="271.5" y="742.0"/>
      <point x="268.0625" y="739.6875"/>
      <point x="266.875" y="735.25" type="curve"/>
      <point x="16.0" y="-50.375" type="line" smooth="yes"/>
      <point x="14.8125" y="-53.9375"/>
      <point x="16.0625" y="-56.25"/>
    </contour>
  </outline>
</glyph>
<glyph name="zero" format="2">
  <advance width="677.9375"/>
  <unicode hex="0030"/>
  <outline>
    <contour>
      <point x="339.5" y="752.0625" type="curve"/>
      <point x="339.5" y="752.0625" type="line"/>
      <point x="191.5625" y="752.0625"/>
      <point x="76.0" y="624.6875"/>
      <point x="76.0" y="367.125" type="curve"/>
      <point x="76.0" y="113.375"/>
      <point x="189.5" y="-9.875"/>
      <point x="338.5625" y="-9.875" type="curve"/>
      <point x="487.5625" y="-9.875"/>
      <point x="601.9375" y="114.3125"/>
      <point x="601.9375" y="369.0" type="curve"/>
      <point x="601.9375" y="625.625"/>
      <point x="487.375" y="752.0625"/>
    </contour>
    <contour>
      <point x="340.375" y="39.25" type="curve"/>
      <point x="340.375" y="39.25" type="line"/>
      <point x="220.5" y="39.25"/>
      <point x="135.375" y="137.625"/>
      <point x="135.375" y="368.9375" type="curve"/>
      <point x="135.375" y="602.4375"/>
      <point x="220.5625" y="703.0625"/>
      <point x="339.4375" y="703.0625" type="curve"/>
      <point x="458.3125" y="703.0625"/>
      <point x="542.5625" y="603.4375"/>
      <point x="542.5625" y="368.9375" type="curve"/>
      <point x="542.5625" y="136.625"/>
      <point x="460.3125" y="39.25"/>
    </contour>
  </outline>
</glyph>
<glyph name="one" format="2">
  <advance width="444.1875"/>
  <unicode hex="0031"/>
  <outline>
    <contour>
      <point x="390.375" y="49.625" type="curve"/>
      <point x="390.375" y="49.625" type="line"/>
      <point x="268.5" y="49.625" type="line" smooth="yes"/>
      <point x="265.25" y="49.625"/>
      <point x="263.125" y="51.75"/>
      <point x="263.125" y="56.0" type="curve"/>
      <point x="263.125" y="732.25" type="line" smooth="yes"/>
      <point x="263.125" y="738.6875"/>
      <point x="259.875" y="742.0"/>
      <point x="254.5" y="742.0" type="curve"/>
      <point x="223.875" y="742.0" type="line" smooth="yes"/>
      <point x="215.1875" y="742.0"/>
      <point x="209.875" y="740.8125"/>
      <point x="200.125" y="735.5" type="curve"/>
      <point x="60.4375" y="666.125" type="line" smooth="yes"/>
      <point x="54.875" y="662.875"/>
      <point x="53.6875" y="662.5625"/>
      <point x="53.6875" y="655.875" type="curve"/>
      <point x="53.6875" y="628.125" type="line" smooth="yes"/>
      <point x="53.6875" y="621.25"/>
      <point x="57.0625" y="618.0"/>
      <point x="62.875" y="620.125" type="curve"/>
      <point x="199.125" y="673.75" type="line" smooth="yes"/>
      <point x="204.625" y="675.8125"/>
      <point x="205.8125" y="672.75"/>
      <point x="205.8125" y="667.3125" type="curve"/>
      <point x="205.8125" y="53.9375" type="line" smooth="yes"/>
      <point x="205.8125" y="50.75"/>
      <point x="202.625" y="49.625"/>
      <point x="199.4375" y="49.625" type="curve"/>
      <point x="61.6875" y="49.625" type="line" smooth="yes"/>
      <point x="57.0625" y="49.625"/>
      <point x="54.6875" y="47.4375"/>
      <point x="54.6875" y="42.8125" type="curve"/>
      <point x="54.6875" y="6.9375" type="line" smooth="yes"/>
      <point x="54.6875" y="3.3125"/>
      <point x="57.0" y="0.0"/>
      <point x="61.8125" y="0.0" type="curve"/>
      <point x="390.25" y="0.0" type="line" smooth="yes"/>
      <point x="396.0" y="0.0"/>
      <point x="398.375" y="4.375"/>
      <point x="398.375" y="7.0" type="curve"/>
      <point x="398.375" y="42.8125" type="line" smooth="yes"/>
      <point x="398.375" y="47.4375"/>
      <point x="395.9375" y="49.625"/>
    </contour>
  </outline>
</glyph>
<glyph name="two" format="2">
  <advance width="577.375"/>
  <unicode hex="0032"/>
  <outline>
    <contour>
      <point x="299.125" y="305.5" type="curve"/>
      <point x="72.0625" y="72.75" type="line"/>
      <point x="58.25" y="59.5625"/>
      <point x="55.25" y="52.375"/>
      <point x="55.25" y="37.75" type="curve"/>
      <point x="55.25" y="12.8125" type="line" smooth="yes"/>
      <point x="55.25" y="3.125"/>
      <point x="58.5" y="0.0"/>
      <point x="68.1875" y="0.0" type="curve"/>
      <point x="504.375" y="0.0" type="line" smooth="yes"/>
      <point x="511.0625" y="0.0"/>
      <point x="513.4375" y="3.4375"/>
      <point x="513.4375" y="8.875" type="curve"/>
      <point x="513.4375" y="42.25" type="line" smooth="yes"/>
      <point x="513.4375" y="48.75"/>
      <point x="511.0" y="50.9375"/>
      <point x="503.5625" y="50.9375" type="curve"/>
      <point x="132.3125" y="50.9375" type="line" smooth="yes"/>
      <point x="121.875" y="50.9375"/>
      <point x="119.1875" y="56.0"/>
      <point x="126.3125" y="62.9375" type="curve"/>
      <point x="336.0" y="272.75" type="line" smooth="yes"/>
      <point x="458.375" y="395.9375"/>
      <point x="505.5" y="461.5"/>
      <point x="505.5" y="551.625" type="curve"/>
      <point x="505.5" y="692.5625"/>
      <point x="399.0625" y="752.0"/>
      <point x="290.1875" y="752.0" type="curve"/>
      <point x="207.75" y="752.0"/>
      <point x="115.6875" y="717.5625"/>
      <point x="59.5" y="638.75" type="curve"/>
      <point x="54.25" y="631.3125"/>
      <point x="53.4375" y="628.375"/>
      <point x="61.9375" y="621.3125" type="curve"/>
      <point x="83.4375" y="605.4375" type="line" smooth="yes"/>
      <point x="91.0" y="599.3125"/>
      <point x="97.3125" y="602.3125"/>
      <point x="100.4375" y="606.625" type="curve"/>
      <point x="146.3125" y="675.4375"/>
      <point x="223.4375" y="702.5625"/>
      <point x="282.875" y="702.5625" type="curve"/>
      <point x="362.25" y="702.5625"/>
      <point x="448.625" y="654.5625"/>
      <point x="448.625" y="557.125" type="curve"/>
      <point x="448.625" y="476.3125"/>
      <point x="403.375" y="409.1875"/>
    </contour>
  </outline>
</glyph>
<glyph name="three" format="2">
  <advance width="627.8125"/>
  <unicode hex="0033"/>
  <outline>
    <contour>
      <point x="82.375" y="643.3125" type="curve"/>
      <point x="82.375" y="643.3125" type="line"/>
      <point x="99.6875" y="624.5625" type="line" smooth="yes"/>
      <point x="105.9375" y="618.375"/>
      <point x="109.9375" y="618.375"/>
      <point x="116.1875" y="624.625" type="curve"/>
      <point x="166.5" y="673.8125"/>
      <point x="229.9375" y="703.125"/>
      <point x="301.9375" y="703.125" type="curve"/>
      <point x="406.0625" y="703.125"/>
      <point x="478.625" y="643.3125"/>
      <point x="478.625" y="566.1875" type="curve"/>
      <point x="478.625" y="478.125"/>
      <point x="387.125" y="413.375"/>
      <point x="271.625" y="413.125" type="curve"/>
      <point x="199.0" y="412.875" type="line" smooth="yes"/>
      <point x="193.5" y="412.75"/>
      <point x="189.25" y="409.625"/>
      <point x="189.25" y="405.25" type="curve"/>
      <point x="189.25" y="373.3125" type="line" smooth="yes"/>
      <point x="189.25" y="367.875"/>
      <point x="192.5" y="365.6875"/>
      <point x="199.0" y="365.6875" type="curve"/>
      <point x="288.625" y="365.5625" type="line" smooth="yes"/>
      <point x="393.875" y="365.4375"/>
      <point x="501.5" y="309.0"/>
      <point x="501.5" y="197.3125" type="curve"/>
      <point x="501.5" y="104.625"/>
      <point x="425.125" y="39.125"/>
      <point x="291.875" y="39.125" type="curve"/>
      <point x="213.25" y="39.125"/>
      <point x="150.0" y="60.375"/>
      <point x="89.9375" y="122.375" type="curve"/>
      <point x="86.75" y="125.625"/>
      <point x="84.375" y="128.4375"/>
      <point x="77.9375" y="122.3125" type="curve"/>
      <point x="51.9375" y="99.1875" type="line" smooth="yes"/>
      <point x="45.4375" y="93.0625"/>
      <point x="46.1875" y="92.125"/>
      <point x="50.5" y="87.5" type="curve"/>
      <point x="119.3125" y="17.9375"/>
      <point x="191.5625" y="-10.0"/>
      <point x="286.4375" y="-10.0" type="curve"/>
      <point x="467.3125" y="-10.0"/>
      <point x="558.5625" y="84.8125"/>
      <point x="558.5625" y="200.375" type="curve"/>
      <point x="558.5625" y="300.5625"/>
      <point x="486.875" y="367.375"/>
      <point x="404.75" y="388.875" type="curve"/>
      <point x="389.75" y="392.9375"/>
      <point x="389.8125" y="395.5"/>
      <point x="404.8125" y="400.5" type="curve"/>
      <point x="485.4375" y="429.125"/>
      <point x="535.5625" y="490.4375"/>
      <point x="535.5625" y="567.125" type="curve"/>
      <point x="535.5625" y="671.125"/>
      <point x="444.25" y="752.0"/>
      <point x="300.3125" y="752.0" type="curve"/>
      <point x="216.25" y="752.0"/>
      <point x="148.1875" y="723.875"/>
      <point x="82.375" y="656.1875" type="curve"/>
      <point x="79.125" y="652.6875"/>
      <point x="78.1875" y="647.5625"/>
    </contour>
  </outline>
</glyph>
<glyph name="four" format="2">
  <advance width="628.8125"/>
  <unicode hex="0034"/>
  <outline>
    <contour>
      <point x="397.6875" y="735.75" type="curve"/>
      <point x="397.6875" y="735.75" type="line"/>
      <point x="61.0" y="281.25" type="line" smooth="yes"/>
      <point x="53.0" y="270.0"/>
      <point x="50.5" y="263.4375"/>
      <point x="50.5" y="256.875" type="curve"/>
      <point x="50.5" y="221.3125" type="line" smooth="yes"/>
      <point x="50.5" y="213.0"/>
      <point x="54.75" y="210.5625"/>
      <point x="62.375" y="210.5625" type="curve"/>
      <point x="397.0625" y="210.5625" type="line" smooth="yes"/>
      <point x="403.1875" y="210.5625"/>
      <point x="405.4375" y="208.5"/>
      <point x="405.4375" y="204.3125" type="curve"/>
      <point x="405.375" y="10.0" type="line" smooth="yes"/>
      <point x="405.375" y="4.25"/>
      <point x="408.625" y="0.0"/>
      <point x="414.5625" y="0.0" type="curve"/>
      <point x="451.5" y="0.0" type="line" smooth="yes"/>
      <point x="459.5" y="0.0"/>
      <point x="462.9375" y="3.3125"/>
      <point x="462.9375" y="10.25" type="curve"/>
      <point x="462.9375" y="201.3125" type="line" smooth="yes"/>
      <point x="462.9375" y="208.5"/>
      <point x="466.0625" y="210.5625"/>
      <point x="471.1875" y="210.5625" type="curve"/>
      <point x="570.3125" y="210.5625" type="line" smooth="yes"/>
      <point x="577.9375" y="210.5625"/>
      <point x="581.1875" y="214.875"/>
      <point x="581.1875" y="221.3125" type="curve"/>
      <point x="581.1875" y="251.625" type="line" smooth="yes"/>
      <point x="581.1875" y="257.1875"/>
      <point x="576.9375" y="259.375"/>
      <point x="570.4375" y="259.375" type="curve"/>
      <point x="470.1875" y="259.375" type="line" smooth="yes"/>
      <point x="465.0625" y="259.375"/>
      <point x="462.9375" y="262.5"/>
      <point x="462.9375" y="267.625" type="curve"/>
      <point x="462.9375" y="732.25" type="line" smooth="yes"/>
      <point x="462.9375" y="738.6875"/>
      <point x="459.6875" y="742.0"/>
      <point x="453.3125" y="742.0" type="curve"/>
      <point x="414.0" y="742.0" type="line" smooth="yes"/>
      <point x="405.75" y="742.0"/>
      <point x="400.625" y="739.875"/>
    </contour>
    <contour>
      <point x="392.875" y="259.375" type="curve"/>
      <point x="119.125" y="259.375" type="line"/>
      <point x="108.9375" y="259.375"/>
      <point x="106.125" y="264.375"/>
      <point x="112.125" y="272.375" type="curve"/>
      <point x="387.875" y="645.25" type="line" smooth="yes"/>
      <point x="397.0" y="657.4375"/>
      <point x="401.875" y="655.5625"/>
      <point x="401.875" y="641.25" type="curve"/>
      <point x="401.875" y="266.375" type="line" smooth="yes"/>
      <point x="401.875" y="262.375"/>
      <point x="397.875" y="259.375"/>
    </contour>
  </outline>
</glyph>
<glyph name="five" format="2">
  <advance width="644.0625"/>
  <unicode hex="0035"/>
  <outline>
    <contour>
      <point x="535.5" y="742.0" type="curve"/>
      <point x="136.25" y="742.0" type="line"/>
      <point x="120.9375" y="742.0"/>
      <point x="121.375" y="741.5625"/>
      <point x="121.25" y="732.625" type="curve"/>
      <point x="94.125" y="385.1875" type="line" smooth="yes"/>
      <point x="93.0625" y="369.9375"/>
      <point x="88.375" y="374.875"/>
      <point x="99.625" y="367.8125" type="curve"/>
      <point x="127.6875" y="350.6875" type="line" smooth="yes"/>
      <point x="135.1875" y="346.4375"/>
      <point x="132.4375" y="343.625"/>
      <point x="142.6875" y="349.625" type="curve"/>
      <point x="190.5" y="379.9375"/>
      <point x="252.9375" y="417.875"/>
      <point x="335.5" y="417.875" type="curve"/>
      <point x="434.0625" y="417.875"/>
      <point x="522.4375" y="365.375"/>
      <point x="522.4375" y="241.5625" type="curve"/>
      <point x="522.4375" y="121.3125"/>
      <point x="438.375" y="37.25"/>
      <point x="294.0625" y="37.25" type="curve"/>
      <point x="205.125" y="37.25"/>
      <point x="157.875" y="69.6875"/>
      <point x="99.125" y="121.375" type="curve"/>
      <point x="95.75" y="124.8125"/>
      <point x="91.3125" y="126.875"/>
      <point x="87.6875" y="123.5" type="curve"/>
      <point x="63.125" y="100.1875" type="line" smooth="yes"/>
      <point x="56.3125" y="93.8125"/>
      <point x="56.75" y="91.9375"/>
      <point x="62.0625" y="86.3125" type="curve"/>
      <point x="127.125" y="20.625"/>
      <point x="213.3125" y="-10.0"/>
      <point x="303.0625" y="-10.0" type="curve"/>
      <point x="460.1875" y="-10.0"/>
      <point x="579.5" y="83.0"/>
      <point x="579.5" y="242.9375" type="curve"/>
      <point x="579.5" y="401.5625"/>
      <point x="461.625" y="465.25"/>
      <point x="338.125" y="465.25" type="curve"/>
      <point x="258.4375" y="465.25"/>
      <point x="209.6875" y="437.625"/>
      <point x="161.375" y="410.5" type="curve"/>
      <point x="155.125" y="406.5625"/>
      <point x="149.9375" y="412.5"/>
      <point x="151.0" y="420.75" type="curve"/>
      <point x="171.1875" y="682.75" type="line" smooth="yes"/>
      <point x="171.25" y="689.1875"/>
      <point x="175.4375" y="691.375"/>
      <point x="180.9375" y="691.375" type="curve"/>
      <point x="533.375" y="691.375" type="line" smooth="yes"/>
      <point x="543.9375" y="691.375"/>
      <point x="541.625" y="691.75"/>
      <point x="542.625" y="699.375" type="curve"/>
      <point x="545.8125" y="731.75" type="line" smooth="yes"/>
      <point x="546.8125" y="739.8125"/>
      <point x="544.8125" y="742.0"/>
    </contour>
  </outline>
</glyph>
<glyph name="six" format="2">
  <advance width="649.4375"/>
  <unicode hex="0036"/>
  <outline>
    <contour>
      <point x="368.3125" y="751.875" type="curve"/>
      <point x="368.3125" y="751.875" type="line"/>
      <point x="183.25" y="751.875"/>
      <point x="76.0" y="604.75"/>
      <point x="76.0" y="362.3125" type="curve"/>
      <point x="76.0" y="123.8125"/>
      <point x="177.75" y="-9.875"/>
      <point x="344.3125" y="-9.875" type="curve"/>
      <point x="479.0" y="-9.875"/>
      <point x="587.75" y="82.0"/>
      <point x="587.75" y="221.25" type="curve"/>
      <point x="587.75" y="343.75"/>
      <point x="504.9375" y="437.5625"/>
      <point x="350.875" y="437.5625" type="curve"/>
      <point x="264.875" y="437.5625"/>
      <point x="203.8125" y="407.75"/>
      <point x="148.8125" y="380.5" type="curve"/>
      <point x="134.375" y="372.5"/>
      <point x="133.1875" y="378.3125"/>
      <point x="133.1875" y="400.5" type="curve"/>
      <point x="133.1875" y="570.9375"/>
      <point x="202.6875" y="702.875"/>
      <point x="369.25" y="702.875" type="curve"/>
      <point x="428.4375" y="702.875"/>
      <point x="466.1875" y="681.5625"/>
      <point x="496.625" y="646.5" type="curve"/>
      <point x="500.5625" y="641.4375"/>
      <point x="505.625" y="638.875"/>
      <point x="510.1875" y="641.9375" type="curve"/>
      <point x="541.625" y="660.5" type="line" smooth="yes"/>
      <point x="548.125" y="664.5"/>
      <point x="545.3125" y="669.0"/>
      <point x="542.375" y="672.5" type="curve"/>
      <point x="503.1875" y="717.6875"/>
      <point x="451.875" y="751.875"/>
    </contour>
    <contour>
      <point x="351.375" y="389.1875" type="curve"/>
      <point x="351.375" y="389.1875" type="line"/>
      <point x="464.9375" y="389.1875"/>
      <point x="530.625" y="311.5"/>
      <point x="530.625" y="219.75" type="curve"/>
      <point x="530.625" y="118.75"/>
      <point x="452.0625" y="38.5"/>
      <point x="346.625" y="38.5" type="curve"/>
      <point x="199.5625" y="38.5"/>
      <point x="135.1875" y="190.5"/>
      <point x="135.1875" y="290.1875" type="curve"/>
      <point x="135.1875" y="316.625"/>
      <point x="140.0" y="325.3125"/>
      <point x="158.3125" y="337.875" type="curve"/>
      <point x="206.1875" y="367.6875"/>
      <point x="292.125" y="389.1875"/>
    </contour>
  </outline>
</glyph>
<glyph name="seven" format="2">
  <advance width="589.8125"/>
  <unicode hex="0037"/>
  <outline>
    <contour>
      <point x="531.5" y="742.0" type="curve"/>
      <point x="60.6875" y="742.0" type="line"/>
      <point x="53.0" y="742.0"/>
      <point x="50.4375" y="740.6875"/>
      <point x="49.4375" y="734.375" type="curve"/>
      <point x="45.75" y="699.5" type="line" smooth="yes"/>
      <point x="45.6875" y="693.875"/>
      <point x="47.0625" y="691.375"/>
      <point x="52.125" y="691.375" type="curve"/>
      <point x="464.0" y="691.375" type="line" smooth="yes"/>
      <point x="475.3125" y="691.375"/>
      <point x="475.25" y="686.1875"/>
      <point x="470.1875" y="679.0" type="curve"/>
      <point x="310.5" y="431.0"/>
      <point x="211.75" y="162.0"/>
      <point x="177.125" y="14.0" type="curve"/>
      <point x="174.9375" y="5.375"/>
      <point x="178.1875" y="0.0"/>
      <point x="186.8125" y="0.0" type="curve"/>
      <point x="227.1875" y="0.0" type="line" smooth="yes"/>
      <point x="234.75" y="0.0"/>
      <point x="238.0625" y="5.3125"/>
      <point x="239.0625" y="15.1875" type="curve"/>
      <point x="263.8125" y="151.125"/>
      <point x="391.4375" y="476.3125"/>
      <point x="530.625" y="681.125" type="curve"/>
      <point x="537.9375" y="691.625"/>
      <point x="540.0625" y="698.625"/>
      <point x="540.125" y="707.9375" type="curve"/>
      <point x="540.375" y="734.625" type="line" smooth="yes"/>
      <point x="540.4375" y="738.375"/>
      <point x="537.75" y="742.0"/>
    </contour>
  </outline>
</glyph>
<glyph name="eight" format="2">
  <advance width="661.125"/>
  <unicode hex="0038"/>
  <outline>
    <contour>
      <point x="331.5" y="752.0" type="curve"/>
      <point x="331.5" y="752.0" type="line"/>
      <point x="192.4375" y="752.0"/>
      <point x="90.1875" y="662.625"/>
      <point x="90.1875" y="544.0625" type="curve"/>
      <point x="90.1875" y="473.0625"/>
      <point x="124.3125" y="421.0"/>
      <point x="184.4375" y="390.5625" type="curve"/>
      <point x="201.9375" y="381.625"/>
      <point x="201.75" y="377.6875"/>
      <point x="184.3125" y="366.1875" type="curve"/>
      <point x="104.625" y="312.6875"/>
      <point x="70.1875" y="257.1875"/>
      <point x="70.1875" y="184.8125" type="curve"/>
      <point x="70.1875" y="62.625"/>
      <point x="168.125" y="-10.0"/>
      <point x="329.25" y="-10.0" type="curve"/>
      <point x="488.6875" y="-10.0"/>
      <point x="594.75" y="69.1875"/>
      <point x="594.75" y="189.9375" type="curve"/>
      <point x="594.75" y="273.875"/>
      <point x="545.3125" y="337.9375"/>
      <point x="457.4375" y="367.0625" type="curve"/>
      <point x="448.25" y="370.4375"/>
      <point x="448.4375" y="374.5625"/>
      <point x="458.4375" y="381.4375" type="curve"/>
      <point x="532.5" y="436.6875"/>
      <point x="561.75" y="483.5625"/>
      <point x="561.75" y="548.6875" type="curve"/>
      <point x="561.75" y="671.3125"/>
      <point x="470.375" y="752.0"/>
    </contour>
    <contour>
      <point x="331.75" y="703.5625" type="curve"/>
      <point x="331.75" y="703.5625" type="line"/>
      <point x="438.125" y="703.5625"/>
      <point x="506.875" y="643.25"/>
      <point x="506.875" y="552.875" type="curve"/>
      <point x="506.875" y="466.25"/>
      <point x="418.375" y="381.625"/>
      <point x="379.4375" y="389.9375" type="curve"/>
      <point x="265.75" y="414.75" type="line" smooth="yes"/>
      <point x="186.9375" y="431.375"/>
      <point x="146.5" y="475.8125"/>
      <point x="146.5" y="545.875" type="curve"/>
      <point x="146.5" y="635.5625"/>
      <point x="226.625" y="703.5625"/>
    </contour>
    <contour>
      <point x="331.0625" y="38.4375" type="curve"/>
      <point x="331.0625" y="38.4375" type="line"/>
      <point x="200.4375" y="38.4375"/>
      <point x="125.1875" y="93.875"/>
      <point x="125.1875" y="188.0" type="curve"/>
      <point x="125.1875" y="291.5"/>
      <point x="234.125" y="366.0"/>
      <point x="273.125" y="356.6875" type="curve"/>
      <point x="420.0625" y="323.25" type="line" smooth="yes"/>
      <point x="501.25" y="305.1875"/>
      <point x="537.5625" y="263.4375"/>
      <point x="537.5625" y="191.5" type="curve"/>
      <point x="537.5625" y="98.125"/>
      <point x="456.75" y="38.4375"/>
    </contour>
  </outline>
</glyph>
<glyph name="nine" format="2">
  <advance width="644.75"/>
  <unicode hex="0039"/>
  <outline>
    <contour>
      <point x="282.0625" y="-9.875" type="curve"/>
      <point x="282.0625" y="-9.875" type="line"/>
      <point x="463.375" y="-9.875"/>
      <point x="568.75" y="137.25"/>
      <point x="568.75" y="379.6875" type="curve"/>
      <point x="568.75" y="618.1875"/>
      <point x="468.875" y="751.875"/>
      <point x="306.0625" y="751.875" type="curve"/>
      <point x="171.375" y="751.875"/>
      <point x="62.625" y="660.0"/>
      <point x="62.625" y="520.75" type="curve"/>
      <point x="62.625" y="398.25"/>
      <point x="146.375" y="304.4375"/>
      <point x="297.625" y="304.4375" type="curve"/>
      <point x="383.625" y="304.4375"/>
      <point x="442.8125" y="334.25"/>
      <point x="495.9375" y="361.5" type="curve"/>
      <point x="510.375" y="369.5"/>
      <point x="511.5625" y="363.6875"/>
      <point x="511.5625" y="341.5" type="curve"/>
      <point x="511.5625" y="171.0625"/>
      <point x="443.0" y="39.125"/>
      <point x="282.0625" y="39.125" type="curve"/>
      <point x="216.3125" y="39.125"/>
      <point x="174.8125" y="60.4375"/>
      <point x="144.375" y="95.5" type="curve"/>
      <point x="140.4375" y="100.5625"/>
      <point x="135.375" y="103.125"/>
      <point x="130.8125" y="100.0625" type="curve"/>
      <point x="99.375" y="81.5" type="line" smooth="yes"/>
      <point x="92.875" y="77.5"/>
      <point x="95.6875" y="73.0"/>
      <point x="98.625" y="69.5" type="curve"/>
      <point x="139.6875" y="24.3125"/>
      <point x="193.8125" y="-9.875"/>
    </contour>
    <contour>
      <point x="296.1875" y="352.8125" type="curve"/>
      <point x="296.1875" y="352.8125" type="line"/>
      <point x="186.375" y="352.8125"/>
      <point x="119.75" y="430.5"/>
      <point x="119.75" y="523.1875" type="curve"/>
      <point x="119.75" y="624.1875"/>
      <point x="198.3125" y="703.5"/>
      <point x="303.75" y="703.5" type="curve"/>
      <point x="448.0" y="703.5"/>
      <point x="511.4375" y="555.25"/>
      <point x="511.4375" y="458.375" type="curve"/>
      <point x="511.4375" y="431.9375"/>
      <point x="506.625" y="423.25"/>
      <point x="488.3125" y="410.6875" type="curve"/>
      <point x="441.375" y="377.125"/>
      <point x="359.1875" y="352.8125"/>
    </contour>
  </outline>
</glyph>
<glyph name="colon" format="2">
  <advance width="188.0625"/>
  <unicode hex="003A"/>
  <outline>
    <contour>
      <point x="129.5" y="427.3125" type="curve"/>
      <point x="129.5" y="492.8125" type="line"/>
      <point x="129.5" y="499.25"/>
      <point x="127.25" y="501.5625"/>
      <point x="121.8125" y="501.5625" type="curve"/>
      <point x="66.0" y="501.5625" type="line" smooth="yes"/>
      <point x="61.5625" y="501.5625"/>
      <point x="58.25" y="499.25"/>
      <point x="58.25" y="491.75" type="curve"/>
      <point x="58.25" y="426.1875" type="line" smooth="yes"/>
      <point x="58.25" y="418.5625"/>
      <point x="60.5625" y="415.1875"/>
      <point x="69.3125" y="415.1875" type="curve"/>
      <point x="115.25" y="415.1875" type="line" smooth="yes"/>
      <point x="126.125" y="415.1875"/>
      <point x="129.5" y="418.5625"/>
    </contour>
    <contour>
      <point x="129.5" y="15.125" type="curve"/>
      <point x="129.5" y="80.625" type="line"/>
      <point x="129.5" y="87.0625"/>
      <point x="127.25" y="89.375"/>
      <point x="121.8125" y="89.375" type="curve"/>
      <point x="66.0" y="89.375" type="line" smooth="yes"/>
      <point x="61.5625" y="89.375"/>
      <point x="58.25" y="87.0625"/>
      <point x="58.25" y="79.5625" type="curve"/>
      <point x="58.25" y="14.0" type="line" smooth="yes"/>
      <point x="58.25" y="6.375"/>
      <point x="60.5625" y="3.0"/>
      <point x="69.3125" y="3.0" type="curve"/>
      <point x="115.25" y="3.0" type="line" smooth="yes"/>
      <point x="126.125" y="3.0"/>
      <point x="129.5" y="6.375"/>
    </contour>
  </outline>
</glyph>
<glyph name="semicolon" format="2">
  <advance width="214.3125"/>
  <unicode hex="003B"/>
  <outline>
    <contour>
      <point x="50.375" y="-136.1875" type="curve"/>
      <point x="50.375" y="-136.1875" type="line"/>
      <point x="58.3125" y="-136.1875" type="line" smooth="yes"/>
      <point x="64.875" y="-136.1875"/>
      <point x="68.9375" y="-133.8125"/>
      <point x="71.5" y="-129.125" type="curve"/>
      <point x="132.0625" y="4.8125" type="line" smooth="yes"/>
      <point x="133.1875" y="7.9375"/>
      <point x="134.1875" y="11.875"/>
      <point x="134.1875" y="17.0" type="curve"/>
      <point x="134.1875" y="79.5625" type="line" smooth="yes"/>
      <point x="134.1875" y="84.125"/>
      <point x="131.9375" y="86.4375"/>
      <point x="127.4375" y="86.4375" type="curve"/>
      <point x="69.75" y="86.4375" type="line" smooth="yes"/>
      <point x="65.3125" y="86.4375"/>
      <point x="62.9375" y="84.125"/>
      <point x="62.9375" y="79.4375" type="curve"/>
      <point x="62.9375" y="8.125" type="line" smooth="yes"/>
      <point x="62.9375" y="3.3125"/>
      <point x="65.25" y="0.0"/>
      <point x="72.125" y="0.0" type="curve"/>
      <point x="81.9375" y="0.0" type="line" smooth="yes"/>
      <point x="91.375" y="0.0"/>
      <point x="93.3125" y="-3.5625"/>
      <point x="90.0" y="-11.375" type="curve"/>
      <point x="46.5625" y="-125.25" type="line" smooth="yes"/>
      <point x="43.4375" y="-132.5625"/>
      <point x="45.8125" y="-136.1875"/>
    </contour>
    <contour>
      <point x="69.3125" y="414.75" type="curve"/>
      <point x="69.3125" y="414.75" type="line"/>
      <point x="115.25" y="414.75" type="line" smooth="yes"/>
      <point x="126.125" y="414.75"/>
      <point x="129.5" y="418.0625"/>
      <point x="129.5" y="426.875" type="curve"/>
      <point x="129.5" y="492.625" type="line" smooth="yes"/>
      <point x="129.5" y="499.0625"/>
      <point x="127.25" y="501.375"/>
      <point x="121.8125" y="501.375" type="curve"/>
      <point x="66.0" y="501.375" type="line" smooth="yes"/>
      <point x="61.5625" y="501.375"/>
      <point x="58.25" y="499.0625"/>
      <point x="58.25" y="491.5625" type="curve"/>
      <point x="58.25" y="425.6875" type="line" smooth="yes"/>
      <point x="58.25" y="418.0625"/>
      <point x="60.5625" y="414.75"/>
    </contour>
  </outline>
</glyph>
<glyph name="less" format="2">
  <advance width="527.75"/>
  <unicode hex="003C"/>
  <outline>
    <contour>
      <point x="457.75" y="189.9375" type="curve"/>
      <point x="457.75" y="215.625" type="line"/>
      <point x="457.75" y="223.6875"/>
      <point x="453.1875" y="227.125"/>
      <point x="442.75" y="231.625" type="curve"/>
      <point x="128.8125" y="357.375" type="line"/>
      <point x="443.6875" y="482.375" type="line" smooth="yes"/>
      <point x="454.0625" y="486.875"/>
      <point x="458.6875" y="490.5"/>
      <point x="458.6875" y="497.5" type="curve"/>
      <point x="458.6875" y="527.875" type="line" smooth="yes"/>
      <point x="458.6875" y="538.4375"/>
      <point x="452.9375" y="543.0625"/>
      <point x="440.4375" y="537.875" type="curve"/>
      <point x="67.6875" y="388.4375" type="line" smooth="yes"/>
      <point x="61.9375" y="386.1875"/>
      <point x="58.4375" y="383.6875"/>
      <point x="58.4375" y="376.8125" type="curve"/>
      <point x="58.4375" y="337.0625" type="line" smooth="yes"/>
      <point x="58.4375" y="331.25"/>
      <point x="62.0" y="327.8125"/>
      <point x="67.6875" y="325.5625" type="curve"/>
      <point x="440.375" y="178.0625" type="line" smooth="yes"/>
      <point x="450.125" y="173.8125"/>
      <point x="457.75" y="178.0"/>
    </contour>
  </outline>
</glyph>
<glyph name="equal" format="2">
  <advance width="544.6875"/>
  <unicode hex="003D"/>
  <outline>
    <contour>
      <point x="476.6875" y="459.8125" type="curve"/>
      <point x="476.6875" y="488.125" type="line"/>
      <point x="476.6875" y="492.625"/>
      <point x="473.4375" y="495.0"/>
      <point x="469.0" y="495.0" type="curve"/>
      <point x="74.0" y="494.0625" type="line" smooth="yes"/>
      <point x="70.4375" y="494.0625"/>
      <point x="68.125" y="491.6875"/>
      <point x="68.125" y="486.0625" type="curve"/>
      <point x="68.125" y="457.75" type="line" smooth="yes"/>
      <point x="68.125" y="452.0"/>
      <point x="70.375" y="449.625"/>
      <point x="77.25" y="449.625" type="curve"/>
      <point x="465.25" y="450.5625" type="line" smooth="yes"/>
      <point x="473.25" y="450.5625"/>
      <point x="476.6875" y="452.9375"/>
    </contour>
    <contour>
      <point x="476.6875" y="238.5" type="curve"/>
      <point x="476.6875" y="266.8125" type="line"/>
      <point x="476.6875" y="271.3125"/>
      <point x="473.4375" y="273.6875"/>
      <point x="469.0" y="273.6875" type="curve"/>
      <point x="74.0" y="272.75" type="line" smooth="yes"/>
      <point x="70.4375" y="272.75"/>
      <point x="68.125" y="270.375"/>
      <point x="68.125" y="264.75" type="curve"/>
      <point x="68.125" y="236.4375" type="line" smooth="yes"/>
      <point x="68.125" y="230.6875"/>
      <point x="70.375" y="228.3125"/>
      <point x="77.25" y="228.3125" type="curve"/>
      <point x="465.25" y="229.25" type="line" smooth="yes"/>
      <point x="473.25" y="229.25"/>
      <point x="476.6875" y="231.625"/>
    </contour>
  </outline>
</glyph>
<glyph name="greater" format="2">
  <advance width="527.75"/>
  <unicode hex="003E"/>
  <outline>
    <contour>
      <point x="70.0" y="215.625" type="curve"/>
      <point x="70.0" y="215.625" type="line"/>
      <point x="70.0" y="189.9375" type="line" smooth="yes"/>
      <point x="70.0" y="178.0"/>
      <point x="77.625" y="173.8125"/>
      <point x="87.375" y="178.0625" type="curve"/>
      <point x="460.0625" y="325.5625" type="line" smooth="yes"/>
      <point x="465.75" y="327.8125"/>
      <point x="469.3125" y="331.25"/>
      <point x="469.3125" y="337.0625" type="curve"/>
      <point x="469.3125" y="376.8125" type="line" smooth="yes"/>
      <point x="469.3125" y="383.6875"/>
      <point x="465.8125" y="386.1875"/>
      <point x="460.0625" y="388.4375" type="curve"/>
      <point x="87.3125" y="537.875" type="line" smooth="yes"/>
      <point x="74.8125" y="543.0625"/>
      <point x="69.0625" y="538.4375"/>
      <point x="69.0625" y="527.875" type="curve"/>
      <point x="69.0625" y="497.5" type="line" smooth="yes"/>
      <point x="69.0625" y="490.5"/>
      <point x="73.6875" y="486.875"/>
      <point x="84.0625" y="482.375" type="curve"/>
      <point x="398.9375" y="357.375" type="line"/>
      <point x="85.0" y="231.625" type="line" smooth="yes"/>
      <point x="74.5625" y="227.125"/>
      <point x="70.0" y="223.6875"/>
    </contour>
  </outline>
</glyph>
<glyph name="question" format="2">
  <advance width="516.0"/>
  <unicode hex="003F"/>
  <outline>
    <contour>
      <point x="280.125" y="12.125" type="curve"/>
      <point x="280.125" y="77.625" type="line"/>
      <point x="280.125" y="84.0625"/>
      <point x="277.8125" y="86.375"/>
      <point x="272.4375" y="86.375" type="curve"/>
      <point x="216.625" y="86.375" type="line" smooth="yes"/>
      <point x="211.1875" y="86.375"/>
      <point x="208.875" y="83.125"/>
      <point x="208.875" y="76.5625" type="curve"/>
      <point x="208.875" y="10.9375" type="line" smooth="yes"/>
      <point x="208.875" y="3.3125"/>
      <point x="212.0625" y="0.0"/>
      <point x="219.875" y="0.0" type="curve"/>
      <point x="265.875" y="0.0" type="line" smooth="yes"/>
      <point x="276.6875" y="0.0"/>
      <point x="280.125" y="3.3125"/>
    </contour>
    <contour>
      <point x="41.625" y="617.25" type="curve"/>
      <point x="41.625" y="617.25" type="line"/>
      <point x="77.75" y="602.375" type="line" smooth="yes"/>
      <point x="83.375" y="600.3125"/>
      <point x="84.625" y="602.3125"/>
      <point x="86.875" y="605.9375" type="curve"/>
      <point x="109.75" y="659.6875"/>
      <point x="190.0" y="704.5"/>
      <point x="264.8125" y="704.5" type="curve"/>
      <point x="360.75" y="704.5"/>
      <point x="423.5625" y="652.5625"/>
      <point x="423.5625" y="569.9375" type="curve"/>
      <point x="423.5625" y="413.625"/>
      <point x="220.0" y="361.8125"/>
      <point x="220.0" y="167.6875" type="curve"/>
      <point x="220.0" y="160.875"/>
      <point x="223.4375" y="157.4375"/>
      <point x="229.125" y="157.4375" type="curve"/>
      <point x="261.0" y="157.4375" type="line" smooth="yes"/>
      <point x="265.625" y="157.4375"/>
      <point x="269.125" y="161.875"/>
      <point x="269.125" y="166.4375" type="curve"/>
      <point x="269.125" y="345.3125"/>
      <point x="478.875" y="395.375"/>
      <point x="478.875" y="570.625" type="curve"/>
      <point x="478.875" y="680.375"/>
      <point x="395.5625" y="752.0"/>
      <point x="264.9375" y="752.0" type="curve"/>
      <point x="167.5" y="752.0"/>
      <point x="80.25" y="703.4375"/>
      <point x="38.1875" y="626.4375" type="curve"/>
      <point x="36.0625" y="622.9375"/>
      <point x="37.0625" y="619.3125"/>
    </contour>
  </outline>
</glyph>
<glyph name="at" format="2">
  <advance width="834.0"/>
  <unicode hex="0040"/>
  <outline>
    <contour>
      <point x="651.25" y="-46.0" type="curve"/>
      <point x="651.25" y="-46.0" type="line"/>
      <point x="657.375" y="-41.875"/>
      <point x="665.1875" y="-35.875"/>
      <point x="658.25" y="-26.0" type="curve"/>
      <point x="644.5" y="-7.625" type="line" smooth="yes"/>
      <point x="640.5" y="-2.5625"/>
      <point x="633.5625" y="-1.5"/>
      <point x="625.375" y="-6.625" type="curve"/>
      <point x="575.6875" y="-39.3125"/>
      <point x="534.8125" y="-66.0"/>
      <point x="448.75" y="-66.0" type="curve"/>
      <point x="219.125" y="-66.0"/>
      <point x="104.75" y="85.25"/>
      <point x="104.75" y="258.4375" type="curve"/>
      <point x="104.75" y="452.125"/>
      <point x="235.5625" y="614.375"/>
      <point x="448.125" y="614.375" type="curve"/>
      <point x="586.9375" y="614.375"/>
      <point x="744.5625" y="534.25"/>
      <point x="744.5625" y="333.875" type="curve"/>
      <point x="744.5625" y="209.25"/>
      <point x="682.875" y="127.8125"/>
      <point x="608.5" y="127.8125" type="curve"/>
      <point x="569.0" y="127.8125"/>
      <point x="553.125" y="150.0625"/>
      <point x="563.875" y="215.3125" type="curve"/>
      <point x="601.6875" y="442.875" type="line" smooth="yes"/>
      <point x="602.6875" y="447.0"/>
      <point x="599.6875" y="449.0"/>
      <point x="595.5625" y="449.0" type="curve"/>
      <point x="562.9375" y="449.0" type="line" smooth="yes"/>
      <point x="558.8125" y="449.0"/>
      <point x="556.6875" y="447.9375"/>
      <point x="555.6875" y="443.875" type="curve"/>
      <point x="546.25" y="407.9375" type="line" smooth="yes"/>
      <point x="545.1875" y="402.8125"/>
      <point x="541.1875" y="402.75"/>
      <point x="540.0" y="404.875" type="curve"/>
      <point x="517.0" y="447.4375"/>
      <point x="475.1875" y="475.0"/>
      <point x="421.0625" y="475.0" type="curve"/>
      <point x="311.6875" y="475.0"/>
      <point x="231.75" y="372.375"/>
      <point x="231.75" y="243.0625" type="curve"/>
      <point x="231.6875" y="136.0"/>
      <point x="295.9375" y="67.0"/>
      <point x="367.3125" y="67.0" type="curve"/>
      <point x="436.3125" y="67.0"/>
      <point x="479.5" y="97.5"/>
      <point x="509.5" y="138.9375" type="curve"/>
      <point x="515.5" y="146.875"/>
      <point x="518.375" y="146.9375"/>
      <point x="520.625" y="137.125" type="curve"/>
      <point x="529.8125" y="95.0"/>
      <point x="557.75" y="81.0"/>
      <point x="606.6875" y="81.0" type="curve"/>
      <point x="714.5" y="81.0"/>
      <point x="798.25" y="187.0"/>
      <point x="798.25" y="339.875" type="curve"/>
      <point x="798.25" y="564.0625"/>
      <point x="618.1875" y="661.0"/>
      <point x="449.0625" y="661.0" type="curve"/>
      <point x="213.5" y="661.0"/>
      <point x="51.75" y="477.0"/>
      <point x="51.75" y="261.0625" type="curve"/>
      <point x="51.75" y="55.0"/>
      <point x="195.0" y="-113.0"/>
      <point x="436.4375" y="-113.0" type="curve"/>
      <point x="517.5" y="-113.0"/>
      <point x="590.5" y="-88.375"/>
    </contour>
    <contour>
      <point x="286.875" y="244.875" type="curve"/>
      <point x="286.875" y="244.875" type="line"/>
      <point x="286.875" y="345.1875"/>
      <point x="340.125" y="426.8125"/>
      <point x="423.5625" y="426.8125" type="curve"/>
      <point x="479.6875" y="426.8125"/>
      <point x="537.3125" y="376.4375"/>
      <point x="520.4375" y="267.0625" type="curve"/>
      <point x="507.3125" y="183.25"/>
      <point x="445.0" y="115.1875"/>
      <point x="374.25" y="115.1875" type="curve"/>
      <point x="319.9375" y="115.1875"/>
      <point x="286.875" y="163.625"/>
    </contour>
  </outline>
</glyph>
<glyph name="A" format="2">
  <advance width="706.1875"/>
  <unicode hex="0041"/>
  <anchor x="645.6875" y="10.875" name="ogonek"/>
  <anchor x="353.125" y="0.0" name="bottom"/>
  <anchor x="352.8125" y="742.0" name="top"/>
  <outline>
    <contour>
      <point x="58.9375" y="0.0" type="curve"/>
      <point x="58.9375" y="0.0" type="line"/>
      <point x="91.875" y="0.0" type="line" smooth="yes"/>
      <point x="98.375" y="0.0"/>
      <point x="102.5625" y="2.3125"/>
      <point x="103.6875" y="7.5" type="curve"/>
      <point x="184.0625" y="224.875" type="line" smooth="yes"/>
      <point x="186.0625" y="230.0"/>
      <point x="188.25" y="232.125"/>
      <point x="194.375" y="232.125" type="curve"/>
      <point x="509.5" y="232.125" type="line" smooth="yes"/>
      <point x="515.75" y="232.125"/>
      <point x="517.75" y="229.9375"/>
      <point x="519.8125" y="224.8125" type="curve"/>
      <point x="598.1875" y="8.5625" type="line" smooth="yes"/>
      <point x="600.3125" y="2.125"/>
      <point x="604.5625" y="0.0"/>
      <point x="611.75" y="0.0" type="curve"/>
      <point x="646.5" y="0.0" type="line" smooth="yes"/>
      <point x="654.0" y="0.0"/>
      <point x="657.0625" y="5.0"/>
      <point x="654.875" y="11.5" type="curve"/>
      <point x="394.25" y="730.9375" type="line" smooth="yes"/>
      <point x="392.0" y="738.5"/>
      <point x="385.5625" y="742.0"/>
      <point x="375.125" y="742.0" type="curve"/>
      <point x="331.875" y="742.0" type="line" smooth="yes"/>
      <point x="322.3125" y="742.0"/>
      <point x="318.1875" y="738.75"/>
      <point x="315.0" y="730.25" type="curve"/>
      <point x="51.4375" y="10.75" type="line" smooth="yes"/>
      <point x="49.0625" y="3.75"/>
      <point x="52.375" y="0.0"/>
    </contour>
    <contour>
      <point x="490.4375" y="280.25" type="curve"/>
      <point x="210.5" y="280.25" type="line"/>
      <point x="204.125" y="280.25"/>
      <point x="202.0625" y="281.6875"/>
      <point x="205.1875" y="289.0625" type="curve"/>
      <point x="344.9375" y="666.25" type="line" smooth="yes"/>
      <point x="349.75" y="679.8125"/>
      <point x="354.875" y="679.8125"/>
      <point x="359.75" y="667.1875" type="curve"/>
      <point x="497.5625" y="290.875" type="line" smooth="yes"/>
      <point x="499.6875" y="284.4375"/>
      <point x="498.625" y="280.25"/>
    </contour>
  </outline>
</glyph>
<glyph name="B" format="2">
  <advance width="687.4375"/>
  <unicode hex="0042"/>
  <outline>
    <contour>
      <point x="119.0625" y="0.0" type="curve"/>
      <point x="119.0625" y="0.0" type="line"/>
      <point x="334.75" y="0.0" type="line" smooth="yes"/>
      <point x="512.3125" y="0.0"/>
      <point x="615.3125" y="65.0"/>
      <point x="615.3125" y="197.3125" type="curve"/>
      <point x="615.3125" y="296.375"/>
      <point x="557.5625" y="354.875"/>
      <point x="466.3125" y="373.375" type="curve"/>
      <point x="460.5" y="374.375"/>
      <point x="460.5" y="380.3125"/>
      <point x="466.3125" y="382.25" type="curve"/>
      <point x="555.0625" y="410.4375"/>
      <point x="597.3125" y="467.625"/>
      <point x="597.3125" y="550.6875" type="curve"/>
      <point x="597.3125" y="675.0"/>
      <point x="499.5" y="742.0"/>
      <point x="330.9375" y="742.0" type="curve"/>
      <point x="120.125" y="742.0" type="line" smooth="yes"/>
      <point x="112.625" y="742.0"/>
      <point x="110.125" y="739.4375"/>
      <point x="110.125" y="731.0" type="curve"/>
      <point x="110.125" y="8.875" type="line" smooth="yes"/>
      <point x="110.125" y="3.4375"/>
      <point x="113.5" y="0.0"/>
    </contour>
    <contour>
      <point x="329.75" y="46.875" type="curve"/>
      <point x="175.0625" y="46.875" type="line"/>
      <point x="169.5625" y="46.875"/>
      <point x="167.4375" y="50.125"/>
      <point x="167.4375" y="57.625" type="curve"/>
      <point x="167.4375" y="341.6875" type="line" smooth="yes"/>
      <point x="167.4375" y="349.1875"/>
      <point x="170.625" y="351.4375"/>
      <point x="179.1875" y="351.4375" type="curve"/>
      <point x="343.1875" y="351.4375" type="line" smooth="yes"/>
      <point x="463.5" y="351.4375"/>
      <point x="555.5625" y="308.3125"/>
      <point x="555.5625" y="193.25" type="curve"/>
      <point x="555.5625" y="88.625"/>
      <point x="481.5" y="46.875"/>
    </contour>
    <contour>
      <point x="343.1875" y="398.5625" type="curve"/>
      <point x="175.0625" y="398.5625" type="line"/>
      <point x="169.5625" y="398.5625"/>
      <point x="167.4375" y="401.8125"/>
      <point x="167.4375" y="409.3125" type="curve"/>
      <point x="167.4375" y="686.375" type="line" smooth="yes"/>
      <point x="167.4375" y="692.9375"/>
      <point x="170.625" y="695.125"/>
      <point x="177.3125" y="695.125" type="curve"/>
      <point x="327.75" y="695.125" type="line" smooth="yes"/>
      <point x="457.25" y="695.125"/>
      <point x="538.3125" y="648.375"/>
      <point x="538.3125" y="544.375" type="curve"/>
      <point x="538.3125" y="427.5625"/>
      <point x="433.3125" y="398.5625"/>
    </contour>
  </outline>
</glyph>
<glyph name="C" format="2">
  <advance width="697.625"/>
  <unicode hex="0043"/>
  <anchor x="375.625" y="742.0" name="top"/>
  <anchor x="381.125" y="0.0" name="bottom"/>
  <outline>
    <contour>
      <point x="375.625" y="752.0" type="curve"/>
      <point x="375.625" y="752.0" type="line"/>
      <point x="186.75" y="752.0"/>
      <point x="75.0" y="609.75"/>
      <point x="75.0" y="368.8125" type="curve"/>
      <point x="75.0" y="128.75"/>
      <point x="186.75" y="-10.0"/>
      <point x="381.125" y="-10.0" type="curve"/>
      <point x="509.0" y="-10.0"/>
      <point x="608.125" y="67.625"/>
      <point x="641.5625" y="174.125" type="curve"/>
      <point x="642.75" y="179.5"/>
      <point x="641.125" y="181.6875"/>
      <point x="638.8125" y="182.75" type="curve"/>
      <point x="599.125" y="193.6875" type="line" smooth="yes"/>
      <point x="595.3125" y="194.8125"/>
      <point x="592.875" y="193.6875"/>
      <point x="591.75" y="191.3125" type="curve"/>
      <point x="552.0625" y="87.375"/>
      <point x="487.0" y="39.625"/>
      <point x="385.3125" y="39.625" type="curve"/>
      <point x="218.0625" y="39.625"/>
      <point x="134.875" y="156.6875"/>
      <point x="134.875" y="368.5625" type="curve"/>
      <point x="134.875" y="587.8125"/>
      <point x="220.375" y="703.0"/>
      <point x="377.875" y="703.0" type="curve"/>
      <point x="476.6875" y="703.0"/>
      <point x="553.3125" y="641.125"/>
      <point x="575.5625" y="548.4375" type="curve"/>
      <point x="576.6875" y="541.9375"/>
      <point x="578.625" y="539.75"/>
      <point x="583.3125" y="540.6875" type="curve"/>
      <point x="628.0" y="545.125" type="line" smooth="yes"/>
      <point x="633.625" y="545.25"/>
      <point x="634.8125" y="547.4375"/>
      <point x="633.5" y="553.875" type="curve"/>
      <point x="620.625" y="658.75"/>
      <point x="500.5625" y="752.0"/>
    </contour>
  </outline>
</glyph>
<glyph name="D" format="2">
  <advance width="707.25"/>
  <unicode hex="0044"/>
  <anchor x="345.0" y="371.0" name="center"/>
  <anchor x="339.375" y="742.0" name="top"/>
  <outline>
    <contour>
      <point x="121.1875" y="742.0" type="curve"/>
      <point x="121.1875" y="742.0" type="line"/>
      <point x="113.375" y="742.0"/>
      <point x="110.125" y="737.875"/>
      <point x="110.125" y="731.0625" type="curve"/>
      <point x="110.125" y="11.25" type="line" smooth="yes"/>
      <point x="110.125" y="3.3125"/>
      <point x="113.5" y="0.0"/>
      <point x="120.375" y="0.0" type="curve"/>
      <point x="232.4375" y="0.0" type="line" smooth="yes"/>
      <point x="505.75" y="0.0"/>
      <point x="633.125" y="117.625"/>
      <point x="633.125" y="378.5625" type="curve"/>
      <point x="633.125" y="619.5625"/>
      <point x="523.875" y="738.5625"/>
      <point x="245.625" y="741.0" type="curve"/>
      <point x="232.625" y="741.125"/>
      <point x="128.1875" y="742.0"/>
    </contour>
    <contour>
      <point x="177.4375" y="693.75" type="curve"/>
      <point x="177.4375" y="693.75" type="line"/>
      <point x="228.625" y="693.75" type="line" smooth="yes"/>
      <point x="463.625" y="693.75"/>
      <point x="573.25" y="625.5"/>
      <point x="573.25" y="371.1875" type="curve"/>
      <point x="573.25" y="135.3125"/>
      <point x="474.6875" y="47.3125"/>
      <point x="225.9375" y="47.3125" type="curve"/>
      <point x="178.625" y="47.3125" type="line" smooth="yes"/>
      <point x="170.4375" y="47.3125"/>
      <point x="167.4375" y="50.3125"/>
      <point x="167.4375" y="56.6875" type="curve"/>
      <point x="167.4375" y="679.75" type="line" smooth="yes"/>
      <point x="167.4375" y="687.9375"/>
      <point x="169.5" y="693.75"/>
    </contour>
  </outline>
</glyph>
<glyph name="E" format="2">
  <advance width="615.6875"/>
  <unicode hex="0045"/>
  <anchor x="552.8125" y="10.0" name="ogonek"/>
  <anchor x="362.25" y="0.0" name="bottom"/>
  <anchor x="344.4375" y="742.0" name="top"/>
  <outline>
    <contour>
      <point x="110.125" y="731.1875" type="curve"/>
      <point x="110.125" y="731.1875" type="line"/>
      <point x="110.125" y="10.9375" type="line" smooth="yes"/>
      <point x="110.125" y="2.375"/>
      <point x="112.4375" y="0.0"/>
      <point x="120.25" y="0.0" type="curve"/>
      <point x="556.8125" y="0.0" type="line" smooth="yes"/>
      <point x="562.5625" y="0.0"/>
      <point x="564.875" y="2.5"/>
      <point x="564.875" y="7.9375" type="curve"/>
      <point x="564.875" y="40.0" type="line" smooth="yes"/>
      <point x="564.875" y="46.5"/>
      <point x="562.5" y="47.75"/>
      <point x="556.0" y="47.75" type="curve"/>
      <point x="176.625" y="47.75" type="line" smooth="yes"/>
      <point x="169.5" y="47.75"/>
      <point x="167.4375" y="48.875"/>
      <point x="167.4375" y="57.0625" type="curve"/>
      <point x="167.4375" y="341.75" type="line" smooth="yes"/>
      <point x="167.4375" y="349.75"/>
      <point x="169.6875" y="351.0625"/>
      <point x="176.875" y="351.0625" type="curve"/>
      <point x="458.4375" y="351.0625" type="line" smooth="yes"/>
      <point x="464.875" y="351.0625"/>
      <point x="467.0625" y="352.5"/>
      <point x="467.0625" y="358.6875" type="curve"/>
      <point x="467.0625" y="390.8125" type="line" smooth="yes"/>
      <point x="467.0625" y="396.3125"/>
      <point x="464.75" y="398.625"/>
      <point x="459.1875" y="398.625" type="curve"/>
      <point x="177.0" y="398.625" type="line" smooth="yes"/>
      <point x="169.8125" y="398.625"/>
      <point x="167.4375" y="400.0"/>
      <point x="167.4375" y="406.5" type="curve"/>
      <point x="167.4375" y="684.625" type="line" smooth="yes"/>
      <point x="167.4375" y="692.9375"/>
      <point x="169.8125" y="694.25"/>
      <point x="177.3125" y="694.25" type="curve"/>
      <point x="541.0625" y="694.25" type="line" smooth="yes"/>
      <point x="547.8125" y="694.25"/>
      <point x="550.1875" y="695.875"/>
      <point x="550.1875" y="702.5" type="curve"/>
      <point x="550.25" y="734.125" type="line" smooth="yes"/>
      <point x="550.25" y="739.625"/>
      <point x="548.0" y="742.0"/>
      <point x="542.5625" y="742.0" type="curve"/>
      <point x="119.75" y="742.0" type="line" smooth="yes"/>
      <point x="112.4375" y="742.0"/>
      <point x="110.125" y="739.625"/>
    </contour>
  </outline>
</glyph>
<glyph name="F" format="2">
  <advance width="587.1875"/>
  <unicode hex="0046"/>
  <outline>
    <contour>
      <point x="110.125" y="731.1875" type="curve"/>
      <point x="110.125" y="731.1875" type="line"/>
      <point x="110.125" y="10.9375" type="line" smooth="yes"/>
      <point x="110.125" y="2.375"/>
      <point x="112.375" y="0.0"/>
      <point x="120.25" y="0.0" type="curve"/>
      <point x="158.8125" y="0.0" type="line" smooth="yes"/>
      <point x="164.9375" y="0.0"/>
      <point x="167.4375" y="2.375"/>
      <point x="167.4375" y="8.375" type="curve"/>
      <point x="167.4375" y="329.125" type="line" smooth="yes"/>
      <point x="167.4375" y="337.1875"/>
      <point x="169.6875" y="338.5"/>
      <point x="176.875" y="338.5" type="curve"/>
      <point x="467.9375" y="338.5" type="line" smooth="yes"/>
      <point x="474.4375" y="338.5"/>
      <point x="476.5625" y="339.875"/>
      <point x="476.5625" y="346.125" type="curve"/>
      <point x="476.5625" y="378.125" type="line" smooth="yes"/>
      <point x="476.5625" y="383.625"/>
      <point x="474.3125" y="385.9375"/>
      <point x="468.75" y="385.9375" type="curve"/>
      <point x="177.0" y="385.9375" type="line" smooth="yes"/>
      <point x="169.75" y="385.9375"/>
      <point x="167.4375" y="387.25"/>
      <point x="167.4375" y="393.75" type="curve"/>
      <point x="167.4375" y="684.625" type="line" smooth="yes"/>
      <point x="167.4375" y="692.9375"/>
      <point x="169.75" y="694.25"/>
      <point x="177.3125" y="694.25" type="curve"/>
      <point x="531.3125" y="694.25" type="line" smooth="yes"/>
      <point x="538.0625" y="694.25"/>
      <point x="540.375" y="695.875"/>
      <point x="540.375" y="702.5" type="curve"/>
      <point x="540.4375" y="734.125" type="line" smooth="yes"/>
      <point x="540.4375" y="739.625"/>
      <point x="538.1875" y="742.0"/>
      <point x="532.75" y="742.0" type="curve"/>
      <point x="119.75" y="742.0" type="line" smooth="yes"/>
      <point x="112.5" y="742.0"/>
      <point x="110.125" y="739.625"/>
    </contour>
  </outline>
</glyph>
<glyph name="G" format="2">
  <advance width="731.9375"/>
  <unicode hex="0047"/>
  <anchor x="374.5" y="742.0" name="top"/>
  <anchor x="379.1875" y="0.0" name="bottom"/>
  <outline>
    <contour>
      <point x="373.4375" y="-10.0" type="curve"/>
      <point x="373.4375" y="-10.0" type="line"/>
      <point x="484.875" y="-10.0"/>
      <point x="556.5" y="44.6875"/>
      <point x="595.3125" y="112.5" type="curve"/>
      <point x="599.375" y="119.4375"/>
      <point x="603.3125" y="118.5"/>
      <point x="603.5" y="112.625" type="curve"/>
      <point x="606.0" y="9.625" type="line" smooth="yes"/>
      <point x="606.625" y="0.3125"/>
      <point x="611.9375" y="0.0"/>
      <point x="620.1875" y="0.0" type="curve"/>
      <point x="638.5" y="0.0" type="line" smooth="yes"/>
      <point x="645.6875" y="0.0"/>
      <point x="648.9375" y="2.375"/>
      <point x="648.9375" y="11.375" type="curve"/>
      <point x="648.9375" y="369.3125" type="line" smooth="yes"/>
      <point x="648.9375" y="374.1875"/>
      <point x="646.25" y="376.875"/>
      <point x="640.9375" y="376.875" type="curve"/>
      <point x="402.1875" y="377.0" type="line" smooth="yes"/>
      <point x="398.4375" y="377.0"/>
      <point x="396.1875" y="374.6875"/>
      <point x="396.1875" y="370.3125" type="curve"/>
      <point x="396.1875" y="342.75" type="line" smooth="yes"/>
      <point x="396.1875" y="337.9375"/>
      <point x="398.4375" y="335.75"/>
      <point x="404.0" y="335.75" type="curve"/>
      <point x="587.0625" y="335.75" type="line" smooth="yes"/>
      <point x="593.3125" y="335.75"/>
      <point x="598.1875" y="334.4375"/>
      <point x="597.9375" y="327.1875" type="curve"/>
      <point x="597.75" y="252.5625" type="line" smooth="yes"/>
      <point x="596.625" y="161.5625"/>
      <point x="527.0" y="39.125"/>
      <point x="375.375" y="39.125" type="curve"/>
      <point x="217.8125" y="39.125"/>
      <point x="134.875" y="155.5"/>
      <point x="134.875" y="374.0" type="curve"/>
      <point x="134.875" y="581.5"/>
      <point x="219.3125" y="702.9375"/>
      <point x="374.875" y="702.9375" type="curve"/>
      <point x="478.75" y="702.9375"/>
      <point x="560.625" y="634.1875"/>
      <point x="576.25" y="547.3125" type="curve"/>
      <point x="577.375" y="541.8125"/>
      <point x="580.25" y="539.5"/>
      <point x="584.0625" y="540.4375" type="curve"/>
      <point x="627.5625" y="547.6875" type="line" smooth="yes"/>
      <point x="633.25" y="548.75"/>
      <point x="633.5" y="551.875"/>
      <point x="633.125" y="557.375" type="curve"/>
      <point x="620.375" y="661.5625"/>
      <point x="501.75" y="752.0"/>
      <point x="375.1875" y="752.0" type="curve"/>
      <point x="192.125" y="752.0"/>
      <point x="75.0" y="613.0625"/>
      <point x="75.0" y="368.0" type="curve"/>
      <point x="75.0" y="130.0"/>
      <point x="186.8125" y="-10.0"/>
    </contour>
  </outline>
</glyph>
<glyph name="H" format="2">
  <advance width="727.3125"/>
  <unicode hex="0048"/>
  <anchor x="364.0625" y="742.0" name="top"/>
  <anchor x="363.9375" y="0.0" name="bottom"/>
  <outline>
    <contour>
      <point x="174.0625" y="361.6875" type="curve"/>
      <point x="552.3125" y="361.6875" type="line"/>
      <point x="557.625" y="361.6875"/>
      <point x="559.875" y="359.375"/>
      <point x="559.875" y="354.1875" type="curve"/>
      <point x="559.875" y="10.25" type="line" smooth="yes"/>
      <point x="559.875" y="2.375"/>
      <point x="563.3125" y="0.0"/>
      <point x="571.3125" y="0.0" type="curve"/>
      <point x="607.0625" y="0.0" type="line" smooth="yes"/>
      <point x="614.0" y="0.0"/>
      <point x="617.1875" y="3.3125"/>
      <point x="617.1875" y="10.9375" type="curve"/>
      <point x="617.1875" y="731.1875" type="line" smooth="yes"/>
      <point x="617.1875" y="739.625"/>
      <point x="614.8125" y="742.0"/>
      <point x="607.5625" y="742.0" type="curve"/>
      <point x="568.5" y="742.0" type="line" smooth="yes"/>
      <point x="562.1875" y="742.0"/>
      <point x="559.875" y="738.6875"/>
      <point x="559.875" y="732.25" type="curve"/>
      <point x="559.875" y="418.6875" type="line" smooth="yes"/>
      <point x="559.875" y="412.25"/>
      <point x="557.5625" y="409.9375"/>
      <point x="551.25" y="409.9375" type="curve"/>
      <point x="177.0" y="409.9375" type="line" smooth="yes"/>
      <point x="169.75" y="409.9375"/>
      <point x="167.4375" y="411.3125"/>
      <point x="167.4375" y="419.625" type="curve"/>
      <point x="167.4375" y="731.3125" type="line" smooth="yes"/>
      <point x="167.4375" y="739.625"/>
      <point x="165.125" y="742.0"/>
      <point x="157.875" y="742.0" type="curve"/>
      <point x="119.75" y="742.0" type="line" smooth="yes"/>
      <point x="112.5" y="742.0"/>
      <point x="110.125" y="739.625"/>
      <point x="110.125" y="731.1875" type="curve"/>
      <point x="110.125" y="10.9375" type="line" smooth="yes"/>
      <point x="110.125" y="3.3125"/>
      <point x="112.375" y="0.0"/>
      <point x="120.25" y="0.0" type="curve"/>
      <point x="156.0" y="0.0" type="line" smooth="yes"/>
      <point x="164.0" y="0.0"/>
      <point x="167.4375" y="3.3125"/>
      <point x="167.4375" y="10.25" type="curve"/>
      <point x="167.4375" y="355.125" type="line" smooth="yes"/>
      <point x="167.4375" y="358.4375"/>
      <point x="169.6875" y="361.6875"/>
    </contour>
  </outline>
</glyph>
<glyph name="I" format="2">
  <advance width="277.5625"/>
  <unicode hex="0049"/>
  <anchor x="155.125" y="10.0" name="ogonek"/>
  <anchor x="138.75" y="0.0" name="bottom"/>
  <anchor x="141.625" y="742.0" name="top"/>
  <outline>
    <contour>
      <point x="157.875" y="742.0" type="curve"/>
      <point x="119.75" y="742.0" type="line"/>
      <point x="112.5" y="742.0"/>
      <point x="110.125" y="739.625"/>
      <point x="110.125" y="731.1875" type="curve"/>
      <point x="110.125" y="10.9375" type="line" smooth="yes"/>
      <point x="110.125" y="2.375"/>
      <point x="112.375" y="0.0"/>
      <point x="122.125" y="0.0" type="curve"/>
      <point x="154.125" y="0.0" type="line" smooth="yes"/>
      <point x="164.9375" y="0.0"/>
      <point x="167.4375" y="2.375"/>
      <point x="167.4375" y="13.0625" type="curve"/>
      <point x="167.4375" y="731.3125" type="line" smooth="yes"/>
      <point x="167.4375" y="739.625"/>
      <point x="165.1875" y="742.0"/>
    </contour>
  </outline>
</glyph>
<glyph name="J" format="2">
  <advance width="403.25"/>
  <unicode hex="004A"/>
  <anchor x="264.5625" y="742.0" name="top"/>
  <outline>
    <contour>
      <point x="297.1875" y="148.25" type="curve"/>
      <point x="297.1875" y="148.25" type="line"/>
      <point x="297.1875" y="731.3125" type="line" smooth="yes"/>
      <point x="297.1875" y="738.6875"/>
      <point x="294.9375" y="742.0"/>
      <point x="288.5625" y="742.0" type="curve"/>
      <point x="248.625" y="742.0" type="line" smooth="yes"/>
      <point x="242.25" y="742.0"/>
      <point x="239.875" y="738.6875"/>
      <point x="239.875" y="732.125" type="curve"/>
      <point x="239.875" y="161.125" type="line" smooth="yes"/>
      <point x="239.875" y="69.6875"/>
      <point x="217.4375" y="42.8125"/>
      <point x="153.4375" y="42.8125" type="curve"/>
      <point x="106.125" y="42.8125"/>
      <point x="84.4375" y="57.1875"/>
      <point x="63.75" y="66.6875" type="curve"/>
      <point x="59.0" y="68.6875"/>
      <point x="55.75" y="67.125"/>
      <point x="54.75" y="61.5" type="curve"/>
      <point x="45.75" y="25.3125" type="line" smooth="yes"/>
      <point x="44.6875" y="19.8125"/>
      <point x="47.1875" y="16.3125"/>
      <point x="51.4375" y="14.1875" type="curve"/>
      <point x="60.8125" y="9.0"/>
      <point x="105.375" y="-10.0"/>
      <point x="159.5" y="-10.0" type="curve"/>
      <point x="260.1875" y="-10.0"/>
      <point x="297.1875" y="48.9375"/>
    </contour>
  </outline>
</glyph>
<glyph name="K" format="2">
  <advance width="680.125"/>
  <unicode hex="004B"/>
  <anchor x="372.875" y="742.0" name="top"/>
  <anchor x="344.75" y="0.0" name="bottom"/>
  <outline>
    <contour>
      <point x="630.625" y="8.5" type="curve"/>
      <point x="630.625" y="8.5" type="line"/>
      <point x="354.5" y="447.1875" type="line" smooth="yes"/>
      <point x="352.25" y="451.8125"/>
      <point x="352.3125" y="452.25"/>
      <point x="354.6875" y="454.8125" type="curve"/>
      <point x="607.75" y="732.6875" type="line" smooth="yes"/>
      <point x="612.3125" y="737.375"/>
      <point x="610.625" y="742.0"/>
      <point x="603.625" y="742.0" type="curve"/>
      <point x="558.5" y="742.0" type="line" smooth="yes"/>
      <point x="551.375" y="742.0"/>
      <point x="549.0" y="740.6875"/>
      <point x="545.5" y="736.9375" type="curve"/>
      <point x="174.9375" y="330.8125" type="line" smooth="yes"/>
      <point x="169.75" y="325.5"/>
      <point x="167.4375" y="325.4375"/>
      <point x="167.4375" y="332.0625" type="curve"/>
      <point x="167.4375" y="733.1875" type="line" smooth="yes"/>
      <point x="167.4375" y="739.625"/>
      <point x="164.25" y="742.0"/>
      <point x="158.8125" y="742.0" type="curve"/>
      <point x="118.8125" y="742.0" type="line" smooth="yes"/>
      <point x="112.5" y="742.0"/>
      <point x="110.125" y="738.6875"/>
      <point x="110.125" y="733.0625" type="curve"/>
      <point x="110.125" y="10.0" type="line" smooth="yes"/>
      <point x="110.125" y="2.375"/>
      <point x="113.3125" y="0.0"/>
      <point x="121.1875" y="0.0" type="curve"/>
      <point x="156.0" y="0.0" type="line" smooth="yes"/>
      <point x="164.0" y="0.0"/>
      <point x="167.4375" y="3.3125"/>
      <point x="167.4375" y="10.25" type="curve"/>
      <point x="167.4375" y="241.875" type="line" smooth="yes"/>
      <point x="167.4375" y="250.0"/>
      <point x="169.375" y="253.1875"/>
      <point x="175.3125" y="259.1875" type="curve"/>
      <point x="303.5" y="401.75" type="line" smooth="yes"/>
      <point x="308.8125" y="407.25"/>
      <point x="312.0" y="408.3125"/>
      <point x="316.125" y="402.0625" type="curve"/>
      <point x="565.625" y="5.9375" type="line" smooth="yes"/>
      <point x="567.9375" y="2.1875"/>
      <point x="572.4375" y="0.0"/>
      <point x="578.1875" y="0.0" type="curve"/>
      <point x="626.9375" y="0.0" type="line" smooth="yes"/>
      <point x="631.9375" y="0.0"/>
      <point x="633.9375" y="3.75"/>
    </contour>
  </outline>
</glyph>
<glyph name="L" format="2">
  <advance width="590.5"/>
  <unicode hex="004C"/>
  <anchor x="138.9375" y="742.0" name="top"/>
  <anchor x="318.6875" y="0.0" name="bottom"/>
  <anchor x="428.4375" y="742.0" name="topright"/>
  <outline>
    <contour>
      <point x="110.125" y="731.1875" type="curve"/>
      <point x="110.125" y="731.1875" type="line"/>
      <point x="110.125" y="10.9375" type="line" smooth="yes"/>
      <point x="110.125" y="3.3125"/>
      <point x="112.375" y="0.0"/>
      <point x="120.25" y="0.0" type="curve"/>
      <point x="536.5625" y="0.0" type="line"/>
      <point x="542.3125" y="0.0"/>
      <point x="544.6875" y="2.5"/>
      <point x="544.6875" y="7.9375" type="curve"/>
      <point x="544.6875" y="40.0" type="line" smooth="yes"/>
      <point x="544.6875" y="46.5"/>
      <point x="542.25" y="47.75"/>
      <point x="535.75" y="47.75" type="curve"/>
      <point x="176.625" y="47.75" type="line" smooth="yes"/>
      <point x="169.5" y="47.75"/>
      <point x="167.4375" y="48.875"/>
      <point x="167.4375" y="57.0625" type="curve"/>
      <point x="167.4375" y="731.3125" type="line" smooth="yes"/>
      <point x="167.4375" y="739.625"/>
      <point x="165.1875" y="742.0"/>
      <point x="157.875" y="742.0" type="curve"/>
      <point x="119.75" y="742.0" type="line" smooth="yes"/>
      <point x="112.5" y="742.0"/>
      <point x="110.125" y="739.625"/>
    </contour>
  </outline>
</glyph>
<glyph name="M" format="2">
  <advance width="885.125"/>
  <unicode hex="004D"/>
  <outline>
    <contour>
      <point x="120.1875" y="0.0" type="curve"/>
      <point x="120.1875" y="0.0" type="line"/>
      <point x="151.9375" y="0.0" type="line" smooth="yes"/>
      <point x="159.625" y="0.0"/>
      <point x="162.6875" y="3.0625"/>
      <point x="162.6875" y="9.8125" type="curve"/>
      <point x="162.6875" y="612.125" type="line" smooth="yes"/>
      <point x="162.6875" y="616.6875"/>
      <point x="165.0" y="616.0"/>
      <point x="166.25" y="612.1875" type="curve"/>
      <point x="404.0" y="10.5" type="line" smooth="yes"/>
      <point x="407.0625" y="3.1875"/>
      <point x="412.25" y="0.0"/>
      <point x="423.3125" y="0.0" type="curve"/>
      <point x="455.1875" y="0.0" type="line" smooth="yes"/>
      <point x="464.3125" y="0.0"/>
      <point x="468.625" y="3.25"/>
      <point x="471.6875" y="11.4375" type="curve"/>
      <point x="714.125" y="617.375" type="line" smooth="yes"/>
      <point x="715.3125" y="620.9375"/>
      <point x="717.6875" y="622.8125"/>
      <point x="717.6875" y="617.4375" type="curve"/>
      <point x="717.6875" y="10.0" type="line" smooth="yes"/>
      <point x="717.6875" y="2.375"/>
      <point x="720.875" y="0.0"/>
      <point x="728.6875" y="0.0" type="curve"/>
      <point x="764.5625" y="0.0" type="line" smooth="yes"/>
      <point x="771.625" y="0.0"/>
      <point x="775.0" y="3.3125"/>
      <point x="775.0" y="11.1875" type="curve"/>
      <point x="775.0" y="731.3125" type="line" smooth="yes"/>
      <point x="775.0" y="739.625"/>
      <point x="772.75" y="742.0"/>
      <point x="765.4375" y="742.0" type="curve"/>
      <point x="720.1875" y="742.0" type="line" smooth="yes"/>
      <point x="713.6875" y="742.0"/>
      <point x="710.375" y="739.4375"/>
      <point x="708.1875" y="733.625" type="curve"/>
      <point x="448.3125" y="86.3125" type="line" smooth="yes"/>
      <point x="442.5" y="72.625"/>
      <point x="437.4375" y="72.5"/>
      <point x="432.5" y="85.375" type="curve"/>
      <point x="175.6875" y="733.375" type="line"/>
      <point x="173.5" y="739.875"/>
      <point x="170.3125" y="742.0"/>
      <point x="161.75" y="742.0" type="curve"/>
      <point x="119.875" y="742.0" type="line" smooth="yes"/>
      <point x="112.375" y="742.0"/>
      <point x="110.125" y="739.6875"/>
      <point x="110.125" y="731.1875" type="curve"/>
      <point x="110.125" y="11.125" type="line" smooth="yes"/>
      <point x="110.125" y="3.5"/>
      <point x="112.625" y="0.0"/>
    </contour>
  </outline>
</glyph>
<glyph name="N" format="2">
  <advance width="755.375"/>
  <unicode hex="004E"/>
  <anchor x="393.1875" y="742.0" name="top"/>
  <anchor x="360.375" y="0.0" name="bottom"/>
  <outline>
    <contour>
      <point x="635.875" y="742.0" type="curve"/>
      <point x="601.5" y="742.0" type="line"/>
      <point x="594.9375" y="742.0"/>
      <point x="592.625" y="738.6875"/>
      <point x="592.625" y="732.25" type="curve"/>
      <point x="592.625" y="124.9375" type="line" smooth="yes"/>
      <point x="592.625" y="118.3125"/>
      <point x="585.625" y="112.6875"/>
      <point x="578.5" y="122.8125" type="curve"/>
      <point x="163.1875" y="734.3125" type="line" smooth="yes"/>
      <point x="158.75" y="740.875"/>
      <point x="155.5625" y="742.0"/>
      <point x="147.0" y="742.0" type="curve"/>
      <point x="119.9375" y="742.0" type="line"/>
      <point x="112.4375" y="742.0"/>
      <point x="110.125" y="739.6875"/>
      <point x="110.125" y="731.1875" type="curve"/>
      <point x="110.125" y="10.625" type="line" smooth="yes"/>
      <point x="110.125" y="3.125"/>
      <point x="112.625" y="0.0"/>
      <point x="120.125" y="0.0" type="curve"/>
      <point x="152.0625" y="0.0" type="line" smooth="yes"/>
      <point x="159.75" y="0.0"/>
      <point x="163.0" y="3.1875"/>
      <point x="162.9375" y="9.8125" type="curve"/>
      <point x="162.9375" y="621.3125" type="line" smooth="yes"/>
      <point x="162.9375" y="629.25"/>
      <point x="167.9375" y="631.25"/>
      <point x="174.8125" y="621.4375" type="curve"/>
      <point x="593.25" y="6.5625" type="line" smooth="yes"/>
      <point x="598.5625" y="-0.8125"/>
      <point x="604.5625" y="0.0"/>
      <point x="612.75" y="0.0" type="curve"/>
      <point x="635.375" y="0.0" type="line" smooth="yes"/>
      <point x="641.8125" y="0.0"/>
      <point x="645.25" y="3.25"/>
      <point x="645.25" y="10.5" type="curve"/>
      <point x="645.25" y="731.5625" type="line" smooth="yes"/>
      <point x="645.25" y="739.75"/>
      <point x="643.0625" y="742.0"/>
    </contour>
  </outline>
</glyph>
<glyph name="O" format="2">
  <advance width="759.375"/>
  <unicode hex="004F"/>
  <guideline x="-577.875" y="431.0" angle="90.0"/>
  <anchor x="379.6875" y="371.0" name="center"/>
  <anchor x="453.0" y="9.0625" name="ogonek"/>
  <anchor x="381.5625" y="742.0" name="top"/>
  <anchor x="521.0625" y="742.0" name="topright"/>
  <anchor x="20.0" y="742.0" name="topleft"/>
  <anchor x="381.6875" y="0.0" name="bottom"/>
  <outline>
    <contour>
      <point x="379.75" y="-10.0" type="curve"/>
      <point x="379.75" y="-10.0" type="line"/>
      <point x="569.625" y="-10.0"/>
      <point x="684.3125" y="123.0625"/>
      <point x="684.3125" y="369.0" type="curve"/>
      <point x="684.3125" y="616.9375"/>
      <point x="569.4375" y="752.0"/>
      <point x="380.6875" y="752.0" type="curve"/>
      <point x="190.875" y="752.0"/>
      <point x="75.0625" y="616.0"/>
      <point x="75.0625" y="367.125" type="curve"/>
      <point x="75.0625" y="122.0625"/>
      <point x="188.75" y="-10.0"/>
    </contour>
    <contour>
      <point x="381.625" y="39.125" type="curve"/>
      <point x="381.625" y="39.125" type="line"/>
      <point x="220.4375" y="39.125"/>
      <point x="134.9375" y="146.9375"/>
      <point x="134.9375" y="368.8125" type="curve"/>
      <point x="134.9375" y="592.875"/>
      <point x="220.5625" y="703.0"/>
      <point x="380.6875" y="703.0" type="curve"/>
      <point x="539.75" y="703.0"/>
      <point x="624.4375" y="593.8125"/>
      <point x="624.4375" y="368.8125" type="curve"/>
      <point x="624.4375" y="146.0"/>
      <point x="541.75" y="39.125"/>
    </contour>
  </outline>
</glyph>
<glyph name="P" format="2">
  <advance width="677.5625"/>
  <unicode hex="0050"/>
  <outline>
    <contour>
      <point x="616.75" y="532.875" type="curve"/>
      <point x="616.75" y="532.875" type="line"/>
      <point x="616.75" y="682.625"/>
      <point x="504.125" y="742.0"/>
      <point x="348.5625" y="742.0" type="curve"/>
      <point x="119.75" y="742.0" type="line" smooth="yes"/>
      <point x="112.4375" y="742.0"/>
      <point x="110.125" y="739.625"/>
      <point x="110.125" y="731.1875" type="curve"/>
      <point x="110.125" y="9.0625" type="line" smooth="yes"/>
      <point x="110.125" y="3.3125"/>
      <point x="113.3125" y="0.0"/>
      <point x="119.25" y="0.0" type="curve"/>
      <point x="157.875" y="0.0" type="line" smooth="yes"/>
      <point x="164.0" y="0.0"/>
      <point x="167.4375" y="3.3125"/>
      <point x="167.4375" y="10.25" type="curve"/>
      <point x="167.4375" y="314.0625" type="line" smooth="yes"/>
      <point x="167.4375" y="320.125"/>
      <point x="169.5" y="323.1875"/>
      <point x="175.6875" y="323.1875" type="curve"/>
      <point x="355.8125" y="323.1875" type="line" smooth="yes"/>
      <point x="507.5625" y="323.1875"/>
      <point x="616.75" y="385.0"/>
    </contour>
    <contour>
      <point x="557.25" y="535.875" type="curve"/>
      <point x="557.25" y="535.875" type="line"/>
      <point x="557.25" y="417.875"/>
      <point x="476.6875" y="370.6875"/>
      <point x="353.6875" y="370.6875" type="curve"/>
      <point x="175.0625" y="370.6875" type="line" smooth="yes"/>
      <point x="169.5625" y="370.6875"/>
      <point x="167.4375" y="373.9375"/>
      <point x="167.4375" y="381.4375" type="curve"/>
      <point x="167.4375" y="685.6875" type="line" smooth="yes"/>
      <point x="167.4375" y="692.25"/>
      <point x="170.625" y="694.5"/>
      <point x="177.3125" y="694.5" type="curve"/>
      <point x="346.75" y="694.5" type="line" smooth="yes"/>
      <point x="476.1875" y="694.5"/>
      <point x="557.25" y="655.125"/>
    </contour>
  </outline>
</glyph>
<glyph name="Q" format="2">
  <advance width="759.5"/>
  <unicode hex="0051"/>
  <outline>
    <contour>
      <point x="75.0625" y="369.0" type="curve"/>
      <point x="75.0625" y="369.0" type="line"/>
      <point x="75.0625" y="117.375"/>
      <point x="193.4375" y="-10.0"/>
      <point x="379.75" y="-10.0" type="curve"/>
      <point x="405.75" y="-10.0"/>
      <point x="435.1875" y="-7.125"/>
      <point x="460.125" y="-1.3125" type="curve"/>
      <point x="467.125" y="0.625"/>
      <point x="472.125" y="-1.3125"/>
      <point x="475.125" y="-5.3125" type="curve"/>
      <point x="539.625" y="-95.25"/>
      <point x="606.0" y="-122.375"/>
      <point x="653.5" y="-122.375" type="curve"/>
      <point x="668.625" y="-122.375"/>
      <point x="675.0" y="-120.125"/>
      <point x="675.0" y="-108.25" type="curve"/>
      <point x="675.0" y="-80.75" type="line" smooth="yes"/>
      <point x="675.0" y="-77.5"/>
      <point x="673.875" y="-74.1875"/>
      <point x="667.375" y="-73.125" type="curve"/>
      <point x="594.375" y="-63.375"/>
      <point x="528.625" y="-6.5"/>
      <point x="528.625" y="19.875" type="curve"/>
      <point x="528.625" y="23.875"/>
      <point x="529.5625" y="25.875"/>
      <point x="534.375" y="28.8125" type="curve"/>
      <point x="629.5" y="87.3125"/>
      <point x="684.375" y="192.75"/>
      <point x="684.375" y="369.0" type="curve"/>
      <point x="684.375" y="618.8125"/>
      <point x="569.5" y="752.0"/>
      <point x="379.75" y="752.0" type="curve"/>
      <point x="189.9375" y="752.0"/>
      <point x="75.0625" y="618.8125"/>
    </contour>
    <contour>
      <point x="134.9375" y="367.0" type="curve"/>
      <point x="134.9375" y="367.0" type="line"/>
      <point x="134.9375" y="588.25"/>
      <point x="217.75" y="703.0"/>
      <point x="379.75" y="703.0" type="curve"/>
      <point x="541.6875" y="703.0"/>
      <point x="624.5" y="588.25"/>
      <point x="624.5" y="368.875" type="curve"/>
      <point x="624.5" y="145.0625"/>
      <point x="539.0" y="39.125"/>
      <point x="379.75" y="39.125" type="curve"/>
      <point x="220.4375" y="39.125"/>
      <point x="134.9375" y="145.0625"/>
    </contour>
  </outline>
</glyph>
<glyph name="R" format="2">
  <advance width="682.75"/>
  <unicode hex="0052"/>
  <anchor x="335.5" y="742.0" name="top"/>
  <anchor x="342.6875" y="0.0" name="bottom"/>
  <outline>
    <contour>
      <point x="605.375" y="15.125" type="curve"/>
      <point x="605.375" y="15.125" type="line"/>
      <point x="460.625" y="356.0625" type="line"/>
      <point x="459.5" y="359.375"/>
      <point x="460.4375" y="362.6875"/>
      <point x="464.625" y="363.8125" type="curve"/>
      <point x="534.0625" y="382.5"/>
      <point x="615.3125" y="435.0625"/>
      <point x="615.3125" y="556.25" type="curve"/>
      <point x="615.3125" y="679.0"/>
      <point x="529.5625" y="742.0"/>
      <point x="382.5" y="742.0" type="curve"/>
      <point x="119.75" y="742.0" type="line" smooth="yes"/>
      <point x="112.4375" y="742.0"/>
      <point x="110.125" y="739.625"/>
      <point x="110.125" y="731.1875" type="curve"/>
      <point x="110.125" y="10.0" type="line" smooth="yes"/>
      <point x="110.125" y="3.3125"/>
      <point x="112.375" y="0.0"/>
      <point x="121.125" y="0.0" type="curve"/>
      <point x="156.0" y="0.0" type="line" smooth="yes"/>
      <point x="164.9375" y="0.0"/>
      <point x="167.4375" y="3.3125"/>
      <point x="167.4375" y="12.125" type="curve"/>
      <point x="167.4375" y="340.25" type="line" smooth="yes"/>
      <point x="167.4375" y="347.0"/>
      <point x="170.4375" y="351.25"/>
      <point x="179.4375" y="351.25" type="curve"/>
      <point x="384.8125" y="351.25" type="line" smooth="yes"/>
      <point x="398.1875" y="351.25"/>
      <point x="403.375" y="348.125"/>
      <point x="406.4375" y="340.875" type="curve"/>
      <point x="545.4375" y="9.75" type="line" smooth="yes"/>
      <point x="548.5" y="3.25"/>
      <point x="550.9375" y="0.0"/>
      <point x="558.375" y="0.0" type="curve"/>
      <point x="596.75" y="0.0" type="line" smooth="yes"/>
      <point x="604.3125" y="0.0"/>
      <point x="608.625" y="7.5"/>
    </contour>
    <contour>
      <point x="349.125" y="398.0625" type="curve"/>
      <point x="349.125" y="398.0625" type="line"/>
      <point x="175.0625" y="398.0625" type="line" smooth="yes"/>
      <point x="169.5625" y="398.0625"/>
      <point x="167.4375" y="401.25"/>
      <point x="167.4375" y="407.8125" type="curve"/>
      <point x="167.4375" y="686.5" type="line" smooth="yes"/>
      <point x="167.4375" y="693.0625"/>
      <point x="170.625" y="695.25"/>
      <point x="179.1875" y="695.25" type="curve"/>
      <point x="380.625" y="695.25" type="line" smooth="yes"/>
      <point x="496.875" y="695.25"/>
      <point x="555.625" y="647.625"/>
      <point x="555.625" y="548.8125" type="curve"/>
      <point x="555.625" y="441.125"/>
      <point x="486.375" y="398.0625"/>
    </contour>
  </outline>
</glyph>
<glyph name="S" format="2">
  <advance width="623.1875"/>
  <unicode hex="0053"/>
  <anchor x="321.25" y="742.0" name="top"/>
  <anchor x="325.0" y="0.0" name="bottom"/>
  <outline>
    <contour>
      <point x="499.625" y="621.75" type="curve"/>
      <point x="499.625" y="621.75" type="line"/>
      <point x="506.125" y="614.3125"/>
      <point x="508.375" y="612.375"/>
      <point x="513.6875" y="616.5625" type="curve"/>
      <point x="541.125" y="640.25" type="line" smooth="yes"/>
      <point x="547.5625" y="645.5625"/>
      <point x="545.25" y="650.9375"/>
      <point x="541.125" y="655.25" type="curve"/>
      <point x="484.8125" y="715.5625"/>
      <point x="414.9375" y="752.0"/>
      <point x="320.3125" y="752.0" type="curve"/>
      <point x="180.0625" y="752.0"/>
      <point x="83.5625" y="678.75"/>
      <point x="83.5625" y="553.4375" type="curve"/>
      <point x="83.5625" y="486.875"/>
      <point x="116.4375" y="414.875"/>
      <point x="225.1875" y="374.5625" type="curve"/>
      <point x="376.25" y="317.875" type="line" smooth="yes"/>
      <point x="481.125" y="277.875"/>
      <point x="503.9375" y="238.1875"/>
      <point x="503.9375" y="181.375" type="curve"/>
      <point x="503.9375" y="78.75"/>
      <point x="426.875" y="39.0"/>
      <point x="310.75" y="39.0" type="curve"/>
      <point x="205.5" y="39.0"/>
      <point x="158.0625" y="75.125"/>
      <point x="102.8125" y="146.1875" type="curve"/>
      <point x="97.625" y="152.4375"/>
      <point x="92.1875" y="153.625"/>
      <point x="81.6875" y="146.3125" type="curve"/>
      <point x="64.9375" y="134.375" type="line" smooth="yes"/>
      <point x="54.6875" y="127.125"/>
      <point x="53.75" y="121.0"/>
      <point x="58.9375" y="113.5625" type="curve"/>
      <point x="117.1875" y="29.875"/>
      <point x="198.625" y="-10.0"/>
      <point x="311.8125" y="-10.0" type="curve"/>
      <point x="465.6875" y="-10.0"/>
      <point x="560.5625" y="61.625"/>
      <point x="560.5625" y="185.25" type="curve"/>
      <point x="560.5625" y="270.4375"/>
      <point x="516.625" y="331.9375"/>
      <point x="398.1875" y="374.1875" type="curve"/>
      <point x="258.4375" y="423.75" type="line" smooth="yes"/>
      <point x="155.0" y="461.0625"/>
      <point x="140.0625" y="518.625"/>
      <point x="140.0625" y="556.3125" type="curve"/>
      <point x="140.0625" y="650.6875"/>
      <point x="211.125" y="702.9375"/>
      <point x="318.0" y="702.9375" type="curve"/>
      <point x="401.625" y="702.9375"/>
      <point x="460.625" y="667.4375"/>
    </contour>
  </outline>
</glyph>
<glyph name="T" format="2">
  <advance width="628.0625"/>
  <unicode hex="0054"/>
  <anchor x="324.8125" y="742.0" name="top"/>
  <anchor x="324.8125" y="0.0" name="bottom"/>
  <outline>
    <contour>
      <point x="45.8125" y="734.0" type="curve"/>
      <point x="45.8125" y="702.1875" type="line"/>
      <point x="45.8125" y="695.6875"/>
      <point x="48.25" y="694.4375"/>
      <point x="54.75" y="694.4375" type="curve"/>
      <point x="285.125" y="694.4375" type="line" smooth="yes"/>
      <point x="293.125" y="694.4375"/>
      <point x="295.1875" y="693.25"/>
      <point x="295.1875" y="685.125" type="curve"/>
      <point x="295.1875" y="10.625" type="line" smooth="yes"/>
      <point x="295.1875" y="2.3125"/>
      <point x="297.5" y="0.0"/>
      <point x="305.6875" y="0.0" type="curve"/>
      <point x="342.875" y="0.0" type="line" smooth="yes"/>
      <point x="350.125" y="0.0"/>
      <point x="352.5" y="2.3125"/>
      <point x="352.5" y="10.75" type="curve"/>
      <point x="352.5" y="685.375" type="line" smooth="yes"/>
      <point x="352.5" y="693.3125"/>
      <point x="354.625" y="694.4375"/>
      <point x="362.625" y="694.4375" type="curve"/>
      <point x="573.375" y="694.4375" type="line" smooth="yes"/>
      <point x="579.8125" y="694.4375"/>
      <point x="582.25" y="695.6875"/>
      <point x="582.25" y="702.1875" type="curve"/>
      <point x="582.25" y="734.0" type="line" smooth="yes"/>
      <point x="582.25" y="739.5"/>
      <point x="579.875" y="742.0"/>
      <point x="574.125" y="742.0" type="curve"/>
      <point x="53.9375" y="742.0" type="line" smooth="yes"/>
      <point x="48.1875" y="742.0"/>
      <point x="45.8125" y="739.5"/>
    </contour>
  </outline>
</glyph>
<glyph name="U" format="2">
  <advance width="703.625"/>
  <unicode hex="0055"/>
  <anchor x="426.3125" y="9.0625" name="ogonek"/>
  <anchor x="356.625" y="742.0" name="top"/>
  <anchor x="636.75" y="742.0" name="topright"/>
  <anchor x="351.8125" y="0.0" name="bottom"/>
  <outline>
    <contour>
      <point x="603.375" y="233.9375" type="curve"/>
      <point x="603.375" y="233.9375" type="line"/>
      <point x="603.375" y="732.25" type="line" smooth="yes"/>
      <point x="603.375" y="738.6875"/>
      <point x="601.125" y="742.0"/>
      <point x="594.75" y="742.0" type="curve"/>
      <point x="562.875" y="742.0" type="line" smooth="yes"/>
      <point x="556.5" y="742.0"/>
      <point x="554.1875" y="738.6875"/>
      <point x="554.1875" y="732.125" type="curve"/>
      <point x="554.1875" y="232.9375" type="line" smooth="yes"/>
      <point x="554.1875" y="102.25"/>
      <point x="488.0" y="39.3125"/>
      <point x="354.75" y="39.3125" type="curve"/>
      <point x="223.0" y="39.3125"/>
      <point x="157.5625" y="101.6875"/>
      <point x="157.5625" y="229.9375" type="curve"/>
      <point x="157.5625" y="731.3125" type="line" smooth="yes"/>
      <point x="157.5625" y="739.625"/>
      <point x="155.3125" y="742.0"/>
      <point x="147.0625" y="742.0" type="curve"/>
      <point x="108.9375" y="742.0" type="line" smooth="yes"/>
      <point x="102.625" y="742.0"/>
      <point x="100.25" y="738.6875"/>
      <point x="100.25" y="730.25" type="curve"/>
      <point x="100.25" y="249.25" type="line" smooth="yes"/>
      <point x="100.25" y="73.0625"/>
      <point x="179.375" y="-10.0"/>
      <point x="351.8125" y="-10.0" type="curve"/>
      <point x="519.375" y="-10.0"/>
      <point x="603.375" y="68.5625"/>
    </contour>
  </outline>
</glyph>
<glyph name="V" format="2">
  <advance width="693.8125"/>
  <unicode hex="0056"/>
  <outline>
    <contour>
      <point x="634.8125" y="742.0" type="curve"/>
      <point x="634.8125" y="742.0" type="line"/>
      <point x="602.0625" y="742.0" type="line" smooth="yes"/>
      <point x="595.6875" y="742.0"/>
      <point x="592.1875" y="739.625"/>
      <point x="590.125" y="734.125" type="curve"/>
      <point x="353.5625" y="78.625" type="line" smooth="yes"/>
      <point x="348.6875" y="64.875"/>
      <point x="342.8125" y="64.875"/>
      <point x="337.9375" y="77.625" type="curve"/>
      <point x="107.375" y="733.1875" type="line" smooth="yes"/>
      <point x="105.25" y="739.625"/>
      <point x="101.875" y="742.0"/>
      <point x="93.625" y="742.0" type="curve"/>
      <point x="60.0" y="742.0" type="line" smooth="yes"/>
      <point x="52.4375" y="742.0"/>
      <point x="49.0625" y="737.375"/>
      <point x="51.3125" y="730.8125" type="curve"/>
      <point x="304.875" y="10.9375" type="line" smooth="yes"/>
      <point x="307.0625" y="3.3125"/>
      <point x="313.4375" y="0.0"/>
      <point x="325.0" y="0.0" type="curve"/>
      <point x="365.125" y="0.0" type="line" smooth="yes"/>
      <point x="374.8125" y="0.0"/>
      <point x="379.3125" y="3.3125"/>
      <point x="382.4375" y="11.875" type="curve"/>
      <point x="642.5625" y="731.75" type="line" smooth="yes"/>
      <point x="644.75" y="737.375"/>
      <point x="641.4375" y="742.0"/>
    </contour>
  </outline>
</glyph>
<glyph name="W" format="2">
  <advance width="1026.5"/>
  <unicode hex="0057"/>
  <anchor x="515.6875" y="742.0" name="top"/>
  <outline>
    <contour>
      <point x="965.75" y="742.0" type="curve"/>
      <point x="965.75" y="742.0" type="line"/>
      <point x="935.0625" y="742.0" type="line" smooth="yes"/>
      <point x="928.125" y="742.0"/>
      <point x="922.9375" y="739.625"/>
      <point x="921.8125" y="734.125" type="curve"/>
      <point x="738.25" y="88.6875" type="line" smooth="yes"/>
      <point x="734.375" y="75.0625"/>
      <point x="730.1875" y="75.1875"/>
      <point x="726.3125" y="87.875" type="curve"/>
      <point x="546.0" y="733.1875" type="line" smooth="yes"/>
      <point x="543.875" y="739.625"/>
      <point x="541.5625" y="742.0"/>
      <point x="532.75" y="742.0" type="curve"/>
      <point x="500.5625" y="742.0" type="line" smooth="yes"/>
      <point x="490.8125" y="742.0"/>
      <point x="487.5" y="737.75"/>
      <point x="486.375" y="734.125" type="curve"/>
      <point x="302.625" y="89.125" type="line" smooth="yes"/>
      <point x="298.6875" y="75.3125"/>
      <point x="294.625" y="75.3125"/>
      <point x="290.625" y="88.4375" type="curve"/>
      <point x="110.5625" y="733.1875" type="line" smooth="yes"/>
      <point x="108.4375" y="739.625"/>
      <point x="106.125" y="742.0"/>
      <point x="97.3125" y="742.0" type="curve"/>
      <point x="63.5625" y="742.0" type="line" smooth="yes"/>
      <point x="55.375" y="742.0"/>
      <point x="51.9375" y="737.1875"/>
      <point x="54.1875" y="730.125" type="curve"/>
      <point x="256.3125" y="10.9375" type="line" smooth="yes"/>
      <point x="258.5625" y="3.3125"/>
      <point x="264.8125" y="0.0"/>
      <point x="275.4375" y="0.0" type="curve"/>
      <point x="314.375" y="0.0" type="line" smooth="yes"/>
      <point x="325.0625" y="0.0"/>
      <point x="329.4375" y="3.3125"/>
      <point x="331.625" y="11.875" type="curve"/>
      <point x="511.5" y="640.3125" type="line" smooth="yes"/>
      <point x="512.875" y="645.3125"/>
      <point x="515.0625" y="645.1875"/>
      <point x="516.25" y="640.4375" type="curve"/>
      <point x="692.4375" y="10.9375" type="line" smooth="yes"/>
      <point x="694.625" y="3.3125"/>
      <point x="700.9375" y="0.0"/>
      <point x="711.5625" y="0.0" type="curve"/>
      <point x="750.1875" y="0.0" type="line" smooth="yes"/>
      <point x="760.8125" y="0.0"/>
      <point x="765.1875" y="3.3125"/>
      <point x="767.4375" y="11.875" type="curve"/>
      <point x="974.1875" y="731.0625" type="line" smooth="yes"/>
      <point x="975.5" y="737.1875"/>
      <point x="973.0" y="742.0"/>
    </contour>
  </outline>
</glyph>
<glyph name="X" format="2">
  <advance width="667.875"/>
  <unicode hex="0058"/>
  <outline>
    <contour>
      <point x="614.0" y="12.5625" type="curve"/>
      <point x="614.0" y="12.5625" type="line"/>
      <point x="370.8125" y="374.5625" type="line" smooth="yes"/>
      <point x="366.4375" y="381.125"/>
      <point x="367.3125" y="385.3125"/>
      <point x="371.625" y="391.8125" type="curve"/>
      <point x="602.8125" y="734.3125" type="line" smooth="yes"/>
      <point x="605.3125" y="738.0625"/>
      <point x="605.375" y="742.0"/>
      <point x="600.125" y="742.0" type="curve"/>
      <point x="552.0" y="742.0" type="line" smooth="yes"/>
      <point x="546.875" y="742.0"/>
      <point x="544.4375" y="740.625"/>
      <point x="542.0625" y="736.9375" type="curve"/>
      <point x="342.3125" y="439.0625" type="line" smooth="yes"/>
      <point x="335.375" y="429.0"/>
      <point x="331.0" y="429.9375"/>
      <point x="325.0" y="438.125" type="curve"/>
      <point x="125.25" y="736.9375" type="line" smooth="yes"/>
      <point x="122.875" y="740.625"/>
      <point x="121.3125" y="742.0"/>
      <point x="114.3125" y="742.0" type="curve"/>
      <point x="65.9375" y="742.0" type="line" smooth="yes"/>
      <point x="60.75" y="742.0"/>
      <point x="59.625" y="736.0625"/>
      <point x="62.125" y="732.3125" type="curve"/>
      <point x="292.25" y="391.0625" type="line" smooth="yes"/>
      <point x="297.5" y="382.625"/>
      <point x="298.5" y="376.625"/>
      <point x="293.1875" y="369.125" type="curve"/>
      <point x="54.0" y="12.5625" type="line" smooth="yes"/>
      <point x="47.6875" y="2.5625"/>
      <point x="50.25" y="0.0"/>
      <point x="57.625" y="0.0" type="curve"/>
      <point x="100.25" y="0.0" type="line" smooth="yes"/>
      <point x="104.3125" y="0.0"/>
      <point x="108.0625" y="1.25"/>
      <point x="110.4375" y="5.0" type="curve"/>
      <point x="320.625" y="316.8125" type="line" smooth="yes"/>
      <point x="330.6875" y="332.0625"/>
      <point x="334.8125" y="331.0625"/>
      <point x="342.0625" y="319.5625" type="curve"/>
      <point x="555.1875" y="5.0" type="line" smooth="yes"/>
      <point x="557.5625" y="1.3125"/>
      <point x="559.375" y="0.0"/>
      <point x="564.375" y="0.0" type="curve"/>
      <point x="609.375" y="0.0" type="line" smooth="yes"/>
      <point x="616.75" y="0.0"/>
      <point x="621.1875" y="2.625"/>
    </contour>
  </outline>
</glyph>
<glyph name="Y" format="2">
  <advance width="646.5"/>
  <unicode hex="0059"/>
  <anchor x="319.5625" y="742.0" name="top"/>
  <anchor x="323.25" y="0.0" name="bottom"/>
  <anchor x="20.0" y="742.0" name="topleft"/>
  <outline>
    <contour>
      <point x="591.4375" y="742.0" type="curve"/>
      <point x="591.4375" y="742.0" type="line"/>
      <point x="557.25" y="742.0" type="line" smooth="yes"/>
      <point x="547.625" y="742.0"/>
      <point x="545.3125" y="740.8125"/>
      <point x="540.125" y="732.25" type="curve"/>
      <point x="336.625" y="381.75" type="line" smooth="yes"/>
      <point x="328.6875" y="368.8125"/>
      <point x="321.875" y="367.9375"/>
      <point x="313.0625" y="383.6875" type="curve"/>
      <point x="108.5" y="732.25" type="line" smooth="yes"/>
      <point x="104.1875" y="739.8125"/>
      <point x="101.0625" y="742.0"/>
      <point x="91.375" y="742.0" type="curve"/>
      <point x="57.25" y="742.0" type="line" smooth="yes"/>
      <point x="46.5625" y="742.0"/>
      <point x="44.25" y="736.5625"/>
      <point x="48.625" y="729.0" type="curve"/>
      <point x="292.0" y="316.0625" type="line" smooth="yes"/>
      <point x="296.3125" y="308.5625"/>
      <point x="297.5625" y="305.25"/>
      <point x="297.5625" y="294.5625" type="curve"/>
      <point x="297.5625" y="11.875" type="line" smooth="yes"/>
      <point x="297.5625" y="4.25"/>
      <point x="300.75" y="0.0"/>
      <point x="310.4375" y="0.0" type="curve"/>
      <point x="338.75" y="0.0" type="line" smooth="yes"/>
      <point x="350.5" y="0.0"/>
      <point x="354.875" y="4.25"/>
      <point x="354.875" y="14.0" type="curve"/>
      <point x="354.875" y="304.0625" type="line" smooth="yes"/>
      <point x="354.875" y="316.0625"/>
      <point x="354.9375" y="320.4375"/>
      <point x="359.25" y="326.9375" type="curve"/>
      <point x="597.9375" y="730.25" type="line" smooth="yes"/>
      <point x="602.1875" y="736.6875"/>
      <point x="599.0625" y="742.0"/>
    </contour>
  </outline>
</glyph>
<glyph name="Z" format="2">
  <advance width="607.125"/>
  <unicode hex="005A"/>
  <anchor x="309.125" y="742.0" name="top"/>
  <anchor x="314.1875" y="0.0" name="bottom"/>
  <outline>
    <contour>
      <point x="62.3125" y="0.0" type="curve"/>
      <point x="62.3125" y="0.0" type="line"/>
      <point x="544.25" y="0.0" type="line" smooth="yes"/>
      <point x="550.0" y="0.0"/>
      <point x="552.3125" y="3.4375"/>
      <point x="552.3125" y="7.9375" type="curve"/>
      <point x="552.3125" y="42.0" type="line" smooth="yes"/>
      <point x="552.3125" y="46.625"/>
      <point x="549.9375" y="47.875"/>
      <point x="545.3125" y="47.875" type="curve"/>
      <point x="132.0625" y="47.875" type="line" smooth="yes"/>
      <point x="127.75" y="47.875"/>
      <point x="126.1875" y="50.875"/>
      <point x="129.4375" y="56.25" type="curve"/>
      <point x="546.9375" y="702.1875" type="line" smooth="yes"/>
      <point x="550.5625" y="708.0"/>
      <point x="552.6875" y="710.375"/>
      <point x="552.6875" y="716.0" type="curve"/>
      <point x="552.6875" y="735.125" type="line" smooth="yes"/>
      <point x="552.6875" y="739.625"/>
      <point x="550.375" y="742.0"/>
      <point x="545.875" y="742.0" type="curve"/>
      <point x="71.375" y="742.0" type="line" smooth="yes"/>
      <point x="66.9375" y="742.0"/>
      <point x="64.625" y="739.625"/>
      <point x="64.625" y="735.0625" type="curve"/>
      <point x="64.625" y="702.25" type="line" smooth="yes"/>
      <point x="64.625" y="696.4375"/>
      <point x="66.8125" y="694.1875"/>
      <point x="72.5625" y="694.1875" type="curve"/>
      <point x="469.75" y="694.1875" type="line" smooth="yes"/>
      <point x="475.3125" y="694.1875"/>
      <point x="477.3125" y="692.0"/>
      <point x="474.0625" y="686.625" type="curve"/>
      <point x="61.0625" y="44.125" type="line" smooth="yes"/>
      <point x="55.1875" y="35.875"/>
      <point x="53.1875" y="31.9375"/>
      <point x="53.1875" y="25.0" type="curve"/>
      <point x="53.1875" y="8.125" type="line" smooth="yes"/>
      <point x="53.1875" y="2.1875"/>
      <point x="55.4375" y="0.0"/>
    </contour>
  </outline>
</glyph>
<glyph name="bracketleft" format="2">
  <advance width="272.25"/>
  <unicode hex="005B"/>
  <outline>
    <contour>
      <point x="102.25" y="735.0" type="curve"/>
      <point x="102.25" y="735.0" type="line"/>
      <point x="103.1875" y="-155.875" type="line" smooth="yes"/>
      <point x="103.1875" y="-161.5625"/>
      <point x="106.6875" y="-165.0"/>
      <point x="113.4375" y="-165.0" type="curve"/>
      <point x="247.6875" y="-165.0" type="line" smooth="yes"/>
      <point x="254.125" y="-165.0"/>
      <point x="256.3125" y="-162.8125"/>
      <point x="256.3125" y="-156.375" type="curve"/>
      <point x="256.3125" y="-132.125" type="line" smooth="yes"/>
      <point x="256.3125" y="-126.75"/>
      <point x="253.125" y="-123.625"/>
      <point x="247.6875" y="-123.625" type="curve"/>
      <point x="159.4375" y="-123.625" type="line" smooth="yes"/>
      <point x="153.75" y="-123.625"/>
      <point x="152.5" y="-122.5"/>
      <point x="152.5" y="-116.6875" type="curve"/>
      <point x="153.4375" y="691.4375" type="line" smooth="yes"/>
      <point x="153.4375" y="697.3125"/>
      <point x="155.8125" y="700.625"/>
      <point x="161.5625" y="700.625" type="curve"/>
      <point x="249.75" y="700.625" type="line" smooth="yes"/>
      <point x="254.0625" y="700.625"/>
      <point x="257.25" y="702.8125"/>
      <point x="257.25" y="707.125" type="curve"/>
      <point x="257.25" y="736.5" type="line" smooth="yes"/>
      <point x="257.25" y="740.8125"/>
      <point x="255.125" y="742.0"/>
      <point x="249.75" y="742.0" type="curve"/>
      <point x="111.375" y="742.0" type="line" smooth="yes"/>
      <point x="104.5625" y="742.0"/>
      <point x="102.25" y="739.6875"/>
    </contour>
  </outline>
</glyph>
<glyph name="backslash" format="2">
  <advance width="331.25"/>
  <unicode hex="005C"/>
  <outline>
    <contour>
      <point x="276.1875" y="-56.25" type="curve"/>
      <point x="276.1875" y="-56.25" type="line"/>
      <point x="308.5625" y="-56.25" type="line" smooth="yes"/>
      <point x="314.1875" y="-56.25"/>
      <point x="315.4375" y="-53.9375"/>
      <point x="314.25" y="-50.375" type="curve"/>
      <point x="63.375" y="735.25" type="line" smooth="yes"/>
      <point x="62.1875" y="739.6875"/>
      <point x="58.75" y="742.0"/>
      <point x="54.25" y="742.0" type="curve"/>
      <point x="21.875" y="742.0" type="line" smooth="yes"/>
      <point x="15.0" y="742.0"/>
      <point x="13.75" y="738.5625"/>
      <point x="16.125" y="730.5625" type="curve"/>
      <point x="263.6875" y="-47.125" type="line" smooth="yes"/>
      <point x="266.0" y="-54.0"/>
      <point x="270.4375" y="-56.25"/>
    </contour>
  </outline>
</glyph>
<glyph name="asciicircum" format="2">
  <advance width="475.9375"/>
  <unicode hex="005E"/>
  <outline>
    <contour>
      <point x="242.375" y="453.0625" type="curve"/>
      <point x="363.5" y="144.0" type="line"/>
      <point x="365.5625" y="138.75"/>
      <point x="371.0" y="135.9375"/>
      <point x="377.375" y="135.9375" type="curve"/>
      <point x="410.4375" y="135.9375" type="line" smooth="yes"/>
      <point x="416.9375" y="135.9375"/>
      <point x="419.25" y="139.125"/>
      <point x="417.0" y="145.6875" type="curve"/>
      <point x="272.25" y="504.0625" type="line" smooth="yes"/>
      <point x="252.1875" y="553.9375"/>
      <point x="219.8125" y="550.0"/>
      <point x="201.6875" y="504.0" type="curve"/>
      <point x="58.8125" y="148.6875" type="line" smooth="yes"/>
      <point x="55.625" y="142.125"/>
      <point x="58.75" y="137.8125"/>
      <point x="64.1875" y="137.8125" type="curve"/>
      <point x="98.4375" y="137.8125" type="line" smooth="yes"/>
      <point x="103.9375" y="137.8125"/>
      <point x="107.3125" y="139.6875"/>
      <point x="109.4375" y="144.9375" type="curve"/>
      <point x="231.5" y="453.0625" type="line" smooth="yes"/>
      <point x="233.75" y="459.5625"/>
      <point x="239.1875" y="459.5625"/>
    </contour>
  </outline>
</glyph>
<glyph name="underscore" format="2">
  <advance width="504.8125"/>
  <unicode hex="005F"/>
  <outline>
    <contour>
      <point x="436.6875" y="-95.4375" type="curve"/>
      <point x="436.6875" y="-65.3125" type="line"/>
      <point x="436.6875" y="-60.8125"/>
      <point x="433.4375" y="-58.4375"/>
      <point x="429.0" y="-58.4375" type="curve"/>
      <point x="74.0" y="-59.375" type="line" smooth="yes"/>
      <point x="70.4375" y="-59.375"/>
      <point x="68.125" y="-61.75"/>
      <point x="68.125" y="-67.375" type="curve"/>
      <point x="68.125" y="-97.5" type="line" smooth="yes"/>
      <point x="68.125" y="-103.25"/>
      <point x="70.375" y="-105.625"/>
      <point x="77.25" y="-105.625" type="curve"/>
      <point x="425.25" y="-104.6875" type="line" smooth="yes"/>
      <point x="433.25" y="-104.6875"/>
      <point x="436.6875" y="-102.3125"/>
    </contour>
  </outline>
</glyph>
<glyph name="a" format="2">
  <advance width="540.1875"/>
  <unicode hex="0061"/>
  <anchor x="454.0" y="13.75" name="ogonek"/>
  <anchor x="269.5" y="0.0" name="bottom"/>
  <anchor x="267.3125" y="530.0" name="top"/>
  <outline>
    <contour>
      <point x="402.0625" y="70.125" type="curve"/>
      <point x="402.0625" y="70.125" type="line"/>
      <point x="407.8125" y="76.625"/>
      <point x="412.0625" y="75.625"/>
      <point x="413.125" y="68.25" type="curve"/>
      <point x="415.0625" y="10.625" type="line" smooth="yes"/>
      <point x="415.25" y="2.875"/>
      <point x="418.375" y="0.0"/>
      <point x="425.125" y="0.0" type="curve"/>
      <point x="450.5625" y="0.0" type="line" smooth="yes"/>
      <point x="457.375" y="0.0"/>
      <point x="461.375" y="2.3125"/>
      <point x="461.375" y="11.0625" type="curve"/>
      <point x="461.375" y="367.5" type="line" smooth="yes"/>
      <point x="461.375" y="474.875"/>
      <point x="388.5625" y="540.0"/>
      <point x="271.0625" y="540.0" type="curve"/>
      <point x="173.8125" y="540.0"/>
      <point x="105.3125" y="493.8125"/>
      <point x="64.0625" y="430.375" type="curve"/>
      <point x="59.75" y="424.125"/>
      <point x="61.0625" y="421.0"/>
      <point x="64.5" y="419.0" type="curve"/>
      <point x="95.1875" y="403.3125" type="line" smooth="yes"/>
      <point x="100.0625" y="400.3125"/>
      <point x="102.1875" y="402.375"/>
      <point x="106.25" y="407.75" type="curve"/>
      <point x="149.5" y="466.3125"/>
      <point x="202.1875" y="496.9375"/>
      <point x="268.625" y="496.9375" type="curve"/>
      <point x="355.5" y="496.9375"/>
      <point x="412.0" y="445.0"/>
      <point x="412.0" y="363.0" type="curve"/>
      <point x="412.0" y="332.875" type="line" smooth="yes"/>
      <point x="412.0" y="323.6875"/>
      <point x="405.75" y="318.875"/>
      <point x="395.125" y="317.9375" type="curve"/>
      <point x="296.25" y="309.5" type="line" smooth="yes"/>
      <point x="130.6875" y="296.375"/>
      <point x="45.5" y="237.0625"/>
      <point x="45.5" y="135.0625" type="curve"/>
      <point x="45.5" y="45.5"/>
      <point x="110.1875" y="-10.0"/>
      <point x="214.875" y="-10.0" type="curve"/>
      <point x="288.125" y="-10.0"/>
      <point x="348.25" y="16.6875"/>
    </contour>
    <contour>
      <point x="412.0" y="263.375" type="curve"/>
      <point x="412.0" y="263.375" type="line"/>
      <point x="412.0" y="171.0" type="line" smooth="yes"/>
      <point x="412.0" y="141.9375"/>
      <point x="392.5625" y="109.375"/>
      <point x="357.125" y="80.625" type="curve"/>
      <point x="320.8125" y="51.9375"/>
      <point x="273.75" y="33.5"/>
      <point x="226.1875" y="33.5" type="curve"/>
      <point x="148.0" y="33.5"/>
      <point x="97.0" y="73.125"/>
      <point x="97.0" y="139.5625" type="curve"/>
      <point x="97.0" y="215.25"/>
      <point x="165.0625" y="259.8125"/>
      <point x="314.25" y="271.0625" type="curve"/>
      <point x="397.9375" y="277.625" type="line" smooth="yes"/>
      <point x="407.125" y="278.5625"/>
      <point x="412.0" y="274.4375"/>
    </contour>
  </outline>
</glyph>
<glyph name="b" format="2">
  <advance width="593.5"/>
  <unicode hex="0062"/>
  <outline>
    <contour>
      <point x="99.875" y="0.0" type="curve"/>
      <point x="115.625" y="0.0" type="line"/>
      <point x="127.6875" y="0.0"/>
      <point x="131.0" y="3.25"/>
      <point x="131.3125" y="13.625" type="curve"/>
      <point x="134.1875" y="64.375" type="line" smooth="yes"/>
      <point x="134.375" y="73.3125"/>
      <point x="139.3125" y="74.3125"/>
      <point x="144.375" y="67.375" type="curve"/>
      <point x="158.0625" y="48.25"/>
      <point x="208.3125" y="-10.0"/>
      <point x="308.8125" y="-10.0" type="curve"/>
      <point x="452.9375" y="-10.0"/>
      <point x="536.75" y="96.1875"/>
      <point x="536.75" y="267.125" type="curve"/>
      <point x="536.75" y="417.25"/>
      <point x="472.0" y="540.0"/>
      <point x="320.4375" y="540.0" type="curve"/>
      <point x="218.25" y="540.0"/>
      <point x="163.1875" y="484.8125"/>
      <point x="151.25" y="473.9375" type="curve"/>
      <point x="142.1875" y="465.9375"/>
      <point x="137.875" y="465.9375"/>
      <point x="137.875" y="479.125" type="curve"/>
      <point x="137.875" y="730.375" type="line" smooth="yes"/>
      <point x="137.875" y="738.6875"/>
      <point x="135.625" y="742.0"/>
      <point x="129.25" y="742.0" type="curve"/>
      <point x="97.5" y="742.0" type="line" smooth="yes"/>
      <point x="91.1875" y="742.0"/>
      <point x="87.875" y="738.6875"/>
      <point x="87.875" y="731.1875" type="curve"/>
      <point x="87.875" y="13.75" type="line" smooth="yes"/>
      <point x="87.875" y="3.3125"/>
      <point x="91.0625" y="0.0"/>
    </contour>
    <contour>
      <point x="137.875" y="177.5" type="curve"/>
      <point x="137.875" y="412.6875" type="line"/>
      <point x="176.625" y="459.25"/>
      <point x="238.0625" y="496.75"/>
      <point x="309.375" y="496.75" type="curve"/>
      <point x="423.0625" y="496.75"/>
      <point x="483.8125" y="407.25"/>
      <point x="483.8125" y="266.875" type="curve"/>
      <point x="483.8125" y="105.8125"/>
      <point x="402.4375" y="32.9375"/>
      <point x="301.6875" y="32.9375" type="curve"/>
      <point x="220.3125" y="32.9375"/>
      <point x="137.875" y="98.4375"/>
    </contour>
  </outline>
</glyph>
<glyph name="c" format="2">
  <advance width="538.1875"/>
  <unicode hex="0063"/>
  <anchor x="295.1875" y="530.0" name="top"/>
  <anchor x="297.0" y="0.0" name="bottom"/>
  <outline>
    <contour>
      <point x="296.125" y="540.0" type="curve"/>
      <point x="296.125" y="540.0" type="line"/>
      <point x="154.0625" y="540.0"/>
      <point x="53.8125" y="425.1875"/>
      <point x="53.8125" y="263.0" type="curve"/>
      <point x="53.8125" y="100.0625"/>
      <point x="152.0625" y="-10.0"/>
      <point x="296.125" y="-10.0" type="curve"/>
      <point x="385.9375" y="-10.0"/>
      <point x="457.5625" y="33.75"/>
      <point x="503.1875" y="110.125" type="curve"/>
      <point x="505.3125" y="114.8125"/>
      <point x="504.25" y="118.9375"/>
      <point x="500.75" y="120.9375" type="curve"/>
      <point x="473.3125" y="136.125" type="line" smooth="yes"/>
      <point x="468.75" y="139.0625"/>
      <point x="466.625" y="138.0"/>
      <point x="462.6875" y="132.0625" type="curve"/>
      <point x="419.875" y="65.5"/>
      <point x="368.0625" y="33.375"/>
      <point x="300.875" y="33.375" type="curve"/>
      <point x="182.9375" y="33.375"/>
      <point x="105.8125" y="124.9375"/>
      <point x="105.8125" y="265.0" type="curve"/>
      <point x="105.8125" y="404.8125"/>
      <point x="182.75" y="496.5"/>
      <point x="301.125" y="496.5" type="curve"/>
      <point x="356.625" y="496.5"/>
      <point x="399.375" y="471.625"/>
      <point x="451.1875" y="407.25" type="curve"/>
      <point x="455.0625" y="401.875"/>
      <point x="459.0625" y="400.6875"/>
      <point x="462.5625" y="402.625" type="curve"/>
      <point x="493.625" y="418.0625" type="line" smooth="yes"/>
      <point x="497.5" y="420.0"/>
      <point x="498.8125" y="422.375"/>
      <point x="494.75" y="429.0625" type="curve"/>
      <point x="450.625" y="495.75"/>
      <point x="388.5" y="540.0"/>
    </contour>
  </outline>
</glyph>
<glyph name="d" format="2">
  <advance width="593.5"/>
  <unicode hex="0064"/>
  <anchor x="313.5625" y="265.0" name="center"/>
  <anchor x="302.3125" y="0.0" name="bottom"/>
  <anchor x="624.875" y="728.75" name="topright"/>
  <outline>
    <contour>
      <point x="468.625" y="0.0" type="curve"/>
      <point x="468.625" y="0.0" type="line"/>
      <point x="492.6875" y="0.0" type="line" smooth="yes"/>
      <point x="502.4375" y="0.0"/>
      <point x="505.625" y="3.3125"/>
      <point x="505.625" y="12.8125" type="curve"/>
      <point x="505.625" y="732.125" type="line" smooth="yes"/>
      <point x="505.625" y="738.6875"/>
      <point x="502.3125" y="742.0"/>
      <point x="496.9375" y="742.0" type="curve"/>
      <point x="465.25" y="742.0" type="line" smooth="yes"/>
      <point x="457.9375" y="742.0"/>
      <point x="455.6875" y="738.6875"/>
      <point x="455.6875" y="731.3125" type="curve"/>
      <point x="455.6875" y="493.1875" type="line" smooth="yes"/>
      <point x="455.6875" y="480.0"/>
      <point x="453.25" y="476.25"/>
      <point x="441.375" y="486.125" type="curve"/>
      <point x="409.75" y="511.125"/>
      <point x="367.0625" y="540.0"/>
      <point x="295.8125" y="540.0" type="curve"/>
      <point x="151.125" y="540.0"/>
      <point x="54.875" y="425.375"/>
      <point x="54.875" y="255.5" type="curve"/>
      <point x="54.875" y="78.25"/>
      <point x="156.5625" y="-10.0"/>
      <point x="283.9375" y="-10.0" type="curve"/>
      <point x="377.8125" y="-10.0"/>
      <point x="428.0625" y="46.5625"/>
      <point x="445.5" y="64.75" type="curve"/>
      <point x="453.4375" y="72.625"/>
      <point x="457.6875" y="71.625"/>
      <point x="457.6875" y="60.75" type="curve"/>
      <point x="457.6875" y="11.75" type="line" smooth="yes"/>
      <point x="457.6875" y="4.125"/>
      <point x="461.25" y="0.0"/>
    </contour>
    <contour>
      <point x="455.625" y="423.0" type="curve"/>
      <point x="455.625" y="423.0" type="line"/>
      <point x="455.625" y="170.375" type="line" smooth="yes"/>
      <point x="455.625" y="111.6875"/>
      <point x="386.1875" y="33.125"/>
      <point x="293.75" y="33.125" type="curve"/>
      <point x="194.9375" y="33.125"/>
      <point x="106.875" y="103.0625"/>
      <point x="106.875" y="259.3125" type="curve"/>
      <point x="106.875" y="409.0625"/>
      <point x="188.625" y="496.625"/>
      <point x="301.25" y="496.625" type="curve"/>
      <point x="360.375" y="496.625"/>
      <point x="408.375" y="469.5625"/>
    </contour>
  </outline>
</glyph>
<glyph name="e" format="2">
  <advance width="577.8125"/>
  <unicode hex="0065"/>
  <anchor x="395.5" y="18.5" name="ogonek"/>
  <anchor x="300.25" y="0.0" name="bottom"/>
  <anchor x="297.25" y="530.0" name="top"/>
  <outline>
    <contour>
      <point x="106.0625" y="238.25" type="curve"/>
      <point x="106.0625" y="238.25" type="line"/>
      <point x="106.0625" y="245.5625"/>
      <point x="108.25" y="252.4375"/>
      <point x="112.625" y="252.4375" type="curve"/>
      <point x="517.375" y="252.4375" type="line" smooth="yes"/>
      <point x="532.5" y="252.5"/>
      <point x="530.6875" y="264.1875"/>
      <point x="530.6875" y="272.75" type="curve"/>
      <point x="530.6875" y="441.5625"/>
      <point x="441.0" y="540.0"/>
      <point x="299.0" y="540.0" type="curve"/>
      <point x="157.5625" y="540.0"/>
      <point x="53.8125" y="435.375"/>
      <point x="53.8125" y="260.6875" type="curve"/>
      <point x="53.8125" y="99.9375"/>
      <point x="154.25" y="-10.0"/>
      <point x="299.25" y="-10.0" type="curve"/>
      <point x="394.375" y="-10.0"/>
      <point x="464.25" y="26.375"/>
      <point x="511.875" y="101.125" type="curve"/>
      <point x="515.25" y="105.5625"/>
      <point x="514.125" y="109.875"/>
      <point x="510.6875" y="112.0" type="curve"/>
      <point x="483.4375" y="128.375" type="line" smooth="yes"/>
      <point x="478.875" y="131.5"/>
      <point x="475.875" y="130.5"/>
      <point x="471.8125" y="124.5625" type="curve"/>
      <point x="435.3125" y="65.625"/>
      <point x="378.0625" y="33.875"/>
      <point x="300.9375" y="33.875" type="curve"/>
      <point x="192.3125" y="33.875"/>
      <point x="106.0625" y="128.5"/>
    </contour>
    <contour>
      <point x="462.1875" y="292.625" type="curve"/>
      <point x="107.1875" y="292.6875" type="line"/>
      <point x="106.1875" y="390.3125"/>
      <point x="172.3125" y="497.0625"/>
      <point x="298.625" y="497.0625" type="curve"/>
      <point x="410.5" y="497.0625"/>
      <point x="479.1875" y="411.375"/>
      <point x="479.1875" y="306.625" type="curve"/>
      <point x="479.1875" y="295.5625"/>
      <point x="476.125" y="292.625"/>
    </contour>
  </outline>
</glyph>
<glyph name="f" format="2">
  <advance width="367.375"/>
  <unicode hex="0066"/>
  <outline>
    <contour>
      <point x="335.625" y="530.0" type="curve"/>
      <point x="335.625" y="530.0" type="line"/>
      <point x="206.0625" y="530.0" type="line" smooth="yes"/>
      <point x="200.875" y="530.0"/>
      <point x="198.6875" y="532.0625"/>
      <point x="198.6875" y="537.375" type="curve"/>
      <point x="198.6875" y="622.875" type="line" smooth="yes"/>
      <point x="198.6875" y="672.4375"/>
      <point x="212.25" y="701.0625"/>
      <point x="260.5625" y="701.0625" type="curve"/>
      <point x="338.25" y="701.0625" type="line" smooth="yes"/>
      <point x="343.6875" y="701.0625"/>
      <point x="346.875" y="703.5"/>
      <point x="346.875" y="708.875" type="curve"/>
      <point x="346.8125" y="733.8125" type="line" smooth="yes"/>
      <point x="346.8125" y="739.5"/>
      <point x="344.3125" y="742.0"/>
      <point x="339.375" y="742.0" type="curve"/>
      <point x="264.8125" y="742.0" type="line" smooth="yes"/>
      <point x="183.75" y="742.0"/>
      <point x="149.0" y="699.25"/>
      <point x="149.0" y="616.9375" type="curve"/>
      <point x="149.0" y="537.6875" type="line" smooth="yes"/>
      <point x="149.0" y="532.1875"/>
      <point x="146.9375" y="530.0"/>
      <point x="141.5625" y="530.0" type="curve"/>
      <point x="32.625" y="530.0" type="line" smooth="yes"/>
      <point x="27.8125" y="530.0"/>
      <point x="25.5" y="527.5"/>
      <point x="25.5" y="523.0" type="curve"/>
      <point x="25.5" y="495.5625" type="line" smooth="yes"/>
      <point x="25.5" y="490.9375"/>
      <point x="27.875" y="488.75"/>
      <point x="32.5" y="488.75" type="curve"/>
      <point x="142.875" y="488.75" type="line" smooth="yes"/>
      <point x="147.0" y="488.75"/>
      <point x="149.0" y="485.75"/>
      <point x="149.0" y="481.5625" type="curve"/>
      <point x="149.0" y="10.625" type="line" smooth="yes"/>
      <point x="149.0" y="3.25"/>
      <point x="151.3125" y="0.0"/>
      <point x="157.625" y="0.0" type="curve"/>
      <point x="189.375" y="0.0" type="line" smooth="yes"/>
      <point x="195.75" y="0.0"/>
      <point x="199.0" y="3.25"/>
      <point x="199.0" y="11.6875" type="curve"/>
      <point x="199.0" y="481.4375" type="line" smooth="yes"/>
      <point x="199.0" y="486.625"/>
      <point x="201.1875" y="488.75"/>
      <point x="206.3125" y="488.75" type="curve"/>
      <point x="334.875" y="488.75" type="line" smooth="yes"/>
      <point x="339.4375" y="488.75"/>
      <point x="341.875" y="490.9375"/>
      <point x="341.875" y="495.5625" type="curve"/>
      <point x="341.875" y="523.0" type="line" smooth="yes"/>
      <point x="341.875" y="527.5"/>
      <point x="339.5" y="530.0"/>
    </contour>
  </outline>
</glyph>
<glyph name="g" format="2">
  <advance width="586.4375"/>
  <unicode hex="0067"/>
  <anchor x="284.4375" y="530.0" name="top"/>
  <outline>
    <contour>
      <point x="538.125" y="532.0" type="curve"/>
      <point x="538.125" y="532.0" type="line"/>
      <point x="502.5625" y="532.0"/>
      <point x="470.9375" y="508.6875"/>
      <point x="450.5" y="492.25" type="curve"/>
      <point x="443.5" y="486.9375"/>
      <point x="438.875" y="486.875"/>
      <point x="431.6875" y="493.0" type="curve"/>
      <point x="397.75" y="521.8125"/>
      <point x="353.8125" y="538.0"/>
      <point x="287.1875" y="538.0" type="curve"/>
      <point x="152.25" y="538.0"/>
      <point x="73.4375" y="474.625"/>
      <point x="73.4375" y="369.25" type="curve"/>
      <point x="73.4375" y="307.3125"/>
      <point x="98.3125" y="265.9375"/>
      <point x="154.0" y="235.125" type="curve"/>
      <point x="161.1875" y="231.0"/>
      <point x="162.625" y="225.1875"/>
      <point x="154.75" y="223.125" type="curve"/>
      <point x="104.5" y="206.6875"/>
      <point x="85.125" y="180.25"/>
      <point x="85.125" y="156.6875" type="curve"/>
      <point x="85.125" y="133.5"/>
      <point x="97.375" y="116.9375"/>
      <point x="124.875" y="104.625" type="curve"/>
      <point x="131.9375" y="101.5625"/>
      <point x="132.0625" y="97.5625"/>
      <point x="124.875" y="93.625" type="curve"/>
      <point x="62.5" y="59.875"/>
      <point x="32.5625" y="19.1875"/>
      <point x="32.5625" y="-28.625" type="curve"/>
      <point x="32.5625" y="-121.0625"/>
      <point x="119.5625" y="-175.0"/>
      <point x="277.0" y="-175.0" type="curve"/>
      <point x="431.125" y="-175.0"/>
      <point x="520.0" y="-117.75"/>
      <point x="520.0" y="-17.625" type="curve"/>
      <point x="520.0" y="61.5625"/>
      <point x="471.8125" y="112.0625"/>
      <point x="362.25" y="118.25" type="curve"/>
      <point x="240.25" y="125.375" type="line" smooth="yes"/>
      <point x="166.25" y="129.25"/>
      <point x="135.3125" y="137.9375"/>
      <point x="135.3125" y="161.375" type="curve"/>
      <point x="135.3125" y="184.875"/>
      <point x="167.9375" y="209.0"/>
      <point x="279.875" y="209.0" type="curve"/>
      <point x="422.5625" y="209.0"/>
      <point x="485.3125" y="280.25"/>
      <point x="485.3125" y="369.3125" type="curve"/>
      <point x="485.3125" y="409.3125"/>
      <point x="472.0625" y="431.5625"/>
      <point x="465.3125" y="448.125" type="curve"/>
      <point x="462.25" y="455.5625"/>
      <point x="467.25" y="461.75"/>
      <point x="485.3125" y="471.125" type="curve"/>
      <point x="501.0625" y="479.5625"/>
      <point x="514.4375" y="483.125"/>
      <point x="539.625" y="483.8125" type="curve"/>
      <point x="553.6875" y="484.4375"/>
      <point x="557.1875" y="490.5625"/>
      <point x="557.1875" y="500.4375" type="curve"/>
      <point x="557.1875" y="518.25" type="line" smooth="yes"/>
      <point x="557.1875" y="527.8125"/>
      <point x="552.875" y="532.0"/>
    </contour>
    <contour>
      <point x="280.6875" y="250.3125" type="curve"/>
      <point x="280.6875" y="250.3125" type="line"/>
      <point x="179.125" y="250.3125"/>
      <point x="122.0625" y="292.75"/>
      <point x="122.0625" y="370.9375" type="curve"/>
      <point x="122.0625" y="450.375"/>
      <point x="180.0625" y="496.5625"/>
      <point x="280.6875" y="496.5625" type="curve"/>
      <point x="383.5625" y="496.5625"/>
      <point x="436.5" y="451.3125"/>
      <point x="436.5" y="370.9375" type="curve"/>
      <point x="436.5" y="291.875"/>
      <point x="385.4375" y="250.3125"/>
    </contour>
    <contour>
      <point x="185.6875" y="81.125" type="curve"/>
      <point x="359.75" y="70.4375" type="line"/>
      <point x="441.1875" y="65.625"/>
      <point x="469.8125" y="32.75"/>
      <point x="469.8125" y="-20.0" type="curve"/>
      <point x="469.8125" y="-98.6875"/>
      <point x="405.3125" y="-133.8125"/>
      <point x="286.0625" y="-133.8125" type="curve"/>
      <point x="155.4375" y="-133.8125"/>
      <point x="82.0" y="-94.0"/>
      <point x="82.0" y="-23.25" type="curve"/>
      <point x="82.0" y="39.9375"/>
      <point x="153.0" y="83.125"/>
    </contour>
  </outline>
</glyph>
<glyph name="h" format="2">
  <advance width="577.8125"/>
  <unicode hex="0068"/>
  <anchor x="332.5" y="530.0" name="top"/>
  <anchor x="303.1875" y="0.0" name="bottom"/>
  <outline>
    <contour>
      <point x="98.0" y="0.0" type="curve"/>
      <point x="98.0" y="0.0" type="line"/>
      <point x="127.4375" y="0.0" type="line" smooth="yes"/>
      <point x="134.5625" y="0.0"/>
      <point x="137.9375" y="3.3125"/>
      <point x="137.9375" y="10.25" type="curve"/>
      <point x="137.9375" y="406.1875" type="line"/>
      <point x="214.125" y="465.5"/>
      <point x="259.6875" y="495.5625"/>
      <point x="328.1875" y="495.5625" type="curve"/>
      <point x="411.75" y="495.5625"/>
      <point x="446.75" y="450.375"/>
      <point x="446.75" y="375.375" type="curve"/>
      <point x="446.75" y="10.0" type="line" smooth="yes"/>
      <point x="446.75" y="3.1875"/>
      <point x="449.9375" y="0.0"/>
      <point x="456.625" y="0.0" type="curve"/>
      <point x="486.4375" y="0.0" type="line" smooth="yes"/>
      <point x="493.375" y="0.0"/>
      <point x="496.75" y="3.4375"/>
      <point x="496.75" y="11.25" type="curve"/>
      <point x="496.75" y="391.875" type="line" smooth="yes"/>
      <point x="496.75" y="480.0625"/>
      <point x="441.625" y="540.0"/>
      <point x="335.125" y="540.0" type="curve"/>
      <point x="263.375" y="540.0"/>
      <point x="218.0625" y="511.75"/>
      <point x="143.25" y="457.6875" type="curve"/>
      <point x="137.125" y="452.5625"/>
      <point x="134.9375" y="453.6875"/>
      <point x="134.9375" y="460.75" type="curve"/>
      <point x="134.9375" y="733.1875" type="line" smooth="yes"/>
      <point x="134.9375" y="739.625"/>
      <point x="132.6875" y="742.0"/>
      <point x="126.3125" y="742.0" type="curve"/>
      <point x="96.625" y="742.0" type="line" smooth="yes"/>
      <point x="90.25" y="742.0"/>
      <point x="87.9375" y="738.625"/>
      <point x="87.9375" y="732.125" type="curve"/>
      <point x="87.9375" y="10.0" type="line" smooth="yes"/>
      <point x="87.9375" y="3.25"/>
      <point x="91.1875" y="0.0"/>
    </contour>
  </outline>
</glyph>
<glyph name="i" format="2">
  <advance width="225.75"/>
  <unicode hex="0069"/>
  <outline>
    <contour>
      <point x="137.875" y="13.0625" type="curve"/>
      <point x="137.875" y="519.375" type="line"/>
      <point x="137.875" y="527.625"/>
      <point x="135.5625" y="530.0"/>
      <point x="128.3125" y="530.0" type="curve"/>
      <point x="97.5" y="530.0" type="line" smooth="yes"/>
      <point x="90.1875" y="530.0"/>
      <point x="87.875" y="527.625"/>
      <point x="87.875" y="519.1875" type="curve"/>
      <point x="87.875" y="10.9375" type="line" smooth="yes"/>
      <point x="87.875" y="2.375"/>
      <point x="90.125" y="0.0"/>
      <point x="99.8125" y="0.0" type="curve"/>
      <point x="124.5625" y="0.0" type="line" smooth="yes"/>
      <point x="135.375" y="0.0"/>
      <point x="137.875" y="2.375"/>
    </contour>
    <contour>
      <point x="142.5625" y="656.4375" type="curve"/>
      <point x="142.5625" y="728.5" type="line"/>
      <point x="142.5625" y="736.8125"/>
      <point x="137.4375" y="742.0"/>
      <point x="130.1875" y="742.0" type="curve"/>
      <point x="95.625" y="742.0" type="line" smooth="yes"/>
      <point x="88.3125" y="742.0"/>
      <point x="83.1875" y="736.8125"/>
      <point x="83.1875" y="728.375" type="curve"/>
      <point x="83.1875" y="654.375" type="line" smooth="yes"/>
      <point x="83.1875" y="645.8125"/>
      <point x="85.4375" y="639.625"/>
      <point x="95.125" y="639.625" type="curve"/>
      <point x="129.25" y="639.625" type="line" smooth="yes"/>
      <point x="140.0625" y="639.625"/>
      <point x="142.5625" y="645.8125"/>
    </contour>
  </outline>
</glyph>
<glyph name="j" format="2">
  <advance width="225.8125"/>
  <unicode hex="006A"/>
  <outline>
    <contour>
      <point x="137.9375" y="-46.0" type="curve"/>
      <point x="137.9375" y="-46.0" type="line"/>
      <point x="137.9375" y="519.375" type="line" smooth="yes"/>
      <point x="137.9375" y="526.6875"/>
      <point x="135.6875" y="530.0"/>
      <point x="129.3125" y="530.0" type="curve"/>
      <point x="98.5625" y="530.0" type="line" smooth="yes"/>
      <point x="91.25" y="530.0"/>
      <point x="87.9375" y="526.6875"/>
      <point x="87.9375" y="519.1875" type="curve"/>
      <point x="87.9375" y="-40.875" type="line" smooth="yes"/>
      <point x="87.9375" y="-103.0"/>
      <point x="67.5625" y="-124.125"/>
      <point x="17.0625" y="-125.3125" type="curve"/>
      <point x="-39.5" y="-126.625" type="line" smooth="yes"/>
      <point x="-44.0625" y="-126.8125"/>
      <point x="-46.375" y="-129.5"/>
      <point x="-46.375" y="-133.9375" type="curve"/>
      <point x="-46.3125" y="-160.0" type="line" smooth="yes"/>
      <point x="-46.3125" y="-168.8125"/>
      <point x="-39.9375" y="-170.0"/>
      <point x="18.875" y="-170.0" type="curve"/>
      <point x="113.0625" y="-170.0"/>
      <point x="137.9375" y="-131.125"/>
    </contour>
    <contour>
      <point x="142.625" y="656.4375" type="curve"/>
      <point x="142.625" y="728.5" type="line"/>
      <point x="142.625" y="736.8125"/>
      <point x="137.5625" y="742.0"/>
      <point x="130.25" y="742.0" type="curve"/>
      <point x="95.75" y="742.0" type="line" smooth="yes"/>
      <point x="88.4375" y="742.0"/>
      <point x="83.25" y="736.8125"/>
      <point x="83.25" y="728.375" type="curve"/>
      <point x="83.25" y="654.375" type="line" smooth="yes"/>
      <point x="83.25" y="645.8125"/>
      <point x="85.5625" y="639.625"/>
      <point x="95.25" y="639.625" type="curve"/>
      <point x="129.375" y="639.625" type="line" smooth="yes"/>
      <point x="140.1875" y="639.625"/>
      <point x="142.625" y="645.8125"/>
    </contour>
  </outline>
</glyph>
<glyph name="l" format="2">
  <advance width="225.875"/>
  <unicode hex="006C"/>
  <anchor x="113.1875" y="742.0" name="top"/>
  <anchor x="113.1875" y="0.0" name="bottom"/>
  <anchor x="260.8125" y="728.75" name="topright"/>
  <outline>
    <contour>
      <point x="137.9375" y="13.0625" type="curve"/>
      <point x="137.9375" y="731.3125" type="line"/>
      <point x="137.9375" y="739.625"/>
      <point x="135.625" y="742.0"/>
      <point x="128.375" y="742.0" type="curve"/>
      <point x="97.75" y="742.0" type="line" smooth="yes"/>
      <point x="90.4375" y="742.0"/>
      <point x="88.125" y="739.625"/>
      <point x="88.125" y="731.1875" type="curve"/>
      <point x="87.8125" y="10.9375" type="line" smooth="yes"/>
      <point x="87.8125" y="2.375"/>
      <point x="90.125" y="0.0"/>
      <point x="99.8125" y="0.0" type="curve"/>
      <point x="124.625" y="0.0" type="line" smooth="yes"/>
      <point x="135.4375" y="0.0"/>
      <point x="137.9375" y="2.375"/>
    </contour>
  </outline>
</glyph>
<glyph name="m" format="2">
  <advance width="898.9375"/>
  <unicode hex="006D"/>
  <guideline x="274.3125" y="446.3125" angle="90.0"/>
  <outline>
    <contour>
      <point x="97.9375" y="0.0" type="curve"/>
      <point x="97.9375" y="0.0" type="line"/>
      <point x="127.375" y="0.0" type="line" smooth="yes"/>
      <point x="134.5" y="0.0"/>
      <point x="137.875" y="3.3125"/>
      <point x="137.875" y="10.25" type="curve"/>
      <point x="137.875" y="406.1875" type="line"/>
      <point x="210.3125" y="465.5"/>
      <point x="254.0625" y="495.5625"/>
      <point x="318.75" y="495.5625" type="curve"/>
      <point x="395.75" y="495.5625"/>
      <point x="427.9375" y="450.375"/>
      <point x="427.9375" y="375.375" type="curve"/>
      <point x="427.9375" y="10.0" type="line" smooth="yes"/>
      <point x="427.9375" y="3.1875"/>
      <point x="432.125" y="0.0"/>
      <point x="437.8125" y="0.0" type="curve"/>
      <point x="467.5625" y="0.0" type="line" smooth="yes"/>
      <point x="473.5625" y="0.0"/>
      <point x="477.875" y="3.4375"/>
      <point x="477.875" y="11.25" type="curve"/>
      <point x="477.875" y="389.25" type="line" smooth="yes"/>
      <point x="477.875" y="402.9375"/>
      <point x="482.625" y="409.0625"/>
      <point x="494.3125" y="419.0625" type="curve"/>
      <point x="531.8125" y="450.375"/>
      <point x="588.75" y="495.5625"/>
      <point x="658.75" y="495.5625" type="curve"/>
      <point x="735.6875" y="495.5625"/>
      <point x="767.9375" y="450.375"/>
      <point x="767.9375" y="375.375" type="curve"/>
      <point x="767.9375" y="10.0" type="line" smooth="yes"/>
      <point x="767.9375" y="3.1875"/>
      <point x="771.125" y="0.0"/>
      <point x="777.8125" y="0.0" type="curve"/>
      <point x="807.5625" y="0.0" type="line" smooth="yes"/>
      <point x="814.5" y="0.0"/>
      <point x="817.9375" y="3.4375"/>
      <point x="817.9375" y="11.25" type="curve"/>
      <point x="817.9375" y="391.75" type="line" smooth="yes"/>
      <point x="817.9375" y="480.0"/>
      <point x="765.1875" y="540.0"/>
      <point x="665.8125" y="540.0" type="curve"/>
      <point x="597.375" y="540.0"/>
      <point x="552.3125" y="510.125"/>
      <point x="482.5" y="456.3125" type="curve"/>
      <point x="476.5625" y="451.25"/>
      <point x="469.6875" y="447.5"/>
      <point x="467.6875" y="453.4375" type="curve"/>
      <point x="454.0625" y="494.8125"/>
      <point x="408.625" y="540.0625"/>
      <point x="325.6875" y="540.0625" type="curve"/>
      <point x="257.1875" y="540.0625"/>
      <point x="213.375" y="510.75"/>
      <point x="143.1875" y="457.25" type="curve"/>
      <point x="137.0625" y="452.0625"/>
      <point x="134.875" y="453.25"/>
      <point x="134.875" y="460.3125" type="curve"/>
      <point x="134.875" y="521.25" type="line" smooth="yes"/>
      <point x="134.875" y="527.625"/>
      <point x="132.625" y="530.0"/>
      <point x="126.25" y="530.0" type="curve"/>
      <point x="96.5625" y="530.0" type="line" smooth="yes"/>
      <point x="90.25" y="530.0"/>
      <point x="87.875" y="526.625"/>
      <point x="87.875" y="520.125" type="curve"/>
      <point x="87.875" y="10.0" type="line" smooth="yes"/>
      <point x="87.875" y="3.25"/>
      <point x="91.125" y="0.0"/>
    </contour>
  </outline>
</glyph>
<glyph name="n" format="2">
  <advance width="577.75"/>
  <unicode hex="006E"/>
  <anchor x="303.0625" y="530.0" name="top"/>
  <anchor x="293.6875" y="0.0" name="bottom"/>
  <outline>
    <contour>
      <point x="97.9375" y="0.0" type="curve"/>
      <point x="97.9375" y="0.0" type="line"/>
      <point x="127.375" y="0.0" type="line" smooth="yes"/>
      <point x="134.5" y="0.0"/>
      <point x="137.875" y="3.3125"/>
      <point x="137.875" y="10.25" type="curve"/>
      <point x="137.875" y="406.1875" type="line"/>
      <point x="214.0625" y="465.5"/>
      <point x="259.625" y="495.5625"/>
      <point x="328.125" y="495.5625" type="curve"/>
      <point x="411.6875" y="495.5625"/>
      <point x="446.75" y="450.375"/>
      <point x="446.75" y="375.375" type="curve"/>
      <point x="446.75" y="10.0" type="line" smooth="yes"/>
      <point x="446.75" y="3.1875"/>
      <point x="449.9375" y="0.0"/>
      <point x="456.625" y="0.0" type="curve"/>
      <point x="486.4375" y="0.0" type="line" smooth="yes"/>
      <point x="493.375" y="0.0"/>
      <point x="496.75" y="3.4375"/>
      <point x="496.75" y="11.25" type="curve"/>
      <point x="496.75" y="392.0625" type="line" smooth="yes"/>
      <point x="496.75" y="479.8125"/>
      <point x="441.1875" y="540.0"/>
      <point x="335.0625" y="540.0" type="curve"/>
      <point x="262.75" y="540.0"/>
      <point x="217.125" y="510.75"/>
      <point x="143.25" y="457.25" type="curve"/>
      <point x="137.125" y="452.0625"/>
      <point x="134.9375" y="453.25"/>
      <point x="134.9375" y="460.3125" type="curve"/>
      <point x="134.9375" y="521.25" type="line" smooth="yes"/>
      <point x="134.9375" y="527.625"/>
      <point x="132.6875" y="530.0"/>
      <point x="126.3125" y="530.0" type="curve"/>
      <point x="96.5625" y="530.0" type="line" smooth="yes"/>
      <point x="90.1875" y="530.0"/>
      <point x="87.875" y="526.625"/>
      <point x="87.875" y="520.125" type="curve"/>
      <point x="87.875" y="10.0" type="line" smooth="yes"/>
      <point x="87.875" y="3.25"/>
      <point x="91.125" y="0.0"/>
    </contour>
  </outline>
</glyph>
<glyph name="o" format="2">
  <advance width="598.125"/>
  <unicode hex="006F"/>
  <anchor x="299.0625" y="265.0" name="center"/>
  <anchor x="363.9375" y="10.0" name="ogonek"/>
  <anchor x="300.9375" y="530.0" name="top"/>
  <anchor x="430.875" y="530.0" name="topright"/>
  <anchor x="297.9375" y="0.0" name="bottom"/>
  <outline>
    <contour>
      <point x="299.0" y="-10.0" type="curve"/>
      <point x="299.0" y="-10.0" type="line"/>
      <point x="446.1875" y="-10.0"/>
      <point x="544.3125" y="102.125"/>
      <point x="544.3125" y="263.875" type="curve"/>
      <point x="544.3125" y="425.8125"/>
      <point x="446.375" y="540.0"/>
      <point x="300.0" y="540.0" type="curve"/>
      <point x="153.25" y="540.0"/>
      <point x="53.8125" y="425.25"/>
      <point x="53.8125" y="262.0" type="curve"/>
      <point x="53.8125" y="101.125"/>
      <point x="150.9375" y="-10.0"/>
    </contour>
    <contour>
      <point x="300.9375" y="33.625" type="curve"/>
      <point x="300.9375" y="33.625" type="line"/>
      <point x="181.375" y="33.625"/>
      <point x="105.8125" y="125.4375"/>
      <point x="105.8125" y="264.125" type="curve"/>
      <point x="105.8125" y="402.875"/>
      <point x="181.375" y="496.625"/>
      <point x="300.0" y="496.625" type="curve"/>
      <point x="417.75" y="496.625"/>
      <point x="492.3125" y="403.8125"/>
      <point x="492.3125" y="264.125" type="curve"/>
      <point x="492.3125" y="124.5625"/>
      <point x="419.625" y="33.625"/>
    </contour>
  </outline>
</glyph>
<glyph name="q" format="2">
  <advance width="594.4375"/>
  <unicode hex="0071"/>
  <outline>
    <contour>
      <point x="494.5625" y="530.0" type="curve"/>
      <point x="481.875" y="530.0" type="line"/>
      <point x="469.875" y="530.0"/>
      <point x="467.5" y="526.6875"/>
      <point x="466.25" y="516.3125" type="curve"/>
      <point x="461.5" y="475.0" type="line" smooth="yes"/>
      <point x="460.375" y="466.9375"/>
      <point x="457.3125" y="465.9375"/>
      <point x="451.3125" y="472.0" type="curve"/>
      <point x="433.875" y="488.25"/>
      <point x="394.875" y="540.0625"/>
      <point x="286.25" y="540.0625" type="curve"/>
      <point x="139.875" y="540.0625"/>
      <point x="55.8125" y="431.0"/>
      <point x="55.8125" y="267.75" type="curve"/>
      <point x="55.8125" y="101.0"/>
      <point x="143.375" y="-10.0"/>
      <point x="287.375" y="-10.0" type="curve"/>
      <point x="353.0" y="-10.0"/>
      <point x="407.25" y="13.8125"/>
      <point x="442.3125" y="40.875" type="curve"/>
      <point x="455.1875" y="50.8125"/>
      <point x="456.5625" y="47.9375"/>
      <point x="456.5625" y="33.625" type="curve"/>
      <point x="456.5625" y="-153.4375" type="line" smooth="yes"/>
      <point x="456.5625" y="-161.75"/>
      <point x="458.875" y="-165.0"/>
      <point x="465.1875" y="-165.0" type="curve"/>
      <point x="496.9375" y="-165.0" type="line" smooth="yes"/>
      <point x="503.25" y="-165.0"/>
      <point x="506.5625" y="-161.75"/>
      <point x="506.5625" y="-154.25" type="curve"/>
      <point x="506.5625" y="516.1875" type="line" smooth="yes"/>
      <point x="506.5625" y="526.625"/>
      <point x="503.375" y="530.0"/>
    </contour>
    <contour>
      <point x="456.5625" y="352.4375" type="curve"/>
      <point x="456.5625" y="107.375" type="line"/>
      <point x="416.875" y="61.0625"/>
      <point x="356.375" y="33.125"/>
      <point x="296.375" y="33.125" type="curve"/>
      <point x="186.5" y="33.125"/>
      <point x="107.8125" y="119.875"/>
      <point x="107.8125" y="268.75" type="curve"/>
      <point x="107.8125" y="422.25"/>
      <point x="192.3125" y="497.25"/>
      <point x="293.8125" y="497.25" type="curve"/>
      <point x="387.375" y="497.25"/>
      <point x="456.5625" y="426.75"/>
    </contour>
  </outline>
</glyph>
<glyph name="r" format="2">
  <advance width="362.125"/>
  <unicode hex="0072"/>
  <anchor x="204.8125" y="530.0" name="top"/>
  <anchor x="113.625" y="0.0" name="bottom"/>
  <outline>
    <contour>
      <point x="97.9375" y="0.0" type="curve"/>
      <point x="97.9375" y="0.0" type="line"/>
      <point x="127.375" y="0.0" type="line" smooth="yes"/>
      <point x="134.4375" y="0.0"/>
      <point x="137.875" y="3.3125"/>
      <point x="137.875" y="10.25" type="curve"/>
      <point x="137.875" y="360.625" type="line" smooth="yes"/>
      <point x="137.875" y="425.625"/>
      <point x="234.25" y="491.4375"/>
      <point x="297.0" y="491.4375" type="curve"/>
      <point x="314.125" y="491.4375"/>
      <point x="323.875" y="490.3125"/>
      <point x="330.5" y="489.8125" type="curve"/>
      <point x="334.0625" y="489.625"/>
      <point x="336.4375" y="491.875"/>
      <point x="336.4375" y="495.5" type="curve"/>
      <point x="336.4375" y="529.375" type="line" smooth="yes"/>
      <point x="336.4375" y="536.8125"/>
      <point x="326.1875" y="540.0"/>
      <point x="301.3125" y="540.0" type="curve"/>
      <point x="247.75" y="540.0"/>
      <point x="201.4375" y="515.0"/>
      <point x="143.1875" y="451.0" type="curve"/>
      <point x="138.0625" y="444.8125"/>
      <point x="134.625" y="446.8125"/>
      <point x="134.625" y="454.0" type="curve"/>
      <point x="134.625" y="521.25" type="line" smooth="yes"/>
      <point x="134.625" y="527.625"/>
      <point x="132.3125" y="530.0"/>
      <point x="126.0" y="530.0" type="curve"/>
      <point x="96.5625" y="530.0" type="line" smooth="yes"/>
      <point x="90.1875" y="530.0"/>
      <point x="87.875" y="526.6875"/>
      <point x="87.875" y="520.125" type="curve"/>
      <point x="87.875" y="10.0" type="line" smooth="yes"/>
      <point x="87.875" y="3.3125"/>
      <point x="91.0625" y="0.0"/>
    </contour>
  </outline>
</glyph>
<glyph name="s" format="2">
  <advance width="503.5"/>
  <unicode hex="0073"/>
  <anchor x="236.1875" y="530.0" name="top"/>
  <anchor x="243.625" y="0.0" name="bottom"/>
  <outline>
    <contour>
      <point x="402.0625" y="423.0" type="curve"/>
      <point x="402.0625" y="423.0" type="line"/>
      <point x="404.4375" y="419.625"/>
      <point x="408.75" y="419.3125"/>
      <point x="412.3125" y="421.5625" type="curve"/>
      <point x="439.625" y="438.375" type="line" smooth="yes"/>
      <point x="443.3125" y="440.6875"/>
      <point x="443.75" y="443.375"/>
      <point x="440.5625" y="447.75" type="curve"/>
      <point x="402.1875" y="506.125"/>
      <point x="331.5" y="540.0"/>
      <point x="247.8125" y="540.0" type="curve"/>
      <point x="135.9375" y="540.0"/>
      <point x="53.6875" y="479.75"/>
      <point x="53.75" y="387.9375" type="curve"/>
      <point x="53.8125" y="335.375"/>
      <point x="82.9375" y="290.0625"/>
      <point x="183.0" y="260.8125" type="curve"/>
      <point x="285.9375" y="229.6875" type="line" smooth="yes"/>
      <point x="367.0625" y="205.8125"/>
      <point x="399.4375" y="176.0625"/>
      <point x="399.4375" y="133.0625" type="curve"/>
      <point x="399.4375" y="73.375"/>
      <point x="331.75" y="33.375"/>
      <point x="244.75" y="33.3125" type="curve"/>
      <point x="161.0" y="33.1875"/>
      <point x="102.125" y="69.0"/>
      <point x="67.875" y="126.875" type="curve"/>
      <point x="65.5625" y="130.1875"/>
      <point x="61.375" y="130.3125"/>
      <point x="57.5" y="127.9375" type="curve"/>
      <point x="31.4375" y="112.0625" type="line" smooth="yes"/>
      <point x="27.0625" y="108.9375"/>
      <point x="27.125" y="105.375"/>
      <point x="29.4375" y="100.875" type="curve"/>
      <point x="62.4375" y="35.25"/>
      <point x="145.75" y="-10.0"/>
      <point x="244.6875" y="-10.0" type="curve"/>
      <point x="360.9375" y="-10.0"/>
      <point x="449.875" y="51.25"/>
      <point x="449.875" y="139.0625" type="curve"/>
      <point x="449.875" y="197.3125"/>
      <point x="411.5" y="242.8125"/>
      <point x="330.625" y="267.875" type="curve"/>
      <point x="197.4375" y="310.5" type="line" smooth="yes"/>
      <point x="122.0625" y="334.375"/>
      <point x="104.0" y="365.9375"/>
      <point x="104.0" y="397.4375" type="curve"/>
      <point x="104.0" y="458.8125"/>
      <point x="164.875" y="497.125"/>
      <point x="246.75" y="497.125" type="curve"/>
      <point x="318.25" y="497.125"/>
      <point x="371.75" y="468.5"/>
    </contour>
  </outline>
</glyph>
<glyph name="t" format="2">
  <advance width="364.5"/>
  <unicode hex="0074"/>
  <anchor x="165.0625" y="314.6875" name="center"/>
  <anchor x="233.25" y="0.0" name="bottom"/>
  <anchor x="342.5625" y="758.75" name="topright"/>
  <outline>
    <contour>
      <point x="187.6875" y="488.75" type="curve"/>
      <point x="323.8125" y="488.75" type="line"/>
      <point x="329.5625" y="488.75"/>
      <point x="331.0" y="491.1875"/>
      <point x="331.0" y="495.75" type="curve"/>
      <point x="331.0" y="523.25" type="line" smooth="yes"/>
      <point x="331.0" y="527.8125"/>
      <point x="328.5625" y="530.0625"/>
      <point x="324.0" y="530.0625" type="curve"/>
      <point x="187.9375" y="530.0625" type="line" smooth="yes"/>
      <point x="182.8125" y="530.0625"/>
      <point x="180.6875" y="532.1875"/>
      <point x="180.6875" y="537.3125" type="curve"/>
      <point x="180.6875" y="698.3125" type="line" smooth="yes"/>
      <point x="180.6875" y="706.6875"/>
      <point x="177.375" y="710.0"/>
      <point x="171.0625" y="710.0" type="curve"/>
      <point x="148.75" y="710.0" type="line" smooth="yes"/>
      <point x="142.375" y="710.0"/>
      <point x="140.1875" y="706.75"/>
      <point x="140.125" y="699.375" type="curve"/>
      <point x="130.6875" y="537.3125" type="line" smooth="yes"/>
      <point x="130.625" y="533.0625"/>
      <point x="128.5" y="530.0"/>
      <point x="124.3125" y="530.0" type="curve"/>
      <point x="32.5" y="530.0" type="line" smooth="yes"/>
      <point x="27.875" y="530.0"/>
      <point x="25.5" y="527.75"/>
      <point x="25.5" y="523.1875" type="curve"/>
      <point x="25.5" y="495.75" type="line" smooth="yes"/>
      <point x="25.5" y="491.1875"/>
      <point x="27.8125" y="488.75"/>
      <point x="32.625" y="488.75" type="curve"/>
      <point x="122.8125" y="488.75" type="line" smooth="yes"/>
      <point x="128.25" y="488.75"/>
      <point x="130.3125" y="486.5"/>
      <point x="130.3125" y="481.0625" type="curve"/>
      <point x="130.3125" y="119.875" type="line" smooth="yes"/>
      <point x="130.3125" y="34.8125"/>
      <point x="158.125" y="0.0"/>
      <point x="239.125" y="0.0" type="curve"/>
      <point x="255.0625" y="0.0"/>
      <point x="305.75" y="1.0"/>
      <point x="320.6875" y="4.1875" type="curve"/>
      <point x="325.625" y="5.375"/>
      <point x="328.125" y="6.9375"/>
      <point x="328.125" y="12.625" type="curve"/>
      <point x="328.1875" y="33.5625" type="line" smooth="yes"/>
      <point x="328.1875" y="38.9375"/>
      <point x="324.9375" y="41.375"/>
      <point x="319.5625" y="41.375" type="curve"/>
      <point x="242.8125" y="41.375" type="line" smooth="yes"/>
      <point x="202.25" y="41.375"/>
      <point x="180.3125" y="56.5625"/>
      <point x="180.3125" y="128.125" type="curve"/>
      <point x="180.3125" y="481.375" type="line" smooth="yes"/>
      <point x="180.3125" y="486.625"/>
      <point x="182.5625" y="488.75"/>
    </contour>
  </outline>
</glyph>
<glyph name="u" format="2">
  <advance width="572.875"/>
  <unicode hex="0075"/>
  <anchor x="475.6875" y="10.9375" name="ogonek"/>
  <anchor x="269.9375" y="530.0" name="top"/>
  <anchor x="521.9375" y="530.0" name="topright"/>
  <anchor x="270.0" y="0.0" name="bottom"/>
  <outline>
    <contour>
      <point x="248.4375" y="34.375" type="curve"/>
      <point x="248.4375" y="34.375" type="line"/>
      <point x="174.4375" y="34.375"/>
      <point x="130.0625" y="85.1875"/>
      <point x="130.0625" y="160.25" type="curve"/>
      <point x="130.0625" y="519.9375" type="line" smooth="yes"/>
      <point x="130.0625" y="526.75"/>
      <point x="126.875" y="530.0"/>
      <point x="120.1875" y="530.0" type="curve"/>
      <point x="90.4375" y="530.0" type="line" smooth="yes"/>
      <point x="83.4375" y="530.0"/>
      <point x="80.0625" y="526.5625"/>
      <point x="80.0625" y="518.75" type="curve"/>
      <point x="80.0625" y="138.25" type="line" smooth="yes"/>
      <point x="80.0625" y="50.0"/>
      <point x="149.625" y="-10.0"/>
      <point x="243.125" y="-10.0" type="curve"/>
      <point x="296.0625" y="-10.0"/>
      <point x="348.125" y="8.375"/>
      <point x="429.75" y="74.5625" type="curve"/>
      <point x="435.8125" y="79.6875"/>
      <point x="438.0" y="78.5625"/>
      <point x="438.0" y="71.5" type="curve"/>
      <point x="438.0" y="8.75" type="line" smooth="yes"/>
      <point x="438.0" y="2.3125"/>
      <point x="440.3125" y="0.0"/>
      <point x="446.625" y="0.0" type="curve"/>
      <point x="476.1875" y="0.0" type="line" smooth="yes"/>
      <point x="482.5625" y="0.0"/>
      <point x="484.875" y="3.3125"/>
      <point x="484.875" y="9.8125" type="curve"/>
      <point x="485.125" y="519.9375" type="line" smooth="yes"/>
      <point x="485.125" y="526.6875"/>
      <point x="481.875" y="530.0"/>
      <point x="475.0625" y="530.0" type="curve"/>
      <point x="445.5" y="530.0" type="line" smooth="yes"/>
      <point x="438.4375" y="530.0"/>
      <point x="435.0" y="526.625"/>
      <point x="435.0" y="519.75" type="curve"/>
      <point x="435.0" y="135.375" type="line"/>
      <point x="372.9375" y="73.0"/>
      <point x="314.0625" y="34.375"/>
    </contour>
  </outline>
</glyph>
<glyph name="v" format="2">
  <advance width="533.8125"/>
  <unicode hex="0076"/>
  <outline>
    <contour>
      <point x="494.1875" y="530.0" type="curve"/>
      <point x="494.1875" y="530.0" type="line"/>
      <point x="466.5625" y="530.0" type="line" smooth="yes"/>
      <point x="460.1875" y="530.0"/>
      <point x="456.8125" y="527.5625"/>
      <point x="454.625" y="522.1875" type="curve"/>
      <point x="277.75" y="82.1875" type="line" smooth="yes"/>
      <point x="271.75" y="68.1875"/>
      <point x="266.75" y="68.25"/>
      <point x="261.8125" y="81.1875" type="curve"/>
      <point x="84.75" y="521.25" type="line" smooth="yes"/>
      <point x="82.625" y="527.5625"/>
      <point x="79.1875" y="530.0"/>
      <point x="71.875" y="530.0" type="curve"/>
      <point x="40.6875" y="530.0" type="line" smooth="yes"/>
      <point x="33.125" y="530.0"/>
      <point x="29.8125" y="525.3125"/>
      <point x="32.0" y="518.8125" type="curve"/>
      <point x="237.25" y="10.9375" type="line" smooth="yes"/>
      <point x="240.5" y="3.3125"/>
      <point x="247.6875" y="0.0"/>
      <point x="258.3125" y="0.0" type="curve"/>
      <point x="277.3125" y="0.0" type="line" smooth="yes"/>
      <point x="287.0" y="0.0"/>
      <point x="293.25" y="3.3125"/>
      <point x="296.5" y="11.875" type="curve"/>
      <point x="501.8125" y="519.75" type="line" smooth="yes"/>
      <point x="504.0" y="525.3125"/>
      <point x="500.8125" y="530.0"/>
    </contour>
  </outline>
</glyph>
<glyph name="w" format="2">
  <advance width="786.0625"/>
  <unicode hex="0077"/>
  <anchor x="397.1875" y="530.0" name="top"/>
  <outline>
    <contour>
      <point x="741.75" y="530.0" type="curve"/>
      <point x="741.75" y="530.0" type="line"/>
      <point x="719.5625" y="530.0" type="line" smooth="yes"/>
      <point x="713.1875" y="530.0"/>
      <point x="707.9375" y="527.5625"/>
      <point x="705.75" y="522.1875" type="curve"/>
      <point x="576.8125" y="82.3125" type="line" smooth="yes"/>
      <point x="572.75" y="68.3125"/>
      <point x="567.625" y="68.375"/>
      <point x="563.6875" y="81.3125" type="curve"/>
      <point x="422.875" y="521.25" type="line" smooth="yes"/>
      <point x="420.8125" y="527.5625"/>
      <point x="417.3125" y="530.0"/>
      <point x="410.0625" y="530.0" type="curve"/>
      <point x="381.6875" y="530.0" type="line" smooth="yes"/>
      <point x="376.25" y="530.0"/>
      <point x="372.75" y="528.5"/>
      <point x="370.6875" y="523.125" type="curve"/>
      <point x="237.25" y="82.3125" type="line" smooth="yes"/>
      <point x="233.1875" y="68.3125"/>
      <point x="227.125" y="68.375"/>
      <point x="223.1875" y="81.3125" type="curve"/>
      <point x="88.5625" y="521.25" type="line" smooth="yes"/>
      <point x="86.5" y="527.5625"/>
      <point x="83.0" y="530.0"/>
      <point x="75.6875" y="530.0" type="curve"/>
      <point x="44.4375" y="530.0" type="line" smooth="yes"/>
      <point x="36.875" y="530.0"/>
      <point x="33.5625" y="525.3125"/>
      <point x="35.75" y="518.8125" type="curve"/>
      <point x="192.1875" y="10.75" type="line" smooth="yes"/>
      <point x="194.375" y="3.1875"/>
      <point x="200.5" y="0.0"/>
      <point x="210.8125" y="0.0" type="curve"/>
      <point x="245.625" y="0.0" type="line" smooth="yes"/>
      <point x="255.0" y="0.0"/>
      <point x="260.0" y="3.125"/>
      <point x="262.125" y="11.4375" type="curve"/>
      <point x="388.375" y="432.625" type="line" smooth="yes"/>
      <point x="391.4375" y="442.875"/>
      <point x="394.6875" y="443.8125"/>
      <point x="398.75" y="432.625" type="curve"/>
      <point x="534.0" y="10.75" type="line" smooth="yes"/>
      <point x="536.1875" y="3.1875"/>
      <point x="542.3125" y="0.0"/>
      <point x="552.6875" y="0.0" type="curve"/>
      <point x="584.5" y="0.0" type="line" smooth="yes"/>
      <point x="593.8125" y="0.0"/>
      <point x="599.75" y="3.125"/>
      <point x="601.875" y="11.4375" type="curve"/>
      <point x="750.3125" y="519.75" type="line" smooth="yes"/>
      <point x="751.625" y="525.3125"/>
      <point x="748.375" y="530.0"/>
    </contour>
  </outline>
</glyph>
<glyph name="x" format="2">
  <advance width="521.6875"/>
  <unicode hex="0078"/>
  <outline>
    <contour>
      <point x="485.25" y="13.9375" type="curve"/>
      <point x="485.25" y="13.9375" type="line"/>
      <point x="298.5" y="264.9375" type="line" smooth="yes"/>
      <point x="294.125" y="270.5"/>
      <point x="293.0625" y="276.5625"/>
      <point x="298.4375" y="283.125" type="curve"/>
      <point x="477.5625" y="520.6875" type="line" smooth="yes"/>
      <point x="481.0625" y="525.375"/>
      <point x="480.125" y="530.0"/>
      <point x="472.9375" y="530.0" type="curve"/>
      <point x="440.375" y="530.0" type="line" smooth="yes"/>
      <point x="432.375" y="530.0"/>
      <point x="429.9375" y="528.6875"/>
      <point x="426.5625" y="524.0625" type="curve"/>
      <point x="274.6875" y="316.375" type="line" smooth="yes"/>
      <point x="269.5625" y="309.0625"/>
      <point x="264.5625" y="310.125"/>
      <point x="260.4375" y="316.375" type="curve"/>
      <point x="104.5" y="524.0625" type="line" smooth="yes"/>
      <point x="101.125" y="528.6875"/>
      <point x="98.6875" y="530.0"/>
      <point x="91.625" y="530.0" type="curve"/>
      <point x="52.625" y="530.0" type="line" smooth="yes"/>
      <point x="45.5625" y="530.0"/>
      <point x="43.25" y="524.0625"/>
      <point x="46.75" y="519.375" type="curve"/>
      <point x="227.0" y="276.5" type="line" smooth="yes"/>
      <point x="231.4375" y="269.9375"/>
      <point x="232.4375" y="264.8125"/>
      <point x="227.0625" y="258.3125" type="curve"/>
      <point x="35.75" y="16.3125" type="line" smooth="yes"/>
      <point x="26.4375" y="3.625"/>
      <point x="32.0625" y="0.0"/>
      <point x="41.3125" y="0.0" type="curve"/>
      <point x="71.3125" y="0.0" type="line" smooth="yes"/>
      <point x="78.1875" y="0.0"/>
      <point x="82.75" y="2.25"/>
      <point x="85.1875" y="5.9375" type="curve"/>
      <point x="252.25" y="223.125" type="line" smooth="yes"/>
      <point x="257.75" y="230.875"/>
      <point x="261.625" y="230.8125"/>
      <point x="267.125" y="223.0625" type="curve"/>
      <point x="426.6875" y="5.9375" type="line" smooth="yes"/>
      <point x="429.125" y="2.25"/>
      <point x="434.625" y="0.0"/>
      <point x="440.5625" y="0.0" type="curve"/>
      <point x="482.8125" y="0.0" type="line" smooth="yes"/>
      <point x="491.1875" y="0.0"/>
      <point x="493.25" y="3.5"/>
    </contour>
  </outline>
</glyph>
<glyph name="y" format="2">
  <advance width="513.0625"/>
  <unicode hex="0079"/>
  <anchor x="259.4375" y="530.0" name="top"/>
  <anchor x="336.375" y="0.0" name="bottom"/>
  <outline>
    <contour>
      <point x="107.625" y="-165.0" type="curve"/>
      <point x="107.625" y="-165.0" type="line"/>
      <point x="175.9375" y="-165.0"/>
      <point x="225.5625" y="-143.5"/>
      <point x="254.25" y="-70.25" type="curve"/>
      <point x="481.125" y="519.75" type="line" smooth="yes"/>
      <point x="483.375" y="524.375"/>
      <point x="480.125" y="530.0"/>
      <point x="473.5" y="530.0" type="curve"/>
      <point x="445.875" y="530.0" type="line" smooth="yes"/>
      <point x="440.4375" y="530.0"/>
      <point x="437.0625" y="527.5625"/>
      <point x="434.875" y="522.1875" type="curve"/>
      <point x="270.125" y="93.75" type="line" smooth="yes"/>
      <point x="264.125" y="77.875"/>
      <point x="257.125" y="78.0"/>
      <point x="252.1875" y="90.0" type="curve"/>
      <point x="83.75" y="521.25" type="line" smooth="yes"/>
      <point x="81.625" y="527.5625"/>
      <point x="77.25" y="530.0"/>
      <point x="70.875" y="530.0" type="curve"/>
      <point x="40.625" y="530.0" type="line" smooth="yes"/>
      <point x="31.1875" y="530.0"/>
      <point x="28.75" y="524.375"/>
      <point x="31.9375" y="516.9375" type="curve"/>
      <point x="221.25" y="36.625" type="line" smooth="yes"/>
      <point x="241.5625" y="-15.5"/>
      <point x="195.6875" y="-122.3125"/>
      <point x="133.75" y="-122.3125" type="curve"/>
      <point x="73.0625" y="-122.3125" type="line" smooth="yes"/>
      <point x="49.1875" y="-122.3125"/>
      <point x="44.125" y="-124.875"/>
      <point x="44.125" y="-133.8125" type="curve"/>
      <point x="44.125" y="-154.25" type="line" smooth="yes"/>
      <point x="44.125" y="-165.75"/>
      <point x="68.4375" y="-165.0"/>
    </contour>
  </outline>
</glyph>
<glyph name="z" format="2">
  <advance width="463.375"/>
  <unicode hex="007A"/>
  <anchor x="246.125" y="530.0" name="top"/>
  <outline>
    <contour>
      <point x="42.1875" y="0.0" type="curve"/>
      <point x="42.1875" y="0.0" type="line"/>
      <point x="417.1875" y="0.0" type="line" smooth="yes"/>
      <point x="423.875" y="0.0"/>
      <point x="426.25" y="2.5"/>
      <point x="426.25" y="8.875" type="curve"/>
      <point x="426.25" y="33.75" type="line" smooth="yes"/>
      <point x="426.25" y="38.375"/>
      <point x="423.8125" y="40.5625"/>
      <point x="419.1875" y="40.5625" type="curve"/>
      <point x="99.8125" y="40.5625" type="line" smooth="yes"/>
      <point x="95.1875" y="40.5625"/>
      <point x="93.125" y="42.875"/>
      <point x="97.4375" y="48.3125" type="curve"/>
      <point x="412.0" y="474.25" type="line" smooth="yes"/>
      <point x="417.4375" y="480.9375"/>
      <point x="419.625" y="488.0625"/>
      <point x="419.625" y="496.5" type="curve"/>
      <point x="419.625" y="523.1875" type="line" smooth="yes"/>
      <point x="419.625" y="527.625"/>
      <point x="417.3125" y="530.0"/>
      <point x="413.75" y="530.0" type="curve"/>
      <point x="63.6875" y="530.0" type="line" smooth="yes"/>
      <point x="59.25" y="530.0"/>
      <point x="56.9375" y="527.625"/>
      <point x="56.9375" y="522.1875" type="curve"/>
      <point x="56.9375" y="497.5625" type="line" smooth="yes"/>
      <point x="56.9375" y="490.8125"/>
      <point x="59.125" y="489.5625"/>
      <point x="64.875" y="489.5625" type="curve"/>
      <point x="354.5625" y="489.5625" type="line" smooth="yes"/>
      <point x="360.125" y="489.5625"/>
      <point x="362.25" y="486.4375"/>
      <point x="358.0" y="481.0625" type="curve"/>
      <point x="43.75" y="54.4375" type="line" smooth="yes"/>
      <point x="36.9375" y="45.375"/>
      <point x="34.9375" y="40.375"/>
      <point x="34.9375" y="32.5" type="curve"/>
      <point x="34.9375" y="8.125" type="line" smooth="yes"/>
      <point x="34.9375" y="2.1875"/>
      <point x="36.25" y="0.0"/>
    </contour>
  </outline>
</glyph>
<glyph name="braceleft" format="2">
  <advance width="275.6875"/>
  <unicode hex="007B"/>
  <outline>
    <contour>
      <point x="116.0" y="649.125" type="curve"/>
      <point x="116.0" y="649.125" type="line"/>
      <point x="116.0" y="419.375" type="line" smooth="yes"/>
      <point x="116.0" y="359.375"/>
      <point x="79.5" y="311.0"/>
      <point x="4.5" y="310.0625" type="curve"/>
      <point x="2.1875" y="310.0625"/>
      <point x="0.0" y="307.875"/>
      <point x="0.0" y="303.1875" type="curve"/>
      <point x="0.0" y="274.5625" type="line" smooth="yes"/>
      <point x="0.0" y="269.875"/>
      <point x="2.1875" y="267.6875"/>
      <point x="4.5" y="267.6875" type="curve"/>
      <point x="78.5" y="267.6875"/>
      <point x="116.0" y="210.375"/>
      <point x="116.0" y="162.375" type="curve"/>
      <point x="116.0" y="-70.25" type="line" smooth="yes"/>
      <point x="116.0" y="-124.0"/>
      <point x="150.4375" y="-165.0"/>
      <point x="229.625" y="-165.0" type="curve"/>
      <point x="252.0625" y="-165.0" type="line" smooth="yes"/>
      <point x="258.5" y="-165.0"/>
      <point x="260.6875" y="-162.8125"/>
      <point x="260.6875" y="-156.375" type="curve"/>
      <point x="260.6875" y="-132.125" type="line" smooth="yes"/>
      <point x="260.6875" y="-126.75"/>
      <point x="257.5" y="-123.625"/>
      <point x="252.0625" y="-123.625" type="curve"/>
      <point x="232.125" y="-123.625" type="line" smooth="yes"/>
      <point x="182.125" y="-123.625"/>
      <point x="167.1875" y="-106.75"/>
      <point x="167.1875" y="-68.75" type="curve"/>
      <point x="167.1875" y="163.5625" type="line" smooth="yes"/>
      <point x="167.0" y="246.625"/>
      <point x="122.625" y="281.375"/>
      <point x="71.9375" y="285.375" type="curve"/>
      <point x="62.9375" y="286.375"/>
      <point x="63.9375" y="291.3125"/>
      <point x="71.9375" y="292.3125" type="curve"/>
      <point x="123.625" y="297.375"/>
      <point x="167.0" y="337.125"/>
      <point x="167.1875" y="417.3125" type="curve"/>
      <point x="167.1875" y="647.625" type="line" smooth="yes"/>
      <point x="167.1875" y="683.9375"/>
      <point x="184.0625" y="700.625"/>
      <point x="231.1875" y="700.625" type="curve"/>
      <point x="253.1875" y="700.625" type="line" smooth="yes"/>
      <point x="257.5" y="700.625"/>
      <point x="260.6875" y="702.8125"/>
      <point x="260.6875" y="707.125" type="curve"/>
      <point x="260.6875" y="736.5" type="line" smooth="yes"/>
      <point x="260.6875" y="740.8125"/>
      <point x="258.5625" y="742.0"/>
      <point x="253.1875" y="742.0" type="curve"/>
      <point x="228.5" y="742.0" type="line" smooth="yes"/>
      <point x="154.1875" y="742.0"/>
      <point x="116.0" y="703.6875"/>
    </contour>
  </outline>
</glyph>
<glyph name="bar" format="2">
  <advance width="265.625"/>
  <unicode hex="007C"/>
  <outline>
    <contour>
      <point x="119.375" y="-165.0" type="curve"/>
      <point x="147.6875" y="-165.0" type="line"/>
      <point x="153.125" y="-165.0"/>
      <point x="155.5" y="-162.6875"/>
      <point x="155.5" y="-156.375" type="curve"/>
      <point x="155.5" y="836.4375" type="line" smooth="yes"/>
      <point x="155.5" y="843.75"/>
      <point x="153.125" y="847.0"/>
      <point x="146.5625" y="847.0" type="curve"/>
      <point x="117.3125" y="847.0" type="line" smooth="yes"/>
      <point x="112.5" y="847.0"/>
      <point x="110.125" y="843.8125"/>
      <point x="110.125" y="838.8125" type="curve"/>
      <point x="111.0625" y="-158.25" type="line" smooth="yes"/>
      <point x="111.0625" y="-162.5"/>
      <point x="113.4375" y="-165.0"/>
    </contour>
  </outline>
</glyph>
<glyph name="asciitilde" format="2">
  <advance width="547.875"/>
  <unicode hex="007E"/>
  <outline>
    <contour>
      <point x="479.6875" y="372.0625" type="curve"/>
      <point x="479.6875" y="372.0625" type="line"/>
      <point x="483.8125" y="377.3125"/>
      <point x="484.875" y="380.0"/>
      <point x="482.625" y="384.375" type="curve"/>
      <point x="473.0625" y="407.4375" type="line" smooth="yes"/>
      <point x="469.6875" y="414.875"/>
      <point x="466.1875" y="415.0"/>
      <point x="460.9375" y="409.5" type="curve"/>
      <point x="443.5" y="392.25"/>
      <point x="420.625" y="372.625"/>
      <point x="371.1875" y="372.625" type="curve"/>
      <point x="300.6875" y="372.625"/>
      <point x="254.1875" y="419.25"/>
      <point x="181.1875" y="419.25" type="curve"/>
      <point x="126.4375" y="419.25"/>
      <point x="94.5" y="395.1875"/>
      <point x="66.625" y="371.0625" type="curve"/>
      <point x="63.125" y="368.5"/>
      <point x="62.9375" y="366.125"/>
      <point x="65.125" y="360.875" type="curve"/>
      <point x="74.3125" y="338.8125" type="line" smooth="yes"/>
      <point x="77.4375" y="331.75"/>
      <point x="78.9375" y="331.75"/>
      <point x="84.0" y="336.875" type="curve"/>
      <point x="104.8125" y="356.9375"/>
      <point x="134.9375" y="377.0625"/>
      <point x="184.75" y="377.0625" type="curve"/>
      <point x="254.5625" y="377.0625"/>
      <point x="290.25" y="331.3125"/>
      <point x="370.5" y="331.3125" type="curve"/>
      <point x="429.1875" y="331.3125"/>
      <point x="465.0" y="353.8125"/>
    </contour>
  </outline>
</glyph>
<glyph name="exclamdown" format="2">
  <advance width="234.8125"/>
  <unicode hex="00A1"/>
  <outline>
    <contour>
      <point x="153.0625" y="452.375" type="curve"/>
      <point x="153.0625" y="452.375" type="line"/>
      <point x="153.0625" y="517.875" type="line" smooth="yes"/>
      <point x="153.0625" y="526.6875"/>
      <point x="149.6875" y="530.0"/>
      <point x="138.8125" y="530.0" type="curve"/>
      <point x="92.875" y="530.0" type="line" smooth="yes"/>
      <point x="84.125" y="530.0"/>
      <point x="81.8125" y="526.6875"/>
      <point x="81.8125" y="519.0625" type="curve"/>
      <point x="81.8125" y="453.4375" type="line" smooth="yes"/>
      <point x="81.8125" y="445.9375"/>
      <point x="85.125" y="443.625"/>
      <point x="89.5625" y="443.625" type="curve"/>
      <point x="145.375" y="443.625" type="line" smooth="yes"/>
      <point x="150.8125" y="443.625"/>
      <point x="153.0625" y="445.9375"/>
    </contour>
    <contour>
      <point x="149.875" y="-158.0625" type="curve"/>
      <point x="149.875" y="-158.0625" type="line"/>
      <point x="136.5625" y="365.375" type="line" smooth="yes"/>
      <point x="136.4375" y="372.25"/>
      <point x="133.125" y="374.625"/>
      <point x="125.125" y="374.625" type="curve"/>
      <point x="107.6875" y="374.625" type="line" smooth="yes"/>
      <point x="100.8125" y="374.625"/>
      <point x="98.75" y="372.25"/>
      <point x="98.5625" y="366.5" type="curve"/>
      <point x="86.0625" y="-157.0" type="line" smooth="yes"/>
      <point x="85.9375" y="-162.625"/>
      <point x="88.375" y="-165.0"/>
      <point x="91.9375" y="-165.0" type="curve"/>
      <point x="143.125" y="-165.0" type="line" smooth="yes"/>
      <point x="147.5625" y="-165.0"/>
      <point x="150.0" y="-161.6875"/>
    </contour>
  </outline>
</glyph>
<glyph name="cent" format="2">
  <advance width="558.0"/>
  <unicode hex="00A2"/>
  <outline>
    <contour>
      <point x="309.0" y="14.0" type="curve"/>
      <point x="309.0" y="14.0" type="line"/>
      <point x="309.0" y="116.5625" type="line" smooth="yes"/>
      <point x="309.0" y="122.3125"/>
      <point x="306.6875" y="125.6875"/>
      <point x="299.8125" y="125.6875" type="curve"/>
      <point x="273.125" y="125.6875" type="line" smooth="yes"/>
      <point x="266.125" y="125.6875"/>
      <point x="262.75" y="122.3125"/>
      <point x="262.75" y="115.4375" type="curve"/>
      <point x="262.75" y="12.875" type="line" smooth="yes"/>
      <point x="262.75" y="4.3125"/>
      <point x="266.0" y="0.0"/>
      <point x="275.6875" y="0.0" type="curve"/>
      <point x="294.875" y="0.0" type="line" smooth="yes"/>
      <point x="304.6875" y="0.0"/>
      <point x="309.0" y="4.3125"/>
    </contour>
    <contour>
      <point x="309.0" y="630.3125" type="curve"/>
      <point x="309.0" y="630.3125" type="line"/>
      <point x="309.0" y="732.875" type="line" smooth="yes"/>
      <point x="309.0" y="738.625"/>
      <point x="306.6875" y="742.0"/>
      <point x="299.8125" y="742.0" type="curve"/>
      <point x="273.125" y="742.0" type="line" smooth="yes"/>
      <point x="266.125" y="742.0"/>
      <point x="262.75" y="738.625"/>
      <point x="262.75" y="731.75" type="curve"/>
      <point x="262.75" y="629.1875" type="line" smooth="yes"/>
      <point x="262.75" y="620.625"/>
      <point x="266.0" y="616.3125"/>
      <point x="275.6875" y="616.3125" type="curve"/>
      <point x="294.875" y="616.3125" type="line" smooth="yes"/>
      <point x="304.6875" y="616.3125"/>
      <point x="309.0" y="620.625"/>
    </contour>
    <component base="c" yOffset="111.0"/>
  </outline>
</glyph>
<glyph name="sterling" format="2">
  <advance width="601.1875"/>
  <unicode hex="00A3"/>
  <outline>
    <contour>
      <point x="20.625" y="0.0" type="curve"/>
      <point x="20.625" y="0.0" type="line"/>
      <point x="356.625" y="0.0" type="line" smooth="yes"/>
      <point x="446.9375" y="0.0"/>
      <point x="512.75" y="36.125"/>
      <point x="542.6875" y="110.375" type="curve"/>
      <point x="544.75" y="114.9375"/>
      <point x="541.5" y="117.375"/>
      <point x="536.8125" y="119.4375" type="curve"/>
      <point x="508.5" y="129.375" type="line" smooth="yes"/>
      <point x="504.8125" y="130.5"/>
      <point x="499.6875" y="128.4375"/>
      <point x="497.5625" y="124.0" type="curve"/>
      <point x="473.125" y="67.6875"/>
      <point x="426.4375" y="47.75"/>
      <point x="355.625" y="47.75" type="curve"/>
      <point x="152.8125" y="47.75" type="line" smooth="yes"/>
      <point x="147.4375" y="47.75"/>
      <point x="146.25" y="49.9375"/>
      <point x="150.625" y="55.25" type="curve"/>
      <point x="165.9375" y="72.3125"/>
      <point x="203.375" y="125.0625"/>
      <point x="203.9375" y="232.6875" type="curve"/>
      <point x="204.375" y="275.375"/>
      <point x="199.9375" y="312.75"/>
      <point x="192.4375" y="350.75" type="curve"/>
      <point x="191.5" y="355.875"/>
      <point x="194.5" y="358.0"/>
      <point x="199.6875" y="358.0" type="curve"/>
      <point x="356.75" y="358.0" type="line" smooth="yes"/>
      <point x="361.0" y="358.0"/>
      <point x="363.125" y="360.125"/>
      <point x="363.125" y="364.375" type="curve"/>
      <point x="363.125" y="394.6875" type="line" smooth="yes"/>
      <point x="363.125" y="397.9375"/>
      <point x="361.0" y="400.0625"/>
      <point x="356.75" y="400.0625" type="curve"/>
      <point x="189.4375" y="400.0625" type="line" smooth="yes"/>
      <point x="186.125" y="400.0625"/>
      <point x="183.9375" y="403.1875"/>
      <point x="182.9375" y="406.4375" type="curve"/>
      <point x="171.3125" y="441.4375"/>
      <point x="156.125" y="509.5625"/>
      <point x="156.125" y="565.0625" type="curve"/>
      <point x="156.125" y="651.875"/>
      <point x="223.875" y="702.0625"/>
      <point x="308.25" y="702.0625" type="curve"/>
      <point x="376.8125" y="702.0625"/>
      <point x="416.1875" y="677.0"/>
      <point x="438.4375" y="636.8125" type="curve"/>
      <point x="440.5625" y="632.5625"/>
      <point x="444.875" y="631.5"/>
      <point x="450.1875" y="633.5625" type="curve"/>
      <point x="480.3125" y="646.375" type="line" smooth="yes"/>
      <point x="484.6875" y="648.4375"/>
      <point x="488.8125" y="649.6875"/>
      <point x="486.6875" y="655.0" type="curve"/>
      <point x="465.8125" y="705.1875"/>
      <point x="388.3125" y="752.0"/>
      <point x="304.4375" y="752.0" type="curve"/>
      <point x="175.9375" y="752.0"/>
      <point x="70.625" y="645.5"/>
      <point x="111.5625" y="477.5625" type="curve"/>
      <point x="128.8125" y="405.625" type="line" smooth="yes"/>
      <point x="129.8125" y="401.25"/>
      <point x="126.75" y="399.125"/>
      <point x="122.4375" y="399.125" type="curve"/>
      <point x="40.0" y="399.125" type="line" smooth="yes"/>
      <point x="36.6875" y="399.125"/>
      <point x="34.5" y="397.0"/>
      <point x="34.5" y="392.75" type="curve"/>
      <point x="34.5" y="363.5625" type="line" smooth="yes"/>
      <point x="34.5" y="359.25"/>
      <point x="36.6875" y="357.0625"/>
      <point x="40.0" y="357.0625" type="curve"/>
      <point x="132.3125" y="357.0625" type="line" smooth="yes"/>
      <point x="135.5625" y="357.0625"/>
      <point x="136.8125" y="355.9375"/>
      <point x="137.8125" y="351.6875" type="curve"/>
      <point x="145.6875" y="295.6875"/>
      <point x="150.4375" y="250.1875"/>
      <point x="150.4375" y="215.4375" type="curve"/>
      <point x="150.4375" y="98.625"/>
      <point x="106.25" y="45.8125"/>
      <point x="53.375" y="46.75" type="curve"/>
      <point x="19.5" y="46.75" type="line" smooth="yes"/>
      <point x="14.125" y="46.75"/>
      <point x="12.0" y="44.5625"/>
      <point x="12.0" y="39.25" type="curve"/>
      <point x="12.0" y="8.75" type="line" smooth="yes"/>
      <point x="12.0" y="3.3125"/>
      <point x="15.1875" y="0.0"/>
    </contour>
  </outline>
</glyph>
<glyph name="currency" format="2">
  <advance width="518.4375"/>
  <unicode hex="00A4"/>
  <outline>
    <contour>
      <point x="258.0" y="199.125" type="curve"/>
      <point x="258.0" y="199.125" type="line"/>
      <point x="295.4375" y="199.125"/>
      <point x="329.875" y="211.25"/>
      <point x="358.5" y="232.25" type="curve"/>
      <point x="362.5" y="235.1875"/>
      <point x="366.4375" y="233.375"/>
      <point x="371.3125" y="229.4375" type="curve"/>
      <point x="416.875" y="183.875" type="line"/>
      <point x="420.0" y="179.8125"/>
      <point x="423.9375" y="179.875"/>
      <point x="427.9375" y="183.875" type="curve"/>
      <point x="448.0" y="204.0" type="line" smooth="yes"/>
      <point x="451.9375" y="208.0"/>
      <point x="451.9375" y="212.0"/>
      <point x="447.9375" y="216.9375" type="curve"/>
      <point x="401.3125" y="262.625" type="line" smooth="yes"/>
      <point x="396.5625" y="267.375"/>
      <point x="397.5" y="271.25"/>
      <point x="400.375" y="276.0625" type="curve"/>
      <point x="419.75" y="302.6875"/>
      <point x="430.75" y="336.5"/>
      <point x="430.75" y="373.0" type="curve"/>
      <point x="430.75" y="409.625"/>
      <point x="418.75" y="444.0"/>
      <point x="399.5625" y="471.6875" type="curve"/>
      <point x="396.625" y="475.6875"/>
      <point x="396.5625" y="478.6875"/>
      <point x="400.5" y="482.625" type="curve"/>
      <point x="447.9375" y="530.0" type="line" smooth="yes"/>
      <point x="451.0" y="534.0"/>
      <point x="451.9375" y="537.0625"/>
      <point x="447.9375" y="542.0" type="curve"/>
      <point x="427.875" y="562.25" type="line" smooth="yes"/>
      <point x="423.9375" y="566.1875"/>
      <point x="419.0" y="566.1875"/>
      <point x="415.0625" y="562.25" type="curve"/>
      <point x="368.5625" y="515.75" type="line" smooth="yes"/>
      <point x="364.625" y="511.8125"/>
      <point x="360.625" y="511.8125"/>
      <point x="355.6875" y="514.75" type="curve"/>
      <point x="327.9375" y="534.875"/>
      <point x="293.3125" y="545.9375"/>
      <point x="257.6875" y="545.9375" type="curve"/>
      <point x="221.4375" y="545.9375"/>
      <point x="186.875" y="534.8125"/>
      <point x="159.3125" y="515.8125" type="curve"/>
      <point x="154.125" y="512.75"/>
      <point x="150.125" y="513.6875"/>
      <point x="147.0" y="516.8125" type="curve"/>
      <point x="105.0" y="558.8125" type="line"/>
      <point x="99.875" y="564.875"/>
      <point x="94.75" y="565.75"/>
      <point x="87.8125" y="558.75" type="curve"/>
      <point x="73.8125" y="544.6875" type="line"/>
      <point x="67.875" y="537.75"/>
      <point x="67.875" y="532.5625"/>
      <point x="73.8125" y="525.6875" type="curve"/>
      <point x="114.8125" y="484.6875" type="line" smooth="yes"/>
      <point x="118.0" y="481.5"/>
      <point x="118.9375" y="477.5"/>
      <point x="115.875" y="472.3125" type="curve"/>
      <point x="96.75" y="444.6875"/>
      <point x="84.875" y="410.4375"/>
      <point x="84.875" y="372.9375" type="curve"/>
      <point x="84.875" y="337.1875"/>
      <point x="94.9375" y="304.25"/>
      <point x="113.0625" y="276.5625" type="curve"/>
      <point x="117.0" y="270.5625"/>
      <point x="117.0625" y="265.4375"/>
      <point x="113.0" y="260.4375" type="curve"/>
      <point x="71.9375" y="219.375" type="line" smooth="yes"/>
      <point x="66.0" y="213.4375"/>
      <point x="65.9375" y="208.25"/>
      <point x="71.9375" y="202.25" type="curve"/>
      <point x="85.875" y="187.375" type="line"/>
      <point x="92.9375" y="181.25"/>
      <point x="98.125" y="181.3125"/>
      <point x="105.0" y="187.25" type="curve"/>
      <point x="146.0" y="229.1875" type="line" smooth="yes"/>
      <point x="150.0" y="234.125"/>
      <point x="154.125" y="233.3125"/>
      <point x="158.375" y="230.25" type="curve"/>
      <point x="186.9375" y="210.125"/>
      <point x="221.5" y="199.125"/>
    </contour>
    <contour>
      <point x="259.6875" y="248.125" type="curve"/>
      <point x="259.6875" y="248.125" type="line"/>
      <point x="188.75" y="248.125"/>
      <point x="134.8125" y="307.0625"/>
      <point x="134.8125" y="373.0" type="curve"/>
      <point x="134.8125" y="438.9375"/>
      <point x="188.75" y="497.875"/>
      <point x="259.6875" y="497.875" type="curve"/>
      <point x="330.625" y="497.875"/>
      <point x="384.5625" y="438.9375"/>
      <point x="384.5625" y="373.0" type="curve"/>
      <point x="384.5625" y="307.0625"/>
      <point x="330.625" y="248.125"/>
    </contour>
  </outline>
</glyph>
